<?xml version="1.0" encoding="UTF-8"?>
<!-- Created with Inkscape (http://www.inkscape.org/) -->
<svg width="108" height="64" version="1.1" viewBox="0 0 108 64" xml:space="preserve" xmlns="http://www.w3.org/2000/svg"><g><path x="0" y="0" width="108" height="64" d="m4 0h100a4 4 45 0 1 4 4v56a4 4 135 0 1-4 4h-100a4 4 45 0 1-4-4v-56a4 4 135 0 1 4-4z" fill="#6f6f75" style="paint-order:markers stroke fill"/><path x="10" y="44" width="86" height="8" d="m14 44h78a4 4 45 0 1 4 4 4 4 135 0 1-4 4h-78a4 4 45 0 1-4-4 4 4 135 0 1 4-4z" fill="#7f7f85" style="paint-order:markers stroke fill"/><path d="m50 46v4h2v-4zm4 0v4h2v-4zm4 0v4h4v-4zm6 0v4h4v-4zm6 0v4h4v-4zm6 0v4h2v-4zm4 0v4h2v-4z" fill="#9c9c9c" stroke-linecap="round" stroke-linejoin="round" stroke-width="4" style="paint-order:markers stroke fill"/><g><path d="m8 14v18a4 4 45 0 0 4 4h24a4 4 135 0 0 4-4v-18a4 4 45 0 0-4-4h-24a4 4 135 0 0-4 4z" fill="#313131" style="paint-order:markers stroke fill"/><path d="m12 32v-2h6v2zm8 0v-2h4v2zm-8-4v-2h16v2zm18 0v-2h4v2zm-18-4v-2h4v2zm6 0v-2h4v2zm6 0v-2h4v2zm-12-4v-2h12v2zm14 0v-2h6v2zm-14-4v-2h2v2zm4 0v-2h6v2zm8 0v-2h2v2zm4 0v-2h4v2z" fill="#39bd39" style="paint-order:markers stroke fill"/><rect x="48" y="10" width="44" height="26" fill="#313131" style="paint-order:markers stroke fill"/><path d="m50 12v4h4v-4zm12 0v4h4v-4zm6 0v4h4v-4zm6 0v4h4v-4zm6 0v4h4v-4zm6 0v4h4v-4zm-36 6v4h4v-4zm6 0v4h4v-4zm12 0v4h4v-4zm12 0v4h4v-4zm6 0v4h4v-4zm-18 6v4h4v-4zm6 0v4h4v-4zm-24 6v4h4v-4zm6 0v4h4v-4zm6 0v4h4v-4zm6 0v4h4v-4zm18 0v4h4v-4z" fill="#6b6b6b" style="paint-order:markers stroke fill"/><path d="m56 12v4h4v-4zm6 6v4h4v-4zm12 0v4h4v-4zm-24 6v4h4v-4zm6 0v4h4v-4zm6 0v4h4v-4zm18 0v4h4v-4zm6 0v4h4v-4zm-12 6v4h4v-4zm6 0v4h4v-4z" fill="#9c9c9c" style="paint-order:markers stroke fill"/></g></g></svg>
