<?xml version="1.0" encoding="UTF-8"?>
<!-- Created with Inkscape (http://www.inkscape.org/) -->
<svg width="90" height="50" version="1.1" viewBox="0 0 90 50" xml:space="preserve" xmlns="http://www.w3.org/2000/svg"><g transform="translate(42)" stroke-opacity="0"><rect x="-42" y="14" width="42" height="8" fill="#7b7b7b" style="paint-order:markers stroke fill"/><rect x="-42" y="18" width="42" height="4" fill="#636363" style="paint-order:markers stroke fill"/><rect x="-42" y="30" width="42" height="8" fill="#7b7b7b" style="paint-order:markers stroke fill"/><rect x="-42" y="34" width="42" height="4" fill="#636363" style="paint-order:markers stroke fill"/><path d="m-42 14v8h43v-8zm2 2h2v4h-2zm4 0h2v4h-2zm4 0h2v4h-2zm4 0h2v4h-2zm4 0h2v4h-2zm4 0h2v4h-2zm4 0h2v4h-2zm4 0h2v4h-2zm4 0h2v4h-2zm4 0h2v4h-2zm-38 14v8h43v-8zm2 2h2v4h-2zm4 0h2v4h-2zm4 0h2v4h-2zm4 0h2v4h-2zm4 0h2v4h-2zm4 0h2v4h-2zm4 0h2v4h-2zm4 0h2v4h-2zm4 0h2v4h-2zm4 0h2v4h-2z" fill="#4a4a4a" style="paint-order:markers stroke fill"/><rect width="48" height="50" fill="#7b7b7b" style="paint-order:markers stroke fill"/><path d="m0 50 46-48 2-2v50z" fill="#4a4a4a" style="paint-order:markers stroke fill"/><rect x="2" y="2" width="44" height="46" fill="#6b6b6b" style="paint-order:markers stroke fill"/><rect x="32" y="22" width="8" height="14" fill="#7b7b7b" style="paint-order:markers stroke fill"/><path d="m32 36 2-2 4-10 2-2v14h-8" fill="#4a4a4a" style="paint-order:markers stroke fill"/><rect x="34" y="24" width="4" height="10" fill="#6b6b6b" style="paint-order:markers stroke fill"/></g></svg>
