<?xml version="1.0" encoding="UTF-8"?>
<!-- Created with Inkscape (http://www.inkscape.org/) -->
<svg width="80" height="98" version="1.1" viewBox="0 0 80 98" xml:space="preserve" xmlns="http://www.w3.org/2000/svg"><g transform="translate(0,48)"><g stroke-opacity="0"><path d="m0 0v50h48v-50z" fill="#7b7b7b" style="paint-order:markers stroke fill"/><path d="m0 50 46-48 2-2v50z" fill="#4a4a4a" style="paint-order:markers stroke fill"/><path d="m2 2v46h44v-46z" fill="#636363" style="paint-order:markers stroke fill"/></g><g stroke-opacity="0"><rect x="32" y="22" width="8" height="14" fill="#7b7b7b" style="paint-order:markers stroke fill"/><path d="m32 36 2-2 4-10 2-2v14h-8" fill="#4a4a4a" style="paint-order:markers stroke fill"/><rect x="34" y="24" width="4" height="10" fill="#6b6b6b" style="paint-order:markers stroke fill"/><path d="m17-41v41h3v-41h-3zm18 16v25h3v-25h-3z" fill="#333" style="paint-order:markers stroke fill"/><path d="m30 0h6v-25h44v-5h-50m-18 30h6v-41h62v-5h-68" fill="#7b7b7b" style="paint-order:markers stroke fill"/><path d="m32 0h4v-25h44v-3h-48m-18 28h4v-41h62v-3h-66" fill="#636363" style="paint-order:markers stroke fill"/><path d="m10-45v45h2v-2h4v2h2v-40h62v-2h-2v-4h2v-2h-67a3 3 135 0 0-3 3zm4-1h2v2h-2zm4 0h2v4h-2zm4 0h2v4h-2zm4 0h2v4h-2zm4 0h2v4h-2zm4 0h2v4h-2zm4 0h2v4h-2zm4 0h2v4h-2zm4 0h2v4h-2zm4 0h2v4h-2zm4 0h2v4h-2zm4 0h2v4h-2zm4 0h2v4h-2zm4 0h2v4h-2zm4 0h2v4h-2zm4 0h2v4h-2zm-62 4h4v2h-4zm0 4h4v2h-4zm0 4h4v2h-4zm16 5v29h2v-2h4v2h2v-24h44v-8h-49a3 3 135 0 0-3 3zm-16-1h4v2h-4zm20 0h2v2h-2zm4 0h2v4h-2zm4 0h2v4h-2zm4 0h2v4h-2zm4 0h2v4h-2zm4 0h2v4h-2zm4 0h2v4h-2zm4 0h2v4h-2zm4 0h2v4h-2zm4 0h2v4h-2zm4 0h2v4h-2zm4 0h2v4h-2zm-64 4h4v2h-4zm18 0h4v2h-4zm-18 4h4v2h-4zm18 0h4v2h-4zm-18 4h4v2h-4zm18 0h4v2h-4zm-18 4h4v2h-4zm18 0h4v2h-4zm-18 4h4v2h-4zm18 0h4v2h-4zm-18 4h4v2h-4zm18 0h4v2h-4z" fill="#4a4a4a" style="paint-order:markers stroke fill"/></g></g></svg>
