<?xml version="1.0" encoding="UTF-8"?>
<!-- Created with Inkscape (http://www.inkscape.org/) -->
<svg width="84" height="100" version="1.1" viewBox="0 0 84 100" xml:space="preserve" xmlns="http://www.w3.org/2000/svg"><g transform="translate(36)" stroke-opacity="0"><path d="m0 0v14h-33a3 3 0 0 0-3 3v80a3 3 0 0 0 3 3h3a2 2 0 0 0 2-2v-76h28v8h-15a3 3 0 0 0-3 3v64a3 3 0 0 0 3 3h4v-62h11v12h48v-50h-48z" fill="#7b7b7b" style="paint-order:markers stroke fill"/><path d="m0 50 46-48 2-2v50z" fill="#4a4a4a" style="paint-order:markers stroke fill"/><path d="m2 2v46h44v-46h-44zm-34 16v80h4v-76h28v-4h-32zm18 16v64h4v-60h10v-4h-14z" fill="#636363" style="paint-order:markers stroke fill"/><g><path d="m-30 22v76l-2 2h2 1a3 3 0 0 0 3-3v-75h-4zm18 16v60l-2 2h3a3 3 0 0 0 3-3v-59h-4z" fill="#333" style="paint-order:markers stroke fill"/><rect x="32" y="22" width="8" height="14" fill="#7b7b7b" style="paint-order:markers stroke fill"/><path d="m32 36 2-2 4-10 2-2v14h-8" fill="#4a4a4a" style="paint-order:markers stroke fill"/><rect x="34" y="24" width="4" height="10" fill="#6b6b6b" style="paint-order:markers stroke fill"/><path transform="translate(-18,-16)" d="m-15 30c-1.6569 0-3 1.3431-3 3v80c0 1.6568 1.3431 3 3 3h2c1.6569 0 3-1.3432 3-3v-75h28v-8zm1 2h2v2h-2zm4 0h2v4h-2zm4 0h2v4h-2zm4 0h2v4h-2zm4 0h2v4h-2zm4 0h2v4h-2zm4 0h2v4h-2zm4 0h2v4h-2zm-30 4h4v2h-4zm0 4h4v2h-4zm0 4h4v2h-4zm0 4h4v2h-4zm0 4h4v2h-4zm0 4h4v2h-4zm0 4h4v2h-4zm0 4h4v2h-4zm0 4h4v2h-4zm0 4h4v2h-4zm0 4h4v2h-4zm0 4h4v2h-4zm0 4h4v2h-4zm0 4h4v2h-4zm0 4h4v2h-4zm0 4h4v2h-4zm0 4h4v2h-4zm0 4h4v2h-4zm0 4h4v2h-4zm0 4h4v2h-4zm16-63v64a3 3 45 0 0 3 3h2a3 3 135 0 0 3-3v-59h10v-2h-2v-4h2v-2h-15a3 3 135 0 0-3 3zm4-1h2v2h-2zm4 0h2v4h-2zm4 0h2v4h-2zm-10 4h4v2h-4zm0 4h4v2h-4zm0 4h4v2h-4zm0 4h4v2h-4zm0 4h4v2h-4zm0 4h4v2h-4zm0 4h4v2h-4zm0 4h4v2h-4zm0 4h4v2h-4zm0 4h4v2h-4zm0 4h4v2h-4zm0 4h4v2h-4zm0 4h4v2h-4zm0 4h4v2h-4zm0 4h4v2h-4zm0 4h4v2h-4z" fill="#4a4a4a" style="paint-order:markers stroke fill"/></g></g></svg>
