<?xml version="1.0" encoding="UTF-8"?>
<!-- Created with Inkscape (http://www.inkscape.org/) -->
<svg width="22" height="30" version="1.1" viewBox="0 0 22 30" xml:space="preserve" xmlns="http://www.w3.org/2000/svg"><path d="m8.8125 2c-5.2086 0-6.8125 1.8918-6.8125 5.6758v3.1133c0 2.2826 0.22392 3.6861 2.6699 4.2109-2.446 0.5248-2.6699 1.9283-2.6699 4.2109v3.1133c0 3.7841 1.6039 5.6758 6.8125 5.6758h1.1875v-4c-1.9856-0.0489-3-0.99317-3-2.043v-2.957c0-1.1108 1.0144-1.6016 3-1.8945v-4.2109c-1.9856-0.2929-3-0.78373-3-1.8945v-3c0-1.9881 2-2 3-2v-4h-1.1875zm3.1875 0v4c1 0 3 0.011912 3 2v3c0 1.1108-1.0144 1.6016-3 1.8945v4.2109c1.9856 0.29296 3 0.78377 3 1.8945v2.957c0 1.0498-1.0144 1.9941-3 2.043v4h1.1875c5.2086 0 6.8125-1.8917 6.8125-5.6758v-3.1133c0-2.2826-0.2239-3.6861-2.6699-4.2109 2.446-0.52488 2.6699-1.9283 2.6699-4.2109v-3.1133c0-3.784-1.6039-5.6758-6.8125-5.6758h-1.1875z" fill="#a3a3a3" stroke="#717979" stroke-linejoin="round" stroke-width="4" style="paint-order:markers stroke fill"/></svg>
