<?xml version="1.0" encoding="UTF-8"?>
<!-- Created with Inkscape (http://www.inkscape.org/) -->
<svg width="24" height="30" version="1.1" viewBox="0 0 24 30" xml:space="preserve" xmlns="http://www.w3.org/2000/svg"><path d="m10.15 1.9961c-4.459-0.04817-8.1504 3.8921-8.1504 7.6777v10.652c-3.6e-6 3.7856 3.6911 7.6777 8.1504 7.6777h0.84961v-4.0039c-1.6876-0.04885-4-1.7635-4-4v-10c0-1.8406 2.3111-3.9565 4-4v-3.9961zm2.8496 0.0039062v4c1.6875 0.0488 4 2.1534 4 4h5v-0.32227c5.9e-5 -3.7856-3.6914-7.7259-8.1504-7.6777zm0.84961 11.99-0.84961 0.009766v4c2 0 4 1 4 3s-2 3-4 3v4l0.84961 0.0098c4.1504-0.0098 8.1504-2.0098 8.1503-7.0098 5.7e-5 -5-3.6913-7.061-8.1503-7.0098z" fill="#a3a3a3" stroke="#717979" stroke-linejoin="round" stroke-width="4" style="paint-order:markers stroke fill"/></svg>
