<?xml version="1.0" encoding="UTF-8"?>
<!-- Created with Inkscape (http://www.inkscape.org/) -->
<svg width="22" height="30" version="1.1" viewBox="0 0 22 30" xml:space="preserve" xmlns="http://www.w3.org/2000/svg"><path d="m8.6738 2c-4.4779 0-6.6738 1.8918-6.6738 5.6758v0.32422h5c0-2 2-2 2.9395-2v-4h-1.2656zm3.3262 0v4c1 0 3 0.011906 3 2v3c0 1.1108-1.0144 1.6016-3 1.8945v4.2109c1.9856 0.29296 3 0.78374 3 1.8945v2.957c0 1.0498-1.0144 1.9941-3 2.043v4h1.1875c5.2086 0 6.8125-1.8917 6.8125-5.6758v-3.1133c0-2.2826-0.22388-3.6861-2.6699-4.2109 2.446-0.52488 2.6699-1.9283 2.6699-4.2109v-3.1133c0-3.784-1.6039-5.6758-6.8125-5.6758h-1.1875zm-9.9395 20v0.32422c0 3.784 2.196 5.6758 6.6738 5.6758h1.2656v-4c-0.93945 1e-6 -2.9395-1e-6 -2.9395-2h-5z" fill="#a3a3a3" stroke="#717979" stroke-linecap="round" stroke-linejoin="round" stroke-width="4" style="paint-order:markers stroke fill"/></svg>
