<?xml version="1.0" encoding="UTF-8"?>
<!-- Created with Inkscape (http://www.inkscape.org/) -->
<svg width="24" height="30" version="1.1" viewBox="0 0 24 30" xml:space="preserve" xmlns="http://www.w3.org/2000/svg"><path d="m8.6738 2c-4.4779-1e-6 -6.6738 1.8917-6.6738 5.6758v0.32422h5c-4.8e-6 -1.0009 2.4056-1.5078 3.9395-1.6055v-4.3945zm4.3262 0v4.3945c1.5339 0.097652 4 0.6475 4 1.6484v3.2949c0 1.2451-6.4967 2.2344-9.8984 2.9668-3.4017 0.73239-5.1016 2.7941-5.1016 6.1875v1.5078h5v-1.5078c0-1.3671 6.4772-2.416 9.8789-3.1484 3.4017-0.73239 5.1211-2.7345 5.1211-6.0059v-3.6621c0-3.784-2.2565-5.6758-6.7344-5.6758zm-11 22v4h20v-4z" fill="#a3a3a3" stroke="#717979" stroke-linecap="round" stroke-linejoin="round" stroke-width="4" style="paint-order:markers stroke fill"/></svg>
