<?xml version="1.0" encoding="UTF-8"?>
<!-- Created with Inkscape (http://www.inkscape.org/) -->
<svg width="24" height="30" version="1.1" viewBox="0 0 24 30" xml:space="preserve" xmlns="http://www.w3.org/2000/svg"><path d="m13.85 28.009c4.459 0.04817 8.1504-3.8921 8.1504-7.6777v-10.652c4e-6 -3.7856-3.6911-7.6777-8.1504-7.6777h-0.84961v4.0039c1.6876 0.04885 4 1.7635 4 4v10c0 1.8406-2.3111 3.9565-4 4v3.9961zm-2.8496-0.003906v-4c-1.6875-0.0488-4-2.1534-4-4h-5v0.32226c-5.9e-5 3.7856 3.6914 7.7259 8.1504 7.6777zm-0.84961-11.99 0.84961-0.009766v-4.0054h-1c-1 0-3-1-3-2.9946 0-2.0054 2-3.0054 3-3.0054h1v-3.9946l-0.84961-0.0098c-3.1504 0.0043832-8.1504 2.0044-8.1504 7.0044-5.7e-5 5 4 7 8.1504 7.0152z" fill="#a3a3a3" stroke="#717979" stroke-linejoin="round" stroke-width="4" style="paint-order:markers stroke fill"/></svg>
