<?xml version="1.0" encoding="UTF-8" standalone="no"?>
<!-- Created with Inkscape (http://www.inkscape.org/) -->

<svg
   width="24"
   height="30"
   viewBox="0 0 24 30"
   version="1.1"
   id="svg1"
   inkscape:version="1.3.1 (91b66b0783, 2023-11-16)"
   xml:space="preserve"
   sodipodi:docname="bg_number_6.svg"
   xmlns:inkscape="http://www.inkscape.org/namespaces/inkscape"
   xmlns:sodipodi="http://sodipodi.sourceforge.net/DTD/sodipodi-0.dtd"
   xmlns="http://www.w3.org/2000/svg"
   xmlns:svg="http://www.w3.org/2000/svg"><sodipodi:namedview
     id="namedview1"
     pagecolor="#ffffff"
     bordercolor="#000000"
     borderopacity="0.25"
     inkscape:showpageshadow="2"
     inkscape:pageopacity="0.0"
     inkscape:pagecheckerboard="0"
     inkscape:deskcolor="#d1d1d1"
     inkscape:document-units="px"
     showgrid="true"
     inkscape:zoom="11.313709"
     inkscape:cx="8.662058"
     inkscape:cy="21.478368"
     inkscape:window-width="1350"
     inkscape:window-height="1040"
     inkscape:window-x="2033"
     inkscape:window-y="50"
     inkscape:window-maximized="0"
     inkscape:current-layer="svg1"
     showguides="false"><inkscape:grid
       id="grid1"
       units="px"
       originx="-1"
       originy="0"
       spacingx="1"
       spacingy="1"
       empcolor="#0099e5"
       empopacity="0.30196078"
       color="#0099e5"
       opacity="0.14901961"
       empspacing="5"
       dotted="false"
       gridanglex="30"
       gridanglez="30"
       visible="true" /></sodipodi:namedview><defs
     id="defs1" /><path
     id="path1"
     style="display:inline;fill:#a3a3a3;fill-opacity:1;stroke:#717979;stroke-width:4;stroke-linejoin:round;stroke-opacity:1;paint-order:markers stroke fill"
     d="M 13.849609,28.009323 C 18.308605,28.057493 21.999996,24.117185 22,20.331589 V 9.6792448 c 4e-6,-3.785596 -3.691095,-7.677734 -8.150391,-7.677734 H 13 v 4.003906 c 1.687598,0.04885 4,1.763497 4,4.0000002 v 10 c 0,1.840643 -2.311102,3.9565 -4,4 v 3.996094 z M 11,28.005417 v -4 c -1.687498,-0.0488 -4,-2.153447 -4,-4 H 2 v 0.322265 c -5.9e-5,3.785597 3.691395,7.725935 8.150391,7.677735 z M 10.150391,16.015183 11,16.005417 V 12 H 10 C 9,12 7,11 7,9.0054168 7,7 9,6 10,6 h 1 V 2.0054168 l -0.849609,-0.0098 C 7,2 1.999943,4 2,9 c -5.7e-5,5 4,7 8.150391,7.015183 z"
     sodipodi:nodetypes="cccsccssccccccccccccccscccccc" /></svg>
