<?xml version="1.0" encoding="UTF-8"?>
<!-- Created with Inkscape (http://www.inkscape.org/) -->
<svg width="24" height="30" version="1.1" viewBox="0 0 24 30" xml:space="preserve" xmlns="http://www.w3.org/2000/svg"><path transform="translate(0 .0042677)" d="m10.15 1.9961c-4.459-0.04817-8.1504 4.8917-8.1504 8.6773v8.6532c0 3.7856 3.6911 8.6772 8.1504 8.6772h0.84961v-4.3965c-1.6876-0.04885-3.9375-1.6074-3.9375-4.6479v-7.9228c0-3.0367 2.2486-4.6045 3.9375-4.648v-4.3848zm3.6992 0.0039062h-0.84961v4.3945c1.6875 0.0488 3.9375 1.6055 3.9375 4.648v7.9228c0 3.0347-2.2499 4.5991-3.9375 4.6479v4.3867l0.84961 0.0098c4.459 0.051221 8.1504-4.8917 8.1504-8.6773v-8.6552c0-3.7856-3.6914-8.7255-8.1504-8.6773z" fill="#a3a3a3" stroke="#717979" stroke-linejoin="round" stroke-width="4" style="paint-order:markers stroke fill"/></svg>
