<?xml version="1.0" encoding="UTF-8"?>
<!-- Created with Inkscape (http://www.inkscape.org/) -->
<svg width="22" height="30" version="1.1" viewBox="0 0 22 30" xml:space="preserve" xmlns="http://www.w3.org/2000/svg"><path d="m2 2v14h4v-10h14v-4h-18zm7.332 9.998c-0.44383 0.00233-0.88831 0.008196-1.332 0.017578v3.9844h3c2 0 4 0.9991 4 2v4c4e-6 1.0009-2.463 1.6055-4 1.6055-1.537 0-4-0.60457-4-1.6055h-5v0.32422c0 3.7841 2.1959 5.6758 6.6738 5.6758h4.6523c4.4779 1e-6 6.6738-1.8917 6.6738-5.6758v-0.32422-4-0.32422c0-3.7841-2.1959-5.6758-6.6738-5.6758-1.3315 0.008579-2.6626-0.008944-3.9941-0.001953z" fill="#a3a3a3" stroke="#717979" stroke-linecap="round" stroke-linejoin="round" stroke-width="4" style="paint-order:markers stroke fill"/></svg>
