<?xml version="1.0" encoding="UTF-8"?>
<!-- Created with Inkscape (http://www.inkscape.org/) -->
<svg width="48" height="48" version="1.1" viewBox="0 0 48 48" xml:space="preserve" xmlns="http://www.w3.org/2000/svg"><path x="0" y="0" width="48" height="48" d="m4 0h40a4 4 45 0 1 4 4v40a4 4 135 0 1-4 4h-40a4 4 45 0 1-4-4v-40a4 4 135 0 1 4-4z" fill="#6f6f75"/><g fill="#3c3c43"><path d="m24.5 17c-1.7876 0-3.4856 0.37871-5.0234 1.0547l4.8418 3.459c2.6059-0.226 8.1816 2.0769 8.1816 7.9863 0 4.4183-3.5817 8-8 8-3.2296-0.0063-6.1387-1.9539-7.375-4.9375l-5.1133-2.5566c0.26604 6.6685 5.7546 11.994 12.488 11.994 2.3108-0.0052 4.575-0.65083 6.541-1.8652l6.959 3.8652s2-1 4-4 2-6 2-6l-7-4.5c0-6.9036-5.5964-12.5-12.5-12.5z" style="paint-order:markers stroke fill"/><g stroke-opacity="0"><path d="m20 2s-2.0152 2.5094-2 4c0.01172 1.1461 0.89543 2 2 2s1.9883-0.85392 2-2c0.01524-1.4906-2-4-2-4z" style="paint-order:markers stroke fill"/><path d="m14 2s-2.0152 2.5094-2 4c0.01172 1.1461 0.89543 2 2 2s1.9883-0.85392 2-2c0.01524-1.4906-2-4-2-4z" style="paint-order:markers stroke fill"/><path d="m8 2s-2.0152 2.5094-2 4c0.01172 1.1461 0.89543 2 2 2s1.9883-0.85392 2-2c0.01524-1.4906-2-4-2-4z" style="paint-order:markers stroke fill"/><path d="m17 8s-2.0152 2.5094-2 4c0.01172 1.1461 0.89543 2 2 2s1.9883-0.85392 2-2c0.01524-1.4906-2-4-2-4z" style="paint-order:markers stroke fill"/><path d="m11 8s-2.0152 2.5094-2 4c0.01172 1.1461 0.89543 2 2 2s1.9883-0.85392 2-2c0.01524-1.4906-2-4-2-4z" style="paint-order:markers stroke fill"/><path d="m14 14s-2.0152 2.5094-2 4c0.011719 1.1461 0.89543 2 2 2s1.9883-0.85392 2-2c0.01524-1.4906-2-4-2-4z" style="paint-order:markers stroke fill"/></g></g></svg>
