<?xml version="1.0" encoding="UTF-8"?>
<!-- Created with Inkscape (http://www.inkscape.org/) -->
<svg width="48" height="48" version="1.1" viewBox="0 0 48 48" xml:space="preserve" xmlns="http://www.w3.org/2000/svg"><g><path x="0" y="0" width="48" height="48" d="m4 0h40a4 4 45 0 1 4 4v40a4 4 135 0 1-4 4h-40a4 4 45 0 1-4-4v-40a4 4 135 0 1 4-4z" fill="#6f6f75"/><path d="m15 42s0.39462-6.0006 1-8 1.0129-2.6305 2-4 2.8583-1.9836 4-4 2-8 2-8 1.3243 3.8356 2 5c1.6443 2.8335 3 3.1945 4 6s-1 7-1 7 1.65-0.5685 2.6488-1.8766 0.85123-2.1234 0.85123-2.1234 0.94482 1.6597 1.5 3 1 5 1 5 1.2885-1.0129 2-2 1.6756-2.6258 2-4 0.32442-2.6258 0-4-1.0129-2.6305-2-4-2.6403-2.3414-4-4-2.8245-4.3386-4-6-2.0897-2.1669-3-4-2-7-2-7-1.1507 2.8217-2 4c-0.84927 1.1783-2.1507 1.8217-3 3s-1.4264 2.1636-2 4-1 7-1 7-1 0-2-1-2-4-2-4-1.5113 4.1599-2 6c-0.70719 2.6133-1 3-1 6s0.47889 4.822 1 6c0.86812 1.9624 2.594 3.7862 5 6z" fill="#393942" style="paint-order:markers stroke fill"/></g></svg>
