<?xml version="1.0" encoding="UTF-8"?>
<!-- Created with Inkscape (http://www.inkscape.org/) -->
<svg width="102" height="48" version="1.1" viewBox="0 0 102 48" xml:space="preserve" xmlns="http://www.w3.org/2000/svg"><g><path x="0" y="0" width="102" height="48" d="m4 0h94a4 4 45 0 1 4 4v40a4 4 135 0 1-4 4h-94a4 4 45 0 1-4-4v-40a4 4 135 0 1 4-4z" fill="#6f6f75" style="paint-order:markers stroke fill"/><path d="m79 29h-8v4h8v4h-8m-4-8h-8v4h8v4h-8m-12-4h8m0-4h-8v8h8m-12-8h-8v8h8m-12-8h-8v8h8m-20-4h8m-8 4v-8h8v8m4-14v-8h8v8z" fill-opacity="0" stroke="#393942" stroke-linecap="square" stroke-width="2" style="paint-order:markers stroke fill"/><path d="m12 24h-2v-10h2l6 6.942v-6.942h2v10h-2l-6-6.942v6.942" fill="#393942" stroke-opacity="0" style="paint-order:markers stroke fill"/></g></svg>
