<?xml version="1.0" encoding="UTF-8"?>
<!-- Created with Inkscape (http://www.inkscape.org/) -->
<svg width="48" height="48" version="1.1" viewBox="0 0 48 48" xml:space="preserve" xmlns="http://www.w3.org/2000/svg"><g><path x="0" y="0" width="48" height="48" d="m4 0h40a4 4 45 0 1 4 4v40a4 4 135 0 1-4 4h-40a4 4 45 0 1-4-4v-40a4 4 135 0 1 4-4z" fill="#6f6f75"/><rect x="18" y="20.499" width="12" height="9" style="paint-order:markers stroke fill"/><path d="m7.5134 44.599c-0.68379-0.24394-1.165-0.89412-1.1613-1.5691 0.0014028-0.27819 0.17625-0.6597 0.61535-1.3436 0.48646-0.75763 0.694-1.2269 0.64145-1.4503-0.059767-0.25407-0.33327-0.62-0.81724-1.0934-0.50224-0.49128-0.72941-0.95265-0.78181-1.5878-0.092179-1.1173 0.46659-1.8801 1.5068-2.0569 0.78409-0.13332 1.3162 0.08752 2.3921 0.99278 0.5394 0.45385 1.1654 0.79426 1.7436 0.9481 0.51524 0.13711 1.7379 0.13757 2.5777 1e-3 1.1854-0.19283 5.5432-1.5171 8.4972-2.5821 2.4797-0.89405 4.0627-1.5702 7.2989-3.1176 4.661-2.2286 4.9345-2.4433 5.8791-4.6152 0.39177-0.90079 0.67549-1.3464 1.1619-1.8249 0.78276-0.76998 1.7481-1.0114 2.3783-0.5948 0.38264 0.25298 0.67569 0.82225 0.67569 1.3126 0 0.21985-0.10968 0.67898-0.2905 1.216-0.15978 0.47456-0.2905 0.96606-0.2905 1.0922 0 0.3423 0.17385 0.64782 0.70283 1.2352 0.7063 0.78421 0.82184 1.1768 0.52609 1.7878-0.2876 0.5941-1.1819 1.1091-2.0314 1.1699-0.46632 0.03337-0.5101 0.0222-0.93003-0.23699-0.78283-0.4832-0.81736-0.47714-2.8947 0.50743-3.9315 1.8633-8.5803 3.9122-10.842 4.7784-2.4242 0.92845-5.1208 1.8363-10.422 3.5087-1.3231 0.41741-2.1224 0.99038-3.0862 2.2122-0.2831 0.35889-0.65227 0.75346-0.82038 0.87682-0.71827 0.52706-1.5264 0.68426-2.229 0.4336zm31.542-0.0028c-0.69862-0.25154-1.0131-0.5246-1.9294-1.6752-0.4486-0.56332-1.204-1.1756-1.8186-1.474-0.28847-0.14008-1.2598-0.47721-2.1586-0.74917-1.7214-0.5209-7.094-2.3047-7.1698-2.3805-0.06065-0.06065-0.20866 0.01014 2.0447-0.97811l2.0285-0.88966 1.5445 0.44452c1.8012 0.5184 2.5381 0.65229 3.5857 0.65149 1.2573-1e-3 1.9837-0.2802 3.0503-1.1726 0.83129-0.69555 1.266-0.89652 1.9246-0.88985 1.1854 0.01201 1.9413 0.86464 1.8323 2.0666-0.05626 0.62038-0.27843 1.0343-0.91758 1.7095-0.32081 0.33891-0.61249 0.72-0.65904 0.86104-0.10386 0.31469 0.0036 0.58014 0.68842 1.7007 0.26196 0.42864 0.49595 0.90045 0.51997 1.0485 0.11415 0.70342-0.45498 1.5305-1.2049 1.7511-0.51032 0.15012-0.89538 0.14321-1.361-0.02441zm-22.61-10.235c-1.0186-0.46853-2.5972-1.2057-3.5081-1.6382-1.9071-0.90551-1.9629-0.91467-2.742-0.45055-0.36149 0.21534-0.51306 0.26321-0.83336 0.26321-1.1031 0-2.2852-0.89208-2.2852-1.7245 0-0.40852 0.1243-0.63887 0.66717-1.2364 0.47052-0.51789 0.7085-0.94222 0.71112-1.268 0.00105-0.10898-0.13255-0.59801-0.29651-1.0867-0.2441-0.72756-0.29279-0.96211-0.26875-1.2945 0.03807-0.52633 0.24969-0.92572 0.63432-1.1972 0.6801-0.47999 1.6795-0.18959 2.55 0.74093 0.43718 0.46735 0.68784 0.89473 1.1293 1.9256 0.66682 1.5569 1.2545 2.106 3.4342 3.2085 1.389 0.70258 5.0036 2.4118 5.928 2.8032 0.88779 0.37589 0.87816 0.37019 0.74849 0.44275-0.09173 0.05133-3.9876 1.3814-4.0087 1.3686-0.0044-0.0028-0.84134-0.3882-1.8599-0.85674z" fill="#f6f6f6" stroke="#414141" stroke-width="3" style="paint-order:markers stroke fill"/><path d="m22.624 32.382c-0.89618-0.15973-2.2376-0.76824-3.2302-1.4653-0.98452-0.6914-1.1665-1.026-2.1856-4.0174-0.28098-0.82477-0.64611-1.8377-0.81141-2.2509-0.34514-0.86275-0.39025-1.317-0.15424-1.553 0.3009-0.3009 1.0711-0.10502 1.3318 0.33871 0.06864 0.11684 0.25776 0.71149 0.42026 1.3215 0.58466 2.1945 1.0871 3.4985 1.4361 3.7272 0.16707 0.10947 0.19079 0.10894 0.31908-0.0072 0.07623-0.06898 0.16636-0.24284 0.2003-0.38635 0.03394-0.14351 0.11376-0.29376 0.17739-0.33389 0.16357-0.10318 0.46707-0.0093 0.73034 0.22595 0.20192 0.18042 0.23214 0.26381 0.29312 0.80885 0.07642 0.68302 0.21015 1.0041 0.46701 1.1211 0.33871 0.15433 0.5734-0.09743 0.69665-0.7473 0.09154-0.48271 0.20871-0.61146 0.55644-0.61146 0.42567 0 0.53991 0.20452 0.54186 0.97004 0.0012 0.46844 0.03864 0.71358 0.14474 0.94736 0.13497 0.2974 0.15847 0.3141 0.41174 0.2926 0.44034-0.03737 0.55742-0.27068 0.60716-1.21 0.02295-0.43335 0.06573-0.82481 0.09507-0.8699 0.08364-0.12857 0.4774-0.17905 0.67924-0.08709 0.12213 0.05564 0.2073 0.17693 0.25563 0.364 0.03986 0.1543 0.10717 0.41374 0.14957 0.57652 0.09408 0.36118 0.33354 0.50523 0.62164 0.37397 0.23646-0.10774 0.37493-0.43816 0.43533-1.0388 0.0669-0.66477 0.15853-0.85939 0.48281-1.0248 0.45106-0.23011 0.72395-0.15575 0.72395 0.19728 0 0.09029 0.0762 0.25273 0.16928 0.36097 0.14109 0.16403 0.19386 0.18365 0.31684 0.11784 0.34288-0.1835 0.91595-1.6532 1.4886-3.8177 0.16499-0.62358 0.34955-1.2094 0.41015-1.3019 0.29223-0.44601 1.0328-0.60404 1.333-0.28445 0.24199 0.25759 0.20166 0.61366-0.17836 1.5745-0.18557 0.4692-0.60029 1.6267-0.92159 2.5721-0.32129 0.94547-0.69389 1.9495-0.82798 2.2311-0.422 0.88629-1.2739 1.5981-2.7532 2.3007-1.1014 0.52302-1.4358 0.59691-2.8406 0.62752-0.66384 0.01446-1.3802-0.0046-1.5919-0.04231zm0.0286-6.3662c-0.29076-0.22871-0.34493-0.38078-0.42006-1.1792-0.08368-0.8893-0.1999-1.1559-0.50392-1.1559-0.32106 0-0.45685 0.26113-0.49707 0.95591-0.01905 0.32906-0.07223 0.61001-0.12353 0.65258-0.13414 0.11132-0.6852-0.10639-0.97138-0.38376-0.30112-0.29186-0.38487-0.60297-0.45447-1.6882-0.06191-0.96526-0.14469-1.1585-0.5915-1.3804-0.42955-0.21338-1.507-0.3603-3.0676-0.4183-0.82477-0.03065-1.5819-0.09031-1.6825-0.13258-0.38179-0.16044-0.74555-0.75762-0.84667-1.39-0.0403-0.25199-0.0085-0.38885 0.18635-0.80155 0.32118-0.68037 0.30924-0.94861-0.09767-2.1937-0.48895-1.4961-0.59064-2.1449-0.58259-3.7172 0.0079-1.5351 0.17282-2.6409 0.56474-3.7856 0.3689-1.0775 0.82473-1.7845 1.7634-2.7351 0.92265-0.93443 1.8271-1.5658 3.1251-2.1814 1.5668-0.74317 2.4646-0.91481 5.0678-0.96884 1.4217-0.02951 2.0567-0.01136 2.8529 0.08154 1.5648 0.18259 2.1864 0.37335 3.6411 1.1175 1.8714 0.95724 3.2612 2.2503 4.0341 3.7531 0.67612 1.3148 0.94954 2.6932 0.95054 4.792 8e-4 1.6676-0.0945 2.2576-0.61391 3.8004-0.35542 1.0557-0.36625 1.3379-0.075 1.9536 0.12067 0.25507 0.21942 0.56959 0.21946 0.69894 7e-5 0.30152-0.18867 0.86995-0.38716 1.166-0.30275 0.45158-0.44443 0.4879-2.1359 0.54754-2.9023 0.10232-3.6215 0.35239-3.6215 1.2591 0 0.6271-0.14647 1.5994-0.28974 1.9233-0.13731 0.31041-0.55124 0.62032-0.96413 0.72185-0.26259 0.06458-0.30974-0.03364-0.35889-0.74756-0.0448-0.65148-0.1749-0.89925-0.47204-0.89925-0.30067 0-0.40943 0.23069-0.5062 1.0737-0.09865 0.85928-0.1602 1.0303-0.45415 1.2615-0.23934 0.18827-0.47168 0.19354-0.69131 0.0157-0.15256-0.12353-0.17295-0.21807-0.2181-1.0112-0.0552-0.96982-0.12989-1.1933-0.39879-1.1933-0.30888 0-0.41468 0.27389-0.45788 1.1854-0.03453 0.72839-0.05732 0.83693-0.2073 0.98691-0.20913 0.20913-0.4621 0.21498-0.71439 0.01654z" fill="#f6f6f6" stroke="#414141" stroke-width="3" style="paint-order:markers stroke fill"/><path d="m25.728 22.379c0.4409-0.28312 0.57856-0.55235 0.55878-1.0928-0.0284-0.77633-0.5725-2.2145-1.3049-3.4494-0.41771-0.70426-0.57278-0.83204-1.004-0.82727-0.27188 3e-3 -0.34579 0.04282-0.59316 0.31951-0.37522 0.4197-1.3192 2.3556-1.5074 3.0913-0.08169 0.31938-0.14853 0.76948-0.14853 1.0002 0 0.51386 0.20552 0.80005 0.76509 1.0654 0.3506 0.16627 0.43001 0.17385 1.6142 0.15414l1.2455-0.02073zm-4.9548-3.4295c0.49734-0.16062 0.97199-0.58879 1.2259-1.1059 0.19296-0.39294 0.20494-0.47286 0.19981-1.3324-0.01376-2.3035-0.5297-3.0723-2.2139-3.2989-1.0675-0.14367-2.0853 0.07849-2.6563 0.57983-0.57147 0.50176-0.90135 1.8179-0.73747 2.9424 0.1493 1.0243 0.57049 1.6573 1.3248 1.991 0.73885 0.32683 2.1872 0.44038 2.8572 0.22401zm8.3283 0.04629c1.1329-0.18384 1.8129-0.65914 2.1419-1.497 0.14762-0.37597 0.17274-0.57003 0.17514-1.3533 3e-3 -1.1047-0.1617-1.6942-0.6203-2.2152-0.52272-0.59385-1.6158-0.87599-2.7844-0.71872-1.7019 0.22904-2.2507 1.108-2.178 3.4887 0.0288 0.94352 0.1398 1.2861 0.56299 1.7378 0.52012 0.5551 1.4882 0.75489 2.7027 0.55781z" stroke-width=".073151"/></g></svg>
