<?xml version="1.0" encoding="UTF-8"?>
<!-- Created with Inkscape (http://www.inkscape.org/) -->
<svg width="102" height="48" version="1.1" viewBox="0 0 102 48" xml:space="preserve" xmlns="http://www.w3.org/2000/svg"><g><path x="0" y="0" width="102" height="48" d="m4 0h94a4 4 45 0 1 4 4v40a4 4 135 0 1-4 4h-94a4 4 45 0 1-4-4v-40a4 4 135 0 1 4-4z" fill="#6f6f75" style="paint-order:markers stroke fill"/><path d="m43 19h4m-4-4v8m36 0v-8h8v4h-8m-8 10v8m-4-8h8m-32 8v-8h8v8zm12-18h8m0-4h-8v8h8m4-4h8m0-4h-8v8h8m-20 6v8h8v-8" fill-opacity="0" stroke="#393942" stroke-linecap="square" stroke-width="2" style="paint-order:markers stroke fill"/><path d="m16 8v10l2 8h6l2-8v-10h-10zm34.586 6-5 5 5 5h1.4141v-1.4141l-3.4141-3.5859 3.4141-3.5859v-1.4141h-1.4141zm-34.586 16v8h10v-8h-10z" fill="#393942" style="paint-order:markers stroke fill"/></g></svg>
