<?xml version="1.0" encoding="UTF-8"?>
<!-- Created with Inkscape (http://www.inkscape.org/) -->
<svg width="108" height="106" version="1.1" viewBox="0 0 108 106" xml:space="preserve" xmlns="http://www.w3.org/2000/svg"><g><path x="0" y="0" width="108" height="106" d="m4 0h100a4 4 45 0 1 4 4v98a4 4 135 0 1-4 4h-100a4 4 45 0 1-4-4v-98a4 4 135 0 1 4-4z" fill="#6f6f75" stroke-linecap="round" stroke-linejoin="round" stroke-width="2" style="paint-order:markers stroke fill"/><path x="10" y="44" width="86" height="8" d="m14 44h78a4 4 45 0 1 4 4 4 4 135 0 1-4 4h-78a4 4 45 0 1-4-4 4 4 135 0 1 4-4z" fill="#7f7f85" style="paint-order:markers stroke fill"/><path d="m50 46v4h2v-4zm4 0v4h2v-4zm4 0v4h4v-4zm6 0v4h4v-4zm6 0v4h4v-4zm6 0v4h2v-4zm4 0v4h2v-4z" fill="#9c9c9c" stroke-linecap="round" stroke-linejoin="round" stroke-width="4" style="paint-order:markers stroke fill"/><g transform="translate(-34)"><g><path transform="translate(-18,37)" d="m62-23v18a4 4 45 0 0 4 4h18a4 4 135 0 0 4-4v-18a4 4 45 0 0-4-4h-18a4 4 135 0 0-4 4z" fill="#313131" style="paint-order:markers stroke fill"/><path d="m57 12c-6.0751 0-11 4.9249-11 11s4.9249 11 11 11 11-4.9249 11-11-4.9249-11-11-11z" fill="#7f7f85" style="paint-order:markers stroke fill"/><path d="m57 21.5c-0.82843 0-1.5 0.67157-1.5 1.5s0.67157 1.5 1.5 1.5 1.5-0.67157 1.5-1.5-0.67157-1.5-1.5-1.5zm0 6.5c-2.7954 0.0087-5.4826 1.0814-7.5156 3 2.033 1.9186 4.7202 2.9913 7.5156 3 2.802-0.0089 5.495-1.0868 7.5293-3.0137-2.0386-1.9169-4.731-2.9848-7.5293-2.9863z" fill="#524a52" style="paint-order:markers stroke fill"/></g><path transform="matrix(.90542 .52275 -.52275 .90543 -12.167 4.7968)" d="m77-18c0 6.0751-4.9249 11-11 11s-11-4.9249-11-11 4.9249-11 11-11 11 4.9249 11 11zm-16.501 9.5255 1.5004-2.5979m-5.5263-1.4294 1.7322-0.99968m-3.2049-4.501 2 4.51e-4m-0.52483-5.5005 1.7318 1.0005m2.2959-5.0259 1.4992 2.5985m4.0016-4.0706-6.76e-4 2m5.5005-0.52421-1.0007 1.7317m5.0256 2.2965-1.7325 0.99928m3.2039 4.4968h-3m3 0h-3" fill-opacity="0" stroke="#313131" stroke-linecap="round" stroke-linejoin="round" stroke-width=".95648" style="paint-order:markers stroke fill"/><path d="m57 23-9-3" fill="#524a52" stroke="#524a52" stroke-linecap="round" stroke-linejoin="round" style="paint-order:markers stroke fill"/></g><g stroke-linecap="round" stroke-linejoin="round" stroke-width="2"><path d="m56 20v4h4v-4h-4zm12 0v4h4v-4h-4zm-24 8v4h4v-4h-4zm12 0v4h4v-4h-4zm6 0v4h4v-4h-4zm12 0v4h4v-4h-4z" fill="#7b7b7b" style="paint-order:markers stroke fill"/><path d="m44 12v4h34v-4h-34zm0 8v4h4v-4h-4zm6 0v4h4v-4h-4zm12 0v4h4v-4h-4zm12 0v4h4v-4h-4zm-24 8v4h4v-4h-4zm18 0v4h4v-4h-4z" fill="#524a52" style="paint-order:markers stroke fill"/><path d="m86 16v4h8v-4h-8zm0 6v4h8v-4h-8zm0 6v4h8v-4h-8z" fill="#39bd39" style="paint-order:markers stroke fill"/></g></g></svg>
