<?xml version="1.0" encoding="UTF-8"?>
<!-- Created with Inkscape (http://www.inkscape.org/) -->
<svg width="110" height="106" version="1.1" viewBox="0 0 110 106" xml:space="preserve" xmlns="http://www.w3.org/2000/svg"><g><g><g stroke-linecap="round" stroke-linejoin="round" stroke-width="2"><path x="0" y="0" width="110" height="106" d="m4 0h102a4 4 45 0 1 4 4v98a4 4 135 0 1-4 4h-102a4 4 45 0 1-4-4v-98a4 4 135 0 1 4-4z" fill="#6f6f75" style="paint-order:markers stroke fill"/><path d="m8 10v4h4v-4zm6 12v4h4v-4zm6 0v4h4v-4zm12 36v4h4v-4zm6 0v4h4v-4zm6 0v4h4v-4z" fill="#524a52" style="paint-order:markers stroke fill"/><path d="m14 10v4h4v-4zm6 0v4h4v-4zm-12 6v4h4v-4zm6 0v4h4v-4zm6 0v4h4v-4zm-12 6v4h4v-4zm6 36v4h4v-4zm6 0v4h4v-4zm6 0v4h4v-4z" fill="#7b7b7b" style="paint-order:markers stroke fill"/></g><path x="30" y="10" width="70" height="36" d="m34 10h62a4 4 45 0 1 4 4v28a4 4 135 0 1-4 4h-62a4 4 45 0 1-4-4v-28a4 4 135 0 1 4-4z" fill="#313131" style="paint-order:markers stroke fill"/><path x="8" y="30" width="16" height="14" d="m12 30h8a4 4 45 0 1 4 4v6a4 4 135 0 1-4 4h-8a4 4 45 0 1-4-4v-6a4 4 135 0 1 4-4z" fill="#39bd39" style="paint-order:markers stroke fill"/><path d="m82 50v4h4v-4h-4zm6 0v4h4v-4h-4zm6 0v4h4v-4h-4z" fill="#c6c6c6" style="paint-order:markers stroke fill"/><path d="m88 41v-12l6 6" fill="#7b7b7b" stroke-opacity="0" style="paint-order:markers stroke fill"/></g><path d="m39 38v5m-3-8h-3m6-11v8m-6-11h3m3-8v5m12-1v8m6-8v8m40-4h-12l-6-6m-4 28v-22h-18m-15 14h27v-4h12v4h8m-50-17a3 3 0 0 0-3 3 3 3 0 0 0 3 3 3 3 0 0 0 3-3 3 3 0 0 0-3-3zm0 14a3 3 0 0 0-3 3 3 3 0 0 0 3 3 3 3 0 0 0 3-3 3 3 0 0 0-3-3z" fill-opacity="0" stroke="#7b7b7b" stroke-linecap="round" stroke-width="2" style="paint-order:markers stroke fill"/></g></svg>
