<?xml version="1.0" encoding="UTF-8"?>
<!-- Created with Inkscape (http://www.inkscape.org/) -->
<svg width="110" height="106" version="1.1" viewBox="0 0 110 106" xml:space="preserve" xmlns="http://www.w3.org/2000/svg"><g stroke-linecap="round" stroke-linejoin="round"><g stroke-width="2"><path x="0" y="0" width="110" height="106" d="m4 0h102a4 4 45 0 1 4 4v98a4 4 135 0 1-4 4h-102a4 4 45 0 1-4-4v-98a4 4 135 0 1 4-4z" fill="#6f6f75" style="paint-order:markers stroke fill"/><path d="m14 50v4h34v-4zm18 8v4h4v-4zm6 0v4h4v-4zm6 0v4h4v-4z" fill="#524a52" style="paint-order:markers stroke fill"/><path d="m52 50v4h8v-4zm12 0v4h8v-4zm12 0v4h8v-4zm12 0v4h8v-4z" fill="#39bd39" style="paint-order:markers stroke fill"/><path d="m14 58v4h4v-4zm6 0v4h4v-4zm6 0v4h4v-4z" fill="#7b7b7b" style="paint-order:markers stroke fill"/><path x="12" y="10" width="86" height="36" d="m16 10h78a4 4 45 0 1 4 4v28a4 4 135 0 1-4 4h-78a4 4 45 0 1-4-4v-28a4 4 135 0 1 4-4z" fill="#313131" style="paint-order:markers stroke fill"/></g><path d="m16 38 4-4 4 4h4l4-4 4 4 8-8h4l4-4 8 8 4-4h2l4-4 4-8 8 8h4l8 8" fill-opacity="0" stroke="#39bd39" stroke-width="4" style="paint-order:markers stroke fill"/></g></svg>
