<?xml version="1.0" encoding="UTF-8"?>
<!-- Created with Inkscape (http://www.inkscape.org/) -->
<svg width="160" height="30" version="1.1" viewBox="0 0 160 30" xml:space="preserve" xmlns="http://www.w3.org/2000/svg"><path d="m32.473 1.9902-6.0039 26.01h5.0625l6.1523-26.01zm7.6113 0-1.8848 8.7363 1.7559 7.748h-3.7695l-0.94336 4.0312h5.4512l1.4785 5.4941h5.0625l-5.8203-26.01zm51.012 0c-4.459-0.04817-6.6895 1.8921-6.6895 5.6777v14.654c0 3.7856 2.2302 5.6777 6.6895 5.6777h0.9043v-4.3965c-1.6876-0.04885-2.5312-0.59823-2.5312-1.6484v-13.922c0-1.0502 0.84365-1.5996 2.5312-1.6484v-4.3848zm2.9043 0.00977v4.3848c1.6876 0.048847 2.5312 0.59823 2.5312 1.6484v1.9668h5.0625v-2.332c0-3.7856-2.2305-5.7262-6.6895-5.678zm-92.063-0.0058638v26.012h5.0625v-26.012zm7.0625 0v4.3965h2.3965c1.6999 0 2.5508 0.54938 2.5508 1.6484v13.922c0 1.0991-0.85085 1.6484-2.5508 1.6484h-2.3965v4.3965h3.3203c4.4592 0 6.6895-1.8921 6.6895-5.6777v-14.654c0-3.7856-2.2302-5.6797-6.6895-5.6797zm101 0.00586v26.01h5v-26.01zm7 0v4.3945h12.924v-4.3945zm21 0v26.012h5v-26.012zm7 0v4.3965h5.3887c1.6999 0 2.5488 0.54938 2.5488 1.6484v4.3047c0 1.0991-0.84889 1.6484-2.5488 1.6484h-5.3887v4.3965l6.5117 9.6055h5.4883l-6.5117-9.6055h0.82422c4.4232 0 6.65-1.8631 6.6856-5.5879v-5.2188c-0.0361-3.7238-0.79417-5.5879-5.2168-5.5879zm-21.623 10.99-6.377 0.0098v4.0293l6.377-0.0098zm-29.396 1.9902 0.01953 4.0195h2.5508l-0.01953 2.9551c-0.0069 1.0502-0.84365 1.5996-2.5313 1.6484v4.3965h0.9043c4.4592 0 6.6895-1.8921 6.6895-5.6777 0.0228-2.4472 0.0195-4.8945 0.0195-7.3418zm23.02 8.6328v4.3965h12.924v-4.3965z" fill="#a3a3a3" stroke="#717979" stroke-linecap="round" stroke-width="4" style="paint-order:markers stroke fill"/><path d="m54 0v30h9v-11l5.5 11h9.5v-30h-9v11l-5.5-11" fill="#717979" style="paint-order:markers stroke fill"/><path d="m57 2 12.75 26.01h5.4688l-12.934-26.01zm19.062-0.0098-5.0622 0.0098-3.05e-4 13.58 5.0625 9.7461zm-20.062 2.5821v23.428h5.0625v-13.572z" fill="#a3a3a3" stroke-opacity="0" style="paint-order:markers stroke fill"/></svg>
