<?xml version="1.0" encoding="UTF-8"?>
<!-- Created with Inkscape (http://www.inkscape.org/) -->
<svg width="131.92" height="30.02" version="1.1" viewBox="0 0 131.92 30.02" xml:space="preserve" xmlns="http://www.w3.org/2000/svg"><g transform="translate(0 .009766)"><path d="m56.48 1.9805 5.8262 26.039h1.3359l1.9121-8.748-4.0078-17.291h-5.0664zm14.566 0-6.1797 26.039h5.2324l6.0312-26.039h-5.084zm-43.047 0.029297v25.99h5v-25.99h-5zm7 0v4.3906h12.924v-4.3906h-12.924zm77 0v25.99h5v-25.99h-5zm-110 0.0097656v25.99h5v-25.99h-5zm82 0v25.99h5v-25.99h-5zm7 0v4.3906h12.924v-4.3906h-12.924zm-49.623 10.973-6.377 0.009766v4.0254l6.377-0.009765v-4.0254zm56 0.009766-6.377 0.009765v4.0254l6.377-0.009766v-4.0254zm-62.377 10.605v4.3926h12.924v-4.3926h-12.924zm84 0v4.3926h10.924v-4.3926h-10.924zm-110 0.009766v4.3926h10.924v-4.3926h-10.924zm82 0v4.3926h12.924v-4.3926h-12.924z" fill="#a3a3a3" stroke="#717979" stroke-linecap="round" stroke-width="4" style="paint-order:markers stroke fill"/></g></svg>
