<?xml version="1.0" encoding="UTF-8"?>
<!-- Created with Inkscape (http://www.inkscape.org/) -->
<svg width="131.92" height="30.02" version="1.1" viewBox="0 0 131.92 30.02" xml:space="preserve" xmlns="http://www.w3.org/2000/svg"><path transform="translate(0 .009766)" d="m56.48 1.9805 5.8262 26.039h1.3359l1.9121-8.748-4.0078-17.291zm14.566 0-6.1797 26.039h5.2324l6.0312-26.039zm-43.047 0.029297v25.99h5v-25.99zm7 0v4.3906h12.924v-4.3906zm77 0v25.99h5v-25.99zm-110 0.00977v25.99h5v-25.99zm82 0v25.99h5v-25.99zm7 0v4.3906h12.924v-4.3906zm-49.623 10.973-6.377 0.0098v4.0254l6.377-0.0098zm56 0.0098-6.377 0.0098v4.0254l6.377-0.0098v-4.0254zm-62.377 10.605v4.3926h12.924v-4.3926zm84 0v4.3926h10.924v-4.3926zm-110 0.0098v4.3926h10.924v-4.3926zm82 0v4.3926h12.924v-4.3926z" fill="#a3a3a3" stroke="#717979" stroke-linecap="round" stroke-linejoin="round" stroke-width="4" style="paint-order:markers stroke fill"/></svg>
