<?xml version="1.0" encoding="UTF-8"?>
<!-- Created with Inkscape (http://www.inkscape.org/) -->
<svg width="670" height="328" version="1.1" viewBox="0 0 670 328" xml:space="preserve" xmlns="http://www.w3.org/2000/svg"><g transform="scale(2)" stroke-width=".5"><rect width="335" height="164" fill="#a0a0a4" stroke-width=".5"/><path d="m20 19h294v124h-294zm-19-18h333v162h-333z" fill-opacity="0" stroke="#ccc" stroke-width="2"/><path d="m315 18-2 2h-292v122l-2 2v-126h296m-315 146 2-2h331v-160l2-2v164h-335" fill="#666"/><g transform="translate(0,180)" stroke-width="2"><path transform="matrix(.5 0 0 .5 8 6)" d="m14-64c0 3.3137-2.6863 6-6 6s-6-2.6863-6-6 2.6863-6 6-6 6 2.6863 6 6zm626 0c0 3.3137-2.6863 6-6 6s-6-2.6863-6-6 2.6863-6 6-6 6 2.6863 6 6zm0-288c0 3.3137-2.6863 6-6 6s-6-2.6863-6-6 2.6863-6 6-6 6 2.6863 6 6zm-626 0c0 3.3137-2.6863 6-6 6s-6-2.6863-6-6 2.6863-6 6-6 6 2.6863 6 6z" fill="#5f6969"/><path transform="matrix(.5 0 0 .5 8 6)" d="m12-66c0 3.3137-2.6863 6-6 6s-6-2.6863-6-6 2.6863-6 6-6 6 2.6863 6 6zm626 0c0 3.3137-2.6863 6-6 6s-6-2.6863-6-6 2.6863-6 6-6 6 2.6863 6 6zm0-288c0 3.3137-2.6863 6-6 6s-6-2.6863-6-6 2.6863-6 6-6 6 2.6863 6 6zm-626 0c0 3.3137-2.6863 6-6 6s-6-2.6863-6-6 2.6863-6 6-6 6 2.6863 6 6z" fill="#838c8b"/></g></g></svg>
