<?xml version="1.0" encoding="UTF-8"?>
<!-- Created with Inkscape (http://www.inkscape.org/) -->
<svg width="670" height="328" version="1.1" viewBox="0 0 670 328" xml:space="preserve" xmlns="http://www.w3.org/2000/svg"><g transform="scale(2)" stroke-width=".5"><rect width="335" height="164" fill="#a0a0a4" stroke-width=".5"/><path d="m20 19h294v124h-294zm-19-18h333v162h-333z" fill-opacity="0" stroke="#ccc" stroke-width="2"/><path d="m315 18-2 2h-292v122l-2 2v-126h296m-315 146 2-2h331v-160l2-2v164h-335" fill="#666"/><g transform="translate(0,180)" stroke-width="2"><path transform="matrix(.5 0 0 .5 8 6)" d="m14-64c0 3.3137-2.6863 6-6 6-3.3137 0-6-2.6863-6-6s2.6863-6 6-6c3.3137 0 6 2.6863 6 6zm626 0c0 3.3137-2.6863 6-6 6s-6-2.6863-6-6 2.6863-6 6-6 6 2.6863 6 6zm0-288c0 3.3137-2.6863 6-6 6s-6-2.6863-6-6 2.6863-6 6-6 6 2.6863 6 6zm-626 0c0 3.3137-2.6863 6-6 6-3.3137 0-6-2.6863-6-6s2.6863-6 6-6c3.3137 0 6 2.6863 6 6z" fill="#5f6969"/><path transform="matrix(.5 0 0 .5 8 6)" d="m12-66c0 3.3137-2.6863 6-6 6s-6-2.6863-6-6 2.6863-6 6-6 6 2.6863 6 6zm626 0c0 3.3137-2.6863 6-6 6s-6-2.6863-6-6 2.6863-6 6-6 6 2.6863 6 6zm0-288c0 3.3137-2.6863 6-6 6s-6-2.6863-6-6 2.6863-6 6-6 6 2.6863 6 6zm-626 0c0 3.3137-2.6863 6-6 6s-6-2.6863-6-6 2.6863-6 6-6 6 2.6863 6 6z" fill="#838c8b"/></g><g transform="matrix(.5 0 0 .5 30 30)"><g transform="translate(0,-9.712e-4)"><g transform="translate(0,9.712e-4)"><g transform="translate(0,-9.712e-4)"><path d="m1 101h60l20-20v-42l-32-32-19 19h-29v75" fill="#f90"/><path d="m80 39.414-18 18v42.586l18-18" fill="#c60"/></g><g><path transform="translate(0,-9.712e-4)" d="m1 20 18-18h31v8l-18 18h-31z" fill="#ff0"/><rect transform="translate(0,-9.712e-4)" x="2" y="20" width="30" height="8" fill="#cc0"/><path transform="translate(0,-9.712e-4)" d="m32 20v9l18-18v-9l-18 18" fill="#960"/></g></g><g><g stroke="#c60" stroke-width="2"><path d="m61 65h-59" fill="#c60"/><path d="m32.5 29.5 29 29" fill="#630" stroke-linecap="square"/><path d="M 50.414,11 33,28.414" fill-opacity="0" stroke-linecap="square"/></g><path d="m62 57.414-1.414 1.586v42l1.414-2z" fill="#960"/><path d="m3 29h29" fill-opacity="0" stroke="#c60" stroke-linecap="square" stroke-width="2"/><g fill-opacity="0" stroke="#c60" stroke-linecap="square" stroke-width="1.414"><path d="m59.5 50.5-20-20 13.5-13.5 20 20z"/><path d="M 43.5,34.5 57,21"/><path d="M 47.5,38.5 61,25"/><path d="M 51.5,42.5 65,29"/><path d="M 55.5,46.5 69,33"/></g><g fill="#c60" stroke-opacity="0"><path d="m33 69h12v8h3l-6 6-6-6h3v-2h-6v-6"/><path d="m45 85v12h-8v3l-6-6 6-6v3h2v-6h6"/><path d="m29 97h-12v-8h-3l6-6 6 6h-3v2h6v6"/><path d="m17 81v-12h8v-3l6 6-6 6v-3h-2v6h-6"/></g></g></g><g><path d="m19.586 1-18.586 18.586v81.413l60 9.7e-4 20-20v-42l-30-29.414v-8.5859z" fill-opacity="0" stroke="#2a2a2a" stroke-width="2"/></g><g><path d="m67.414 83.585v-2l8.172-8.172v2" fill="#2a2a2a"/><path d="m64 70.999v-5l6-6v5" fill="#fffbf0"/><path d="m72 62.999v-5l6-6v5" fill="#fffbf0"/><path d="m73 59.999v-3l2-2v3"/><path d="m65 67.999v-3l2-2v3"/></g></g></g></svg>
