<?xml version="1.0" encoding="UTF-8"?>
<!-- Created with Inkscape (http://www.inkscape.org/) -->
<svg width="82" height="61" version="1.1" viewBox="0 0 82 61" xml:space="preserve" xmlns="http://www.w3.org/2000/svg"><g stroke-opacity="0"><path d="m0 61v-14l22-22h60v16l-20 20z" fill="#9f8000" style="paint-order:markers stroke fill"/><rect x="2" y="47" width="58" height="12" fill="#fc0" style="paint-order:markers stroke fill"/><rect x="4" y="49" width="54" height="8" fill="#fd1" style="paint-order:markers stroke fill"/><path d="m6 57 8-8h16l-8 8" fill="#666" style="paint-order:markers stroke fill"/><path d="m32 57 8-8h16l-8 8" fill="#666" style="paint-order:markers stroke fill"/><path d="m2 47 22-22h58l-22 22" fill="#777" style="paint-order:markers stroke fill"/><path d="m17 25v14a20 5 0 0 0 20 5 20 5 0 0 0 20-5v-14z" fill="#9cc" style="paint-order:markers stroke fill"/><path d="m42 25v18.838a20 5 0 0 0 15-4.8379v-14z" fill="#699" style="paint-order:markers stroke fill"/><path d="m16 39c0 3.3137 9.4021 6 21 6s21-2.6863 21-6h-2.3809c-1.76 2.2824-9.4267 4-18.619 4s-16.859-1.7176-18.619-4h-2.3809z" fill="#808080" style="paint-order:markers stroke fill"/><path d="m55.619 39c-1.76 2.2824-9.4267 4-18.619 4-1.7332 0-3.4046 0.11441-5 0v1.8223c1.6053 0.11224 3.2737 0.17773 5 0.17773 11.598 0 21-2.6863 21-6h-2.3809z" fill="#666" style="paint-order:markers stroke fill"/></g><g transform="translate(0,-22)"><g stroke-opacity="0"><path d="m0 61v-14l22-22h60v16l-20 20z" fill="#9f8000" style="paint-order:markers stroke fill"/><rect x="2" y="47" width="58" height="12" fill="#fc0" style="paint-order:markers stroke fill"/><rect x="4" y="49" width="54" height="8" fill="#fd1" style="paint-order:markers stroke fill"/><path d="m6 57 8-8h16l-8 8" fill="#666" style="paint-order:markers stroke fill"/><path d="m32 57 8-8h16l-8 8" fill="#666" style="paint-order:markers stroke fill"/></g><path d="m2 47 22-22h58l-22 22z" fill="#c9c9c9" style="paint-order:markers stroke fill"/><g fill="#222" stroke="#222" stroke-linecap="round" stroke-width="2"><path d="m9 44h49" style="paint-order:markers stroke fill"/><path d="m13 40h49" style="paint-order:markers stroke fill"/><path d="m17 36h49" style="paint-order:markers stroke fill"/><path d="m21 32h49" style="paint-order:markers stroke fill"/><path d="m25 28h49" style="paint-order:markers stroke fill"/></g></g></svg>
