<?xml version="1.0" encoding="UTF-8"?>
<!-- Created with Inkscape (http://www.inkscape.org/) -->
<svg width="142" height="110" version="1.1" viewBox="0 0 142 110" xml:space="preserve" xmlns="http://www.w3.org/2000/svg"><g transform="translate(0,55)" style="paint-order:normal"><path d="m24 3-22 22v10l20 20h78l42-42v-10z" fill="#707070" style="paint-order:normal"/><path d="M 4,24 120,24.063728 140,4 H 24 Z" fill="#666" style="paint-order:normal"/><g style="paint-order:normal"><ellipse cx="69" cy="17" rx="45" ry="12" fill="#efefef" style="paint-order:normal"/><path d="m42.73 7.2715a45 12 0 0 0-18.111 7.8594l48.865 13.797h0.001953a45 12 0 0 0 0.048828-0.001953l4.1543-0.17383-34.959-21.48z" fill="#e1e1e1" style="paint-order:normal"/><path d="m40.285 7.7832a45 12 0 0 0-14.574 6l48.289 14.217-33.715-20.217z" fill="#b4b4b4" style="paint-order:normal"/><path d="m95.092 7.2266-27.092 17.773 45.842-8.998a45 12 0 0 0-18.75-8.7754z" fill="#fff" style="paint-order:normal"/></g><g><path d="m24 3-22 22h118l22-22zm7 2h6l-18 18h-6zm12 0h6l-18 18h-6zm12 0h6l-18 18h-6zm12 0h6l-18 18h-6zm12 0h6l-18 18h-6zm12 0h6l-18 18h-6zm12 0h6l-18 18h-6zm12 0h6l-18 18h-6zm12 0h6l-18 18h-6z" fill="#c9c9c9" style="paint-order:normal"/><path d="M 2,32.1716 22.8284,53 H 99.1716 L 120,32.1716 V 25 H 2" fill="#a0a0a4" style="paint-order:normal"/><path d="m11 30-2 2 16 16h72l16-16-2-2z" fill="#36c" stroke-opacity="0" style="paint-order:normal"/></g><g fill-opacity="0" stroke="#00f" stroke-linecap="square" stroke-width="2" style="paint-order:normal"><path d="m21 32v6h7" style="paint-order:normal"/><path d="m31 32v3" style="paint-order:normal"/><path d="m34 38h9" style="paint-order:normal"/><path d="m43 42v-8" style="paint-order:normal"/><circle cx="31" cy="38" r="3" style="paint-order:normal"/><path d="m31 41v5" style="paint-order:normal"/><circle cx="93" cy="38" r="3" style="paint-order:normal"/><path d="m69 38h21" style="paint-order:normal"/><path d="m99 38v-6" style="paint-order:normal"/><path d="m96 38h10.071" style="paint-order:normal"/><path d="m49 38h20v6h24v-3" style="paint-order:normal"/><path d="m49 34v8" style="paint-order:normal"/></g><path d="m11 30-2 2 16 16h72l16-16-2-2z" fill-opacity="0" stroke="#666" stroke-width="2" style="paint-order:normal"/></g><g style="paint-order:normal"><path d="m24 3-22 22v10l20 20h78l42-42v-10z" fill="#707070" style="paint-order:normal"/><path d="M 4,24 120,24.063728 140,4 H 24 Z" fill="#666" style="paint-order:normal"/><g style="paint-order:normal"><ellipse cx="69" cy="17" rx="45" ry="12" fill="#efefef" style="paint-order:normal"/><path d="m46.807 6.582c-9.0738 1.3693-16.083 3.5364-19.83 6.1309l46.512 16.215 4.2012-0.17578z" fill="#e1e1e1" style="paint-order:normal"/><path d="m44.066 7.0234a45 12 0 0 0-15.246 4.5977l45.18 16.379z" fill="#b4b4b4" style="paint-order:normal"/><path d="m97.525 7.7207-29.525 17.279 45.818-7.2012a45 12 0 0 0 0.18164-0.79883 45 12 0 0 0-16.475-9.2793z" fill="#fff" style="paint-order:normal"/></g><g><path d="m24 3-22 22h118l22-22zm7 2h6l-18 18h-6zm12 0h6l-18 18h-6zm12 0h6l-18 18h-6zm12 0h6l-18 18h-6zm12 0h6l-18 18h-6zm12 0h6l-18 18h-6zm12 0h6l-18 18h-6zm12 0h6l-18 18h-6zm12 0h6l-18 18h-6z" fill="#c9c9c9" style="paint-order:normal"/><path d="M 2,32.1716 22.8284,53 H 99.1716 L 120,32.1716 V 25 H 2" fill="#a0a0a4" style="paint-order:normal"/><path d="m11 30-2 2 16 16h72l16-16-2-2z" fill="#36c" stroke-opacity="0" style="paint-order:normal"/></g><g fill-opacity="0" stroke="#00f" stroke-linecap="square" stroke-width="2" style="paint-order:normal"><path d="m21 32v6h7" style="paint-order:normal"/><path d="m31 32v3" style="paint-order:normal"/><path d="m34 38h9" style="paint-order:normal"/><path d="m43 42v-8" style="paint-order:normal"/><circle cx="31" cy="38" r="3" style="paint-order:normal"/><path d="m31 41v5" style="paint-order:normal"/><circle cx="93" cy="38" r="3" style="paint-order:normal"/><path d="m69 38h21" style="paint-order:normal"/><path d="m99 38v-6" style="paint-order:normal"/><path d="m96 38h10.071" style="paint-order:normal"/><path d="m49 38h20v6h24v-3" style="paint-order:normal"/><path d="m49 34v8" style="paint-order:normal"/></g><path d="m11 30-2 2 16 16h72l16-16-2-2z" fill-opacity="0" stroke="#666" stroke-width="2" style="paint-order:normal"/></g></svg>
