<?xml version="1.0" encoding="UTF-8"?>
<!-- Created with Inkscape (http://www.inkscape.org/) -->
<svg width="82" height="58" version="1.1" viewBox="0 0 82 58" xml:space="preserve" xmlns="http://www.w3.org/2000/svg"><g stroke-opacity="0"><rect x="22" y="3" width="60" height="38" fill="#6d696d" style="paint-order:markers stroke fill"/><g><path d="m54 7c-3.7208 0.013491-7.2832 1.5076-9.9004 4.1523l-10 9.9473 19.725 19.875 9.9492-10c2.6903-2.623 4.2133-6.2173 4.2266-9.9746 0-7.732-6.268-14-14-14z" fill="#5d595d" style="paint-order:markers stroke fill"/><path d="m54 7c-3.7208 0.013491-7.2832 1.5076-9.9004 4.1523l-10 9.9473 6.9004 1.9004 15.73-15.73c-0.88314-0.17459-1.7961-0.26953-2.7305-0.26953z" fill="#7a787a" style="paint-order:markers stroke fill"/><path d="m52.977 7.0234c-3.3366 0.26242-6.483 1.7101-8.8535 4.1055l-3.8672 3.8477h4.7676z" fill="#969696" style="paint-order:markers stroke fill"/></g><path d="m45.5 13c-4.3744 0.01567-8.5635 1.7678-11.646 4.8711l-5.0215 4.9609 23.34 23.332 4.7695-4.8301c3.2185-3.0973 5.0437-7.3672 5.0586-11.834 0-9.1127-7.3873-16.5-16.5-16.5z" fill="#6d696d" style="paint-order:markers stroke fill"/><path d="m45.5 13c-4.3744 0.01567-8.5635 1.7678-11.646 4.8711l-5.0215 4.9609 0.16797 0.16797h10l9.6875-9.6875c-1.0313-0.20268-2.0966-0.3125-3.1875-0.3125z" fill="#8a888a" style="paint-order:markers stroke fill"/><path d="m44.984 13.016c-4.1867 0.14586-8.1693 1.8744-11.131 4.8555l-5.0215 4.9609 10.168-3.832z" fill="#a6a6a6" style="paint-order:markers stroke fill"/><circle cx="40.5" cy="34.5" r="16.5" fill="#ccc" style="paint-order:markers stroke fill"/><circle cx="40.5" cy="34.5" r="12.5" fill="#111" style="paint-order:markers stroke fill"/><path d="m39 31c-6.1299 0-9.1928 5.3677-9.8594 8.7168a12.5 12.5 0 0 0 11.359 7.2832 12.5 12.5 0 0 0 5.9551-1.5449c1.3587-5.1439 0.45616-8.6326-0.45508-10.455-1.9929-3.9858-5.8792-4-7-4z" fill="#333" style="paint-order:markers stroke fill"/><g><circle cx="76" cy="35" r="4" fill="#3d383d" style="paint-order:markers stroke fill"/><path d="m76 31a4 4 0 0 0-4 4 4 4 0 0 0 1.1797 2.8203l5.6484-5.6484a4 4 0 0 0-2.8281-1.1719z" fill="#a6a6a6" style="paint-order:markers stroke fill"/><circle cx="76" cy="35" r="2.5" fill="#6d696d" style="paint-order:markers stroke fill"/><g transform="translate(0,-26)"><circle cx="76" cy="35" r="4" fill="#3d383d" style="paint-order:markers stroke fill"/><path d="m76 31a4 4 0 0 0-4 4 4 4 0 0 0 1.1797 2.8203l5.6484-5.6484a4 4 0 0 0-2.8281-1.1719z" fill="#a6a6a6" style="paint-order:markers stroke fill"/><circle cx="76" cy="35" r="2.5" fill="#6d696d" style="paint-order:markers stroke fill"/></g><g transform="translate(-48,-26)"><circle cx="76" cy="35" r="4" fill="#3d383d" style="paint-order:markers stroke fill"/><path d="m76 31a4 4 0 0 0-4 4 4 4 0 0 0 1.1797 2.8203l5.6484-5.6484a4 4 0 0 0-2.8281-1.1719z" fill="#a6a6a6" style="paint-order:markers stroke fill"/><circle cx="76" cy="35" r="2.5" fill="#6d696d" style="paint-order:markers stroke fill"/></g></g></g></svg>
