<?xml version="1.0" encoding="UTF-8"?>
<!-- Created with Inkscape (http://www.inkscape.org/) -->
<svg width="142" height="55" version="1.1" viewBox="0 0 142 55" xml:space="preserve" xmlns="http://www.w3.org/2000/svg"><g><path d="m24 3-22 22v10l20 20h78l42-42v-10z" fill="#707070" style="paint-order:fill markers stroke"/><path d="M 4,24 120,24.063728 140,4 H 24 Z" fill="#336" stroke-opacity="0" style="paint-order:fill markers stroke"/><path d="m75 15.6a56 12 0 0 0-54.605 9.4004h99.605l3.4219-3.4219a56 12 0 0 0-48.422-5.9785z" fill="#666" style="paint-order:fill markers stroke"/><path d="m24 3-22 22h118l22-22zm7 2h6l-18 18h-6zm12 0h6l-18 18h-6zm12 0h6l-18 18h-6zm12 0h6l-18 18h-6zm12 0h6l-18 18h-6zm12 0h6l-18 18h-6zm12 0h6l-18 18h-6zm12 0h6l-18 18h-6zm12 0h6l-18 18h-6z" fill="#c9c9c9" style="paint-order:fill markers stroke"/><path d="M 2,32.1716 22.8284,53 H 99.1716 L 120,32.1716 V 25 H 2" fill="#a0a0a4" style="paint-order:fill markers stroke"/><path d="m11 30-2 2 16 16h72l16-16-2-2z" fill="#333" stroke="#666" stroke-width="2" style="paint-order:fill markers stroke"/></g></svg>
