<?xml version="1.0" encoding="UTF-8"?>
<!-- Created with Inkscape (http://www.inkscape.org/) -->
<svg width="142" height="55" version="1.1" viewBox="0 0 142 55" xml:space="preserve" xmlns="http://www.w3.org/2000/svg"><g style="paint-order:normal"><path d="m24 3-22 22v10l20 20h78l42-42v-10z" fill="#707070" style="paint-order:normal"/><path d="M 4,24 120,24.063728 140,4 H 24 Z" fill="#336" style="paint-order:normal"/><path d="m75 15.6a56 12 0 0 0-54.605 9.4004h99.605l3.4219-3.4219a56 12 0 0 0-48.422-5.9785z" fill="#666" style="paint-order:normal"/><path transform="matrix(.70711 -.18856 .70711 .18856 68.29 36.114)" d="m47.832-59.523c-4.7756 2.1207-6.2695 6.9315-5.8672 10.18l-26.781 2.8339c-4.3937 0.46494-7.6406 4.4438-6.4012 8.6787 2.0271 6.9262 5.6929 13.267 10.684 18.48 3.0515 3.1872 8.1229 2.3612 10.722-1.2117l15.833-21.763c3.5045 2.5679 8.2348 2.5672 11.738 0l15.833 21.763c2.5992 3.5728 7.6707 4.3989 10.722 1.2117 4.9908-5.2128 8.6566-11.554 10.684-18.48 1.2394-4.2348-2.0075-8.2137-6.4012-8.6787l-26.781-2.8339c0.40275-3.2514-1.09-8.0618-5.8652-10.184l10.962-24.664c1.7944-4.0375-0.02435-8.8465-4.3095-9.8986-7.0348-1.7272-14.385-1.7245-21.42 0.0091-4.2843 1.0558-6.1018 5.8676-4.3074 9.9051z" fill="#a0a0a4" style="paint-order:normal"/><path d="m24 3-22 22h118l22-22zm7 2h6l-18 18h-6zm12 0h6l-18 18h-6zm12 0h6l-18 18h-6zm12 0h6l-18 18h-6zm12 0h6l-18 18h-6zm12 0h6l-18 18h-6zm12 0h6l-18 18h-6zm12 0h6l-18 18h-6zm12 0h6l-18 18h-6z" fill="#c9c9c9" style="paint-order:normal"/><path d="M 2,32.1716 22.8284,53 H 99.1716 L 120,32.1716 V 25 H 2" fill="#a0a0a4" style="paint-order:normal"/><path d="m11 30-2 2 16 16h72l16-16-2-2z" fill="#333" stroke-opacity="0" style="paint-order:normal"/><g fill-opacity="0" stroke="#36c" stroke-linecap="square" stroke-width="2" style="paint-order:normal"><path d="m21 32v6h7" style="paint-order:normal"/><path d="m31 32v3" style="paint-order:normal"/><path d="m34 38h9" style="paint-order:normal"/><path d="m43 42v-8" style="paint-order:normal"/><circle cx="31" cy="38" r="3" style="paint-order:normal"/><path d="m31 41v5" style="paint-order:normal"/><circle cx="93" cy="38" r="3" style="paint-order:normal"/><path d="m72 31 7 7h11" style="paint-order:normal"/><path d="m99 38v-6" style="paint-order:normal"/><path d="m96 38h10.071" style="paint-order:normal"/><path d="m49 38h20v6h24v-3" style="paint-order:normal"/><path d="m49 34v8" style="paint-order:normal"/></g><path d="m11 30-2 2 16 16h72l16-16-2-2z" fill-opacity="0" stroke="#666" stroke-width="2" style="paint-order:normal"/></g></svg>
