<?xml version="1.0" encoding="UTF-8"?>
<!-- Created with Inkscape (http://www.inkscape.org/) -->
<svg width="82" height="61" version="1.1" viewBox="0 0 82 61" xml:space="preserve" xmlns="http://www.w3.org/2000/svg"><g stroke-opacity="0"><path d="m0 61v-14l22-22h60v16l-20 20z" fill="#9f8000" style="paint-order:markers stroke fill"/><rect x="2" y="47" width="58" height="12" fill="#fc0" style="paint-order:markers stroke fill"/><rect x="4" y="49" width="54" height="8" fill="#fd1" style="paint-order:markers stroke fill"/><path d="m6 57 8-8h16l-8 8" fill="#666" style="paint-order:markers stroke fill"/><path d="m32 57 8-8h16l-8 8" fill="#666" style="paint-order:markers stroke fill"/><path d="m2 47 22-22h58l-22 22" fill="#777" style="paint-order:markers stroke fill"/><path d="m17 25v14a20 5 0 0 0 20 5 20 5 0 0 0 20-5v-14z" fill="#9cc" style="paint-order:markers stroke fill"/><path d="m42 25v18.838a20 5 0 0 0 15-4.8379v-14z" fill="#699" style="paint-order:markers stroke fill"/><path d="m16 25v14c0 3.3137 9.402 6 21 6s21-2.6863 21-6v-14h-2v1c0 2.7614-8.5066 5-19 5s-19-2.2386-19-5v-1zm5.3594 0c3.8443 1.2267 9.4239 2 15.641 2s11.796-0.77332 15.641-2h-15.641zm-3.3594 4.5566c3.3601 2.0348 10.603 3.4434 19 3.4434s15.64-1.4085 19-3.4434v2.4434c0 2.7614-8.5066 5-19 5s-19-2.2386-19-5zm0 6c3.3601 2.0348 10.603 3.4434 19 3.4434s15.64-1.4085 19-3.4434v2.4434c0 2.7614-8.5066 5-19 5s-19-2.2386-19-5z" fill="#808080" style="paint-order:markers stroke fill"/><path d="m32 25v1.8223c1.6045 0.11241 3.2737 0.17773 5 0.17773 6.2167 0 11.796-0.77333 15.641-2h-15.641zm24 0v1c0 2.7614-8.5066 5-19 5-1.7332 0-3.4046 0.11441-5 0v1.8262c1.6035 0.11204 3.2755 0.17383 5 0.17383 8.3969 0 15.64-1.4085 19-3.4434v2.4434c0 2.7614-8.5066 5-19 5-1.7332 0-3.4046 0.11437-5-4e-5v1.8262c1.6035 0.11204 3.2755 0.17383 5 0.17383 8.3969 0 15.64-1.4085 19-3.4434v2.4434c0 2.7614-8.5066 5-19 5-1.7332 0-3.4046 0.11433-5-8e-5v1.8224c1.6053 0.11224 3.2737 0.17773 5 0.17773 11.598 0 21-2.6863 21-6v-14z" fill="#666" style="paint-order:markers stroke fill"/></g></svg>
