<?xml version="1.0" encoding="UTF-8"?>
<!-- Created with Inkscape (http://www.inkscape.org/) -->
<svg width="82" height="61" version="1.1" viewBox="0 0 82 61" xml:space="preserve" xmlns="http://www.w3.org/2000/svg"><path d="m0 61v-36l22-22h60v36l-22 22z" fill="#606060"/><path d="m0 25h60l22-22h-60" fill="#333"/><path d="m70.414 6-14 14h-44l14-14z" fill-opacity="0" stroke="#666" stroke-linecap="round" stroke-width="2"/><rect x="2" y="25" width="58" height="34" fill="#999"/><rect x="4" y="27" width="54" height="30" fill="#a0a0a4"/><g fill="#666"><path d="m4 38 11-11h14l-25 25"/><path d="m58 50-7 7h-14l21-21"/><path d="m55 27-30 30h-14l30-30"/></g><g><path x="11" y="31" width="40" height="22" d="m15 31h32a4 4 45 0 1 4 4v14a4 4 135 0 1-4 4h-32a4 4 45 0 1-4-4v-14a4 4 135 0 1 4-4z" fill="#999"/><path x="13" y="33" width="36" height="18" d="m15 33h32a2 2 45 0 1 2 2v14a2 2 135 0 1-2 2h-32a2 2 45 0 1-2-2v-14a2 2 135 0 1 2-2z" fill="#666"/><rect x="15" y="35" width="32" height="14" fill="#090"/><path d="m21 38v8h8v-8zm2 2h4v4h-4z" fill="#ff0"/><path d="m35 46h-2v-8h2l4 4.8548v-4.8548h2v8h-2l-4-4.8548z" fill="#ff0"/></g><g><path d="m20 17v-6l10-10h34v6l-10 10z" fill="#090"/><path d="m20 11h34l10-10h-34" fill="#3c3"/><path d="m54 17v-6l10-10v6" fill="#060"/></g></svg>
