<?xml version="1.0" encoding="UTF-8"?>
<!-- Created with Inkscape (http://www.inkscape.org/) -->
<svg width="142" height="385" version="1.1" viewBox="0 0 142 385" xml:space="preserve" xmlns="http://www.w3.org/2000/svg"><g transform="translate(0,330)" style="paint-order:normal"><path d="m24 3-22 22v10l20 20h78l42-42v-10z" fill="#707070" style="paint-order:normal"/><path d="M 4,24 120,24.063728 140,4 H 24 Z" fill="#f93" style="paint-order:normal"/><g style="paint-order:normal"><path transform="translate(0,-55)" d="m72 72c-10.645 0-31 0-33 1-1.5805 0.79023-14 0-14 4l-2 2 97 1 2-2c-3-4-14-4-17-6-0.80869-0.53913-0.0132 2.1052-1 2-10.665-1.1367-22.811-2-32-2z" fill="#fc3" style="paint-order:normal"/><path d="m46 15s14-2 27-2 27 2 27 2" fill-opacity="0" stroke="#fc3" stroke-linecap="round" stroke-width="2" style="paint-order:normal"/><path d="m108 13c-0.35513 0.81381 1.5421 2 2 2s-0.72327-1.1537 1-2-2.6449-0.81381-3 0z" fill="#fc3" stroke-opacity="0" style="paint-order:normal"/></g><g><path d="m24 3-22 22h118l22-22zm7 2h6l-18 18h-6zm12 0h6l-18 18h-6zm12 0h6l-18 18h-6zm12 0h6l-18 18h-6zm12 0h6l-18 18h-6zm12 0h6l-18 18h-6zm12 0h6l-18 18h-6zm12 0h6l-18 18h-6zm12 0h6l-18 18h-6z" fill="#c9c9c9" style="paint-order:normal"/><path d="M 2,32.1716 22.8284,53 H 99.1716 L 120,32.1716 V 25 H 2" fill="#a0a0a4" style="paint-order:normal"/><path d="m11 30-2 2 16 16h72l16-16-2-2z" fill="#900" stroke-opacity="0" style="paint-order:normal"/></g><g fill-opacity="0" stroke="#f00" stroke-linecap="square" stroke-width="2" style="paint-order:normal"><path d="m21 32v6h7" style="paint-order:normal"/><path d="m31 32v3" style="paint-order:normal"/><path d="m34 38h9" style="paint-order:normal"/><path d="m43 42v-8" style="paint-order:normal"/><circle cx="31" cy="38" r="3" style="paint-order:normal"/><path d="m31 41v5" style="paint-order:normal"/><circle cx="93" cy="38" r="3" style="paint-order:normal"/><path d="m69 38h21" style="paint-order:normal"/><path d="m99 38v-6" style="paint-order:normal"/><path d="m96 38h10.071" style="paint-order:normal"/><path d="m49 38h20v6h24v-3" style="paint-order:normal"/><path d="m49 34v8" style="paint-order:normal"/></g><path d="m11 30-2 2 16 16h72l16-16-2-2z" fill-opacity="0" stroke="#666" stroke-width="2" style="paint-order:normal"/></g><g transform="translate(0,275)" style="paint-order:normal"><path d="m24 3-22 22v10l20 20h78l42-42v-10z" fill="#707070" style="paint-order:normal"/><path d="M 4,24 120,24.063728 140,4 H 24 Z" fill="#f93" style="paint-order:normal"/><g style="paint-order:normal"><path transform="translate(0,-55)" d="m72 68c-13.588 0-29.177-1.4832-36 5-0.50357 0.47846-0.33611-3.0875-1-3-12.251 1.6145-21.001 4.1619-21 7l-2 2 108 1 6-6c-8.6955-3.6078-30.118-5.9999-54-6z" fill="#fc3" style="paint-order:normal"/><path d="m47.492 11s12.508-2 25.508-2 21 3 21 3" fill-opacity="0" stroke="#fc3" stroke-linecap="round" stroke-width="2" style="paint-order:normal"/></g><g><path d="m24 3-22 22h118l22-22zm7 2h6l-18 18h-6zm12 0h6l-18 18h-6zm12 0h6l-18 18h-6zm12 0h6l-18 18h-6zm12 0h6l-18 18h-6zm12 0h6l-18 18h-6zm12 0h6l-18 18h-6zm12 0h6l-18 18h-6zm12 0h6l-18 18h-6z" fill="#c9c9c9" style="paint-order:normal"/><path d="M 2,32.1716 22.8284,53 H 99.1716 L 120,32.1716 V 25 H 2" fill="#a0a0a4" style="paint-order:normal"/><path d="m11 30-2 2 16 16h72l16-16-2-2z" fill="#900" stroke-opacity="0" style="paint-order:normal"/></g><g fill-opacity="0" stroke="#f00" stroke-linecap="square" stroke-width="2" style="paint-order:normal"><path d="m21 32v6h7" style="paint-order:normal"/><path d="m31 32v3" style="paint-order:normal"/><path d="m34 38h9" style="paint-order:normal"/><path d="m43 42v-8" style="paint-order:normal"/><circle cx="31" cy="38" r="3" style="paint-order:normal"/><path d="m31 41v5" style="paint-order:normal"/><circle cx="93" cy="38" r="3" style="paint-order:normal"/><path d="m69 38h21" style="paint-order:normal"/><path d="m99 38v-6" style="paint-order:normal"/><path d="m96 38h10.071" style="paint-order:normal"/><path d="m49 38h20v6h24v-3" style="paint-order:normal"/><path d="m49 34v8" style="paint-order:normal"/></g><path d="m11 30-2 2 16 16h72l16-16-2-2z" fill-opacity="0" stroke="#666" stroke-width="2" style="paint-order:normal"/></g><g transform="translate(0,220)" style="paint-order:normal"><path d="m24 3-22 22v10l20 20h78l42-42v-10z" fill="#707070" style="paint-order:normal"/><path d="M 4,24 120,24.063728 140,4 H 24 Z" fill="#f93" style="paint-order:normal"/><g style="paint-order:normal"><path transform="translate(0,-110)" d="m64 119c-31.858-1.4e-4 -53 10-53 16h109l11.396-11.396c-2.4611-1.0461-5.8501-1.8807-10.396-2.6035-1.8749-0.2981-5.8234-1.8026-8-2-0.63239-0.0573-1.342 2.0512-2 2-5.9601-0.4642-12.909-2-21-2z" fill="#fc3" style="paint-order:normal"/><path transform="translate(0,-110)" d="m47.5 129c-12.429 0-22.504 1.2585-22.5 2.8106v3.1894h79v-2c-1-5-22.342-0.52807-23-3-0.19813-0.74438-0.62133-2.3724-1-2-1.6974 1.6693-7.311 1.6975-10.354 3.3164-1.914-1.3401-11.246-2.3162-22.146-2.3164z" fill="#ff6" style="paint-order:normal"/><ellipse transform="translate(0,-110)" cx="59" cy="132.5" rx="39" ry="1.5" fill="#ff9" style="paint-order:normal"/></g><g><path d="m24 3-22 22h118l22-22zm7 2h6l-18 18h-6zm12 0h6l-18 18h-6zm12 0h6l-18 18h-6zm12 0h6l-18 18h-6zm12 0h6l-18 18h-6zm12 0h6l-18 18h-6zm12 0h6l-18 18h-6zm12 0h6l-18 18h-6zm12 0h6l-18 18h-6z" fill="#c9c9c9" style="paint-order:normal"/><path d="M 2,32.1716 22.8284,53 H 99.1716 L 120,32.1716 V 25 H 2" fill="#a0a0a4" style="paint-order:normal"/><path d="m11 30-2 2 16 16h72l16-16-2-2z" fill="#900" stroke-opacity="0" style="paint-order:normal"/></g><g fill-opacity="0" stroke="#f00" stroke-linecap="square" stroke-width="2" style="paint-order:normal"><path d="m21 32v6h7" style="paint-order:normal"/><path d="m31 32v3" style="paint-order:normal"/><path d="m34 38h9" style="paint-order:normal"/><path d="m43 42v-8" style="paint-order:normal"/><circle cx="31" cy="38" r="3" style="paint-order:normal"/><path d="m31 41v5" style="paint-order:normal"/><circle cx="93" cy="38" r="3" style="paint-order:normal"/><path d="m69 38h21" style="paint-order:normal"/><path d="m99 38v-6" style="paint-order:normal"/><path d="m96 38h10.071" style="paint-order:normal"/><path d="m49 38h20v6h24v-3" style="paint-order:normal"/><path d="m49 34v8" style="paint-order:normal"/></g><path d="m11 30-2 2 16 16h72l16-16-2-2z" fill-opacity="0" stroke="#666" stroke-width="2" style="paint-order:normal"/></g><g transform="translate(0,165)" style="paint-order:normal"><path d="m24 3-22 22v10l20 20h78l42-42v-10z" fill="#707070" style="paint-order:normal"/><path d="M 4,24 120,24.063728 140,4 H 24 Z" fill="#f93" style="paint-order:normal"/><g style="paint-order:normal"><path d="m64 5.0011c-31.858-1.4e-4 -53 10-53 16v2.9989h106l14.396-14.395c-2.4611-1.0461-5.8501-1.8807-10.396-2.6035-1.8749-0.2981-5.8234-1.8026-8-2-0.63239-0.0573-1.342 2.0512-2 2-5.9601-0.4642-12.909-2-21-2z" fill="#fc3" style="paint-order:normal"/><path d="m48.5 16c-12.429 0-21.676 1.4956-22.5 2.8106-2 3.1899-11 0.18986-12 3.1899l-1 2h102v-1c-1-8-32.342-3.5285-33-6.0004-0.19813-0.74438-0.62133-2.3724-1-2-1.6974 1.6693-7.311 1.6975-10.354 3.3164-1.914-1.3401-11.246-2.3162-22.146-2.3164z" fill="#ff6" style="paint-order:normal"/><ellipse cx="68.5" cy="23" rx="46.5" ry="5" fill="#ff9" style="paint-order:normal"/><ellipse cx="64.5" cy="23" rx="32.5" ry="2" fill="#ffc" style="paint-order:normal"/></g><g><path d="m24 3-22 22h118l22-22zm7 2h6l-18 18h-6zm12 0h6l-18 18h-6zm12 0h6l-18 18h-6zm12 0h6l-18 18h-6zm12 0h6l-18 18h-6zm12 0h6l-18 18h-6zm12 0h6l-18 18h-6zm12 0h6l-18 18h-6zm12 0h6l-18 18h-6z" fill="#c9c9c9" style="paint-order:normal"/><path d="M 2,32.1716 22.8284,53 H 99.1716 L 120,32.1716 V 25 H 2" fill="#a0a0a4" style="paint-order:normal"/><path d="m11 30-2 2 16 16h72l16-16-2-2z" fill="#900" stroke-opacity="0" style="paint-order:normal"/></g><g fill-opacity="0" stroke="#f00" stroke-linecap="square" stroke-width="2" style="paint-order:normal"><path d="m21 32v6h7" style="paint-order:normal"/><path d="m31 32v3" style="paint-order:normal"/><path d="m34 38h9" style="paint-order:normal"/><path d="m43 42v-8" style="paint-order:normal"/><circle cx="31" cy="38" r="3" style="paint-order:normal"/><path d="m31 41v5" style="paint-order:normal"/><circle cx="93" cy="38" r="3" style="paint-order:normal"/><path d="m69 38h21" style="paint-order:normal"/><path d="m99 38v-6" style="paint-order:normal"/><path d="m96 38h10.071" style="paint-order:normal"/><path d="m49 38h20v6h24v-3" style="paint-order:normal"/><path d="m49 34v8" style="paint-order:normal"/></g><path d="m11 30-2 2 16 16h72l16-16-2-2z" fill-opacity="0" stroke="#666" stroke-width="2" style="paint-order:normal"/></g><g transform="translate(0,110)" style="paint-order:normal"><path d="m24 3-22 22v10l20 20h78l42-42v-10z" fill="#707070" style="paint-order:normal"/><path d="M 4,24 120,24.063728 140,4 H 24 Z" fill="#f93" style="paint-order:normal"/><g style="paint-order:normal"><path transform="translate(0,-110)" d="m64 119c-31.858-1.4e-4 -53 10-53 16h109l11.396-11.396c-2.4611-1.0461-5.8501-1.8807-10.396-2.6035-1.8749-0.2981-5.8234-1.8026-8-2-0.63239-0.0573-1.342 2.0512-2 2-5.9601-0.4642-12.909-2-21-2z" fill="#fc3" style="paint-order:normal"/><path transform="translate(0,-110)" d="m47.5 129c-12.429 0-22.504 1.2585-22.5 2.8106v3.1894h79v-2c-1-5-22.342-0.52807-23-3-0.19813-0.74438-0.62133-2.3724-1-2-1.6974 1.6693-7.311 1.6975-10.354 3.3164-1.914-1.3401-11.246-2.3162-22.146-2.3164z" fill="#ff6" style="paint-order:normal"/><ellipse transform="translate(0,-110)" cx="59" cy="132.5" rx="39" ry="1.5" fill="#ff9" style="paint-order:normal"/></g><g><path d="m24 3-22 22h118l22-22zm7 2h6l-18 18h-6zm12 0h6l-18 18h-6zm12 0h6l-18 18h-6zm12 0h6l-18 18h-6zm12 0h6l-18 18h-6zm12 0h6l-18 18h-6zm12 0h6l-18 18h-6zm12 0h6l-18 18h-6zm12 0h6l-18 18h-6z" fill="#c9c9c9" style="paint-order:normal"/><path d="M 2,32.1716 22.8284,53 H 99.1716 L 120,32.1716 V 25 H 2" fill="#a0a0a4" style="paint-order:normal"/><path d="m11 30-2 2 16 16h72l16-16-2-2z" fill="#900" stroke-opacity="0" style="paint-order:normal"/></g><g fill-opacity="0" stroke="#f00" stroke-linecap="square" stroke-width="2" style="paint-order:normal"><path d="m21 32v6h7" style="paint-order:normal"/><path d="m31 32v3" style="paint-order:normal"/><path d="m34 38h9" style="paint-order:normal"/><path d="m43 42v-8" style="paint-order:normal"/><circle cx="31" cy="38" r="3" style="paint-order:normal"/><path d="m31 41v5" style="paint-order:normal"/><circle cx="93" cy="38" r="3" style="paint-order:normal"/><path d="m69 38h21" style="paint-order:normal"/><path d="m99 38v-6" style="paint-order:normal"/><path d="m96 38h10.071" style="paint-order:normal"/><path d="m49 38h20v6h24v-3" style="paint-order:normal"/><path d="m49 34v8" style="paint-order:normal"/></g><path d="m11 30-2 2 16 16h72l16-16-2-2z" fill-opacity="0" stroke="#666" stroke-width="2" style="paint-order:normal"/></g><g transform="translate(0,55)" style="paint-order:normal"><path d="m24 3-22 22v10l20 20h78l42-42v-10z" fill="#707070" style="paint-order:normal"/><path d="M 4,24 120,24.063728 140,4 H 24 Z" fill="#f93" style="paint-order:normal"/><g style="paint-order:normal"><path transform="translate(0,-55)" d="m72 68c-13.588 0-29.177-1.4832-36 5-0.50357 0.47846-0.33611-3.0875-1-3-12.251 1.6145-21.001 4.1619-21 7l-2 2 108 1 6-6c-8.6955-3.6078-30.118-5.9999-54-6z" fill="#fc3" style="paint-order:normal"/><path d="m47.492 11s12.508-2 25.508-2 21 3 21 3" fill-opacity="0" stroke="#fc3" stroke-linecap="round" stroke-width="2" style="paint-order:normal"/></g><g><path d="m24 3-22 22h118l22-22zm7 2h6l-18 18h-6zm12 0h6l-18 18h-6zm12 0h6l-18 18h-6zm12 0h6l-18 18h-6zm12 0h6l-18 18h-6zm12 0h6l-18 18h-6zm12 0h6l-18 18h-6zm12 0h6l-18 18h-6zm12 0h6l-18 18h-6z" fill="#c9c9c9" style="paint-order:normal"/><path d="M 2,32.1716 22.8284,53 H 99.1716 L 120,32.1716 V 25 H 2" fill="#a0a0a4" style="paint-order:normal"/><path d="m11 30-2 2 16 16h72l16-16-2-2z" fill="#900" stroke-opacity="0" style="paint-order:normal"/></g><g fill-opacity="0" stroke="#f00" stroke-linecap="square" stroke-width="2" style="paint-order:normal"><path d="m21 32v6h7" style="paint-order:normal"/><path d="m31 32v3" style="paint-order:normal"/><path d="m34 38h9" style="paint-order:normal"/><path d="m43 42v-8" style="paint-order:normal"/><circle cx="31" cy="38" r="3" style="paint-order:normal"/><path d="m31 41v5" style="paint-order:normal"/><circle cx="93" cy="38" r="3" style="paint-order:normal"/><path d="m69 38h21" style="paint-order:normal"/><path d="m99 38v-6" style="paint-order:normal"/><path d="m96 38h10.071" style="paint-order:normal"/><path d="m49 38h20v6h24v-3" style="paint-order:normal"/><path d="m49 34v8" style="paint-order:normal"/></g><path d="m11 30-2 2 16 16h72l16-16-2-2z" fill-opacity="0" stroke="#666" stroke-width="2" style="paint-order:normal"/></g><g style="paint-order:normal"><g><path d="m24 3-22 22v10l20 20h78l42-42v-10z" fill="#707070" style="paint-order:normal"/><path d="M 4,24 120,24.063728 140,4 H 24 Z" fill="#f93" style="paint-order:normal"/><path d="m24 3-22 22h118l22-22zm7 2h6l-18 18h-6zm12 0h6l-18 18h-6zm12 0h6l-18 18h-6zm12 0h6l-18 18h-6zm12 0h6l-18 18h-6zm12 0h6l-18 18h-6zm12 0h6l-18 18h-6zm12 0h6l-18 18h-6zm12 0h6l-18 18h-6z" fill="#c9c9c9" style="paint-order:normal"/><path d="M 2,32.1716 22.8284,53 H 99.1716 L 120,32.1716 V 25 H 2" fill="#a0a0a4" style="paint-order:normal"/><path d="m11 30-2 2 16 16h72l16-16-2-2z" fill="#900" stroke-opacity="0" style="paint-order:normal"/></g><g fill-opacity="0" stroke="#f00" stroke-linecap="square" stroke-width="2" style="paint-order:normal"><path d="m21 32v6h7" style="paint-order:normal"/><path d="m31 32v3" style="paint-order:normal"/><path d="m34 38h9" style="paint-order:normal"/><path d="m43 42v-8" style="paint-order:normal"/><circle cx="31" cy="38" r="3" style="paint-order:normal"/><path d="m31 41v5" style="paint-order:normal"/><circle cx="93" cy="38" r="3" style="paint-order:normal"/><path d="m69 38h21" style="paint-order:normal"/><path d="m99 38v-6" style="paint-order:normal"/><path d="m96 38h10.071" style="paint-order:normal"/><path d="m49 38h20v6h24v-3" style="paint-order:normal"/><path d="m49 34v8" style="paint-order:normal"/></g><path d="m11 30-2 2 16 16h72l16-16-2-2z" fill-opacity="0" stroke="#666" stroke-width="2" style="paint-order:normal"/></g></svg>
