<?xml version="1.0" encoding="UTF-8"?>
<!-- Created with Inkscape (http://www.inkscape.org/) -->
<svg width="122" height="84" version="1.1" viewBox="0 0 122 84" xml:space="preserve" xmlns="http://www.w3.org/2000/svg"><g transform="matrix(2,0,0,2,-269,-270)" stroke-width=".5"><path transform="scale(.5)" d="m288 298c-5.5228 0-10 0.89543-10 2v20c0.012 0.56934 1.2368 1.1107 3.3672 1.4883l0.0156 0.0156-1.5449 8.4961h-7.8379v24h116v-34h-10v-12h-72v22h-9.8379l-1.5449-8.4961 0.0156-0.0156c2.1304-0.37763 3.3552-0.91896 3.3672-1.4883v-20c0-1.1046-4.4772-2-10-2zm54 16h12v12h-12zm16 0h12v12h-12zm-71.922 7.957c0.63218 0.0267 1.2758 0.0411 1.9219 0.043 0.64607-2e-3 1.2897-0.0163 1.9219-0.043l-1.9219 1.9219zm-2.1133 2.1289 1.9141 1.9141-2.7656 2.7656 0.85156-4.6797zm8.0703 0 0.85156 4.6797-2.7656-2.7656 1.9141-1.9141zm-4.0352 4.0352 1.8789 1.8789h-3.7578z" fill="#111" stroke-width="4"/></g></svg>
