<?xml version="1.0" encoding="UTF-8"?>
<!-- Created with Inkscape (http://www.inkscape.org/) -->
<svg width="82" height="158" version="1.1" viewBox="0 0 82 158" xml:space="preserve" xmlns="http://www.w3.org/2000/svg" xmlns:xlink="http://www.w3.org/1999/xlink"><g transform="translate(0,-9.712e-4)"><g transform="translate(0,9.712e-4)"><g transform="translate(0,-9.712e-4)"><path d="m1 66h60l20-20v-7l-32-31-19 19h-29v39" fill="#b26b00"/><path d="m80 39.414-18 18v8.587l18-18" fill="#8e4700"/></g></g><g stroke="#8e4700" stroke-width="2"><path d="m62 65h-60" fill="#8e4700"/><path d="m32.5 29.5 29 29" fill="#472300" stroke-linecap="square"/><path d="m50.764 9.2-19.914 19.914" fill="none" stroke-width="3"/></g><path d="m62 57.414-1.414 1.586v7l1.414 9.71e-4z" fill="#6b4700"/><path d="m3 29h28" fill-opacity="0" stroke="#8e4700" stroke-linecap="square" stroke-width="2"/><g fill-opacity="0" stroke="#8e4700" stroke-linecap="square" stroke-width="1.414"><path d="m59.5 50.5-20-20 13.5-13.5 20 20z"/><path d="M 43.5,34.5 57,21"/><path d="M 47.5,38.5 61,25"/><path d="M 51.5,42.5 65,29"/><path d="M 55.5,46.5 69,33"/></g></g><g transform="translate(0 -38.001)"><path d="m30 66h-29l49-20" fill="#b2b26b"/></g><path d="m81 46v-7l-31.414-31.414-48.586 19.413 3e-4 39.001" fill-opacity="0" stroke="#2a2a2a" stroke-width="2"/><path d="m80 48 2-2-2-6.587" fill="#2a2a2a"/></svg>
