<?xml version="1.0" encoding="UTF-8"?>
<!-- Created with Inkscape (http://www.inkscape.org/) -->
<svg width="82" height="158" version="1.1" viewBox="0 0 82 158" xml:space="preserve" xmlns="http://www.w3.org/2000/svg"><defs><clipPath id="a"><rect x="5.11" y="108" width="3.89" height="3" display="none" fill="none"/><path class="powerclip" d="m-5-5h62v37.999h-62zm10.11 113v3h3.89v-3z" display="block" fill="none"/></clipPath></defs><g transform="translate(0,-9.712e-4)"><g transform="translate(0,9.712e-4)"><g><path transform="translate(0,-9.712e-4)" d="m1 20 18-18h31v8l-18 18h-31z" fill="#ff0"/><rect transform="translate(0,-9.712e-4)" x="2" y="20" width="30" height="8" fill="#cc0"/><path transform="translate(0,-9.712e-4)" d="m32 20v8l18-18v-8l-18 18" fill="#960"/></g></g></g><path d="m51 7.999v-6.999h-31.414l-18.586 18.586v8.4131" clip-path="url(#a)" fill-opacity="0" stroke="#2a2a2a" stroke-width="2"/><path d="m50 9.999 2-2-2-6" fill="#2a2a2a"/></svg>
