<?xml version="1.0" encoding="UTF-8"?>
<!-- Created with Inkscape (http://www.inkscape.org/) -->
<svg width="82" height="158" version="1.1" viewBox="0 0 82 158" xml:space="preserve" xmlns="http://www.w3.org/2000/svg"><g><g><path d="m32 110 22-32.001h-32l-22 22" fill="#c9c9c9" stroke-opacity="0"/><path d="m24.586 156h6l20.414-20.414v-6.586h-6v-28h-20.414z" fill="#5a5a5a"/><g><path d="m50 130-7.4141 7.4141v7.586l7.4141-7.4141z" fill="#808080" style="paint-order:normal"/><path d="m36.586 137.41h6l7.4141-7.4141h-6l-7.4141 7.4141z" fill="#999" style="paint-order:normal"/><path d="m44 112.45-7.4141 7.5938v17.369l7.4141-7.4141v-17.549z" fill="#808080" style="paint-order:normal"/><path d="m36.613 120.02 7.3867-7.5664 2-0.44922 4-8.9961c-0.85912-3.046-1.9688-6.0142-3-9.0049l-12.229 7.001 2.8145 3.4141c1.1396 1.8819 1.7559 4.5391 1.7559 6.5859 0.0224 1.9038-0.04213 5.7467-2.7285 9.0156z" fill="#6e6e6e" style="paint-order:normal"/></g><path d="m33 145v-21.279l3.6017-3.6904-0.015708 17.383h6l3e-6 7.586" fill="#464646"/><g><path d="m39 141-8.4141 8.4141v7.586l8.4141-8.4141z" fill="#808080" style="paint-order:normal"/><path d="m33 141-8.4141 8.4141h6l8.4141-8.4141h-6z" fill="#999" style="paint-order:normal"/><path d="m33.01 123.71-6.4238 6.5801v17.127l6.4141-6.4141 0.009766-17.293z" fill="#808080" style="paint-order:normal"/><path d="m33.016 101h-8.0156l1.5859 29.287 6.4238-6.5801c2.495-3.4135 4.3838-6.4013 4.3984-10.777 0-3.3288-0.53452-4.9284-1.4824-6.8555l-2.9102-5.0742z" fill="#6e6e6e" style="paint-order:normal"/></g><path d="m32 110v-10.001l22-22v10.001" fill="#808080" style="paint-order:normal"/><rect x="1" y="101" width="30" height="8" fill="#c0c0c0" stroke="#999" stroke-linecap="square" stroke-width="2"/><g><path d="m30.586 148.41h-5v-18.545c2.8088-2.7194 4.4005-6.4577 4.4141-10.367 0-8.0081-6.4919-14.5-14.5-14.5s-14.5 6.4919-14.5 14.5v37.5h29.586" fill="#c0c0c0" stroke="#999" stroke-width="2"/><g transform="translate(1.5,3.5)" fill-opacity="0" stroke="#666"><circle cx="14" cy="116" r="7" stroke-width="2"/><circle cx="14" cy="116" r="3" stroke-width="2"/><path d="m14 122v24" stroke-width="4"/><g stroke-width="2"><path d="m10 145h8"/><path d="m10 141h8.0039"/><path d="m10 137.03 8-0.0312"/><path d="m10 133h8"/></g></g></g></g></g><path d="m29.801 62.611c-1.4257 0.73247-2.1493 0.85352-4.6797 0.85352l-4.5605 4.5586 0.01367 5.1992h-1.4199c-0.81709 0.41229-2.1256 1.0224-5.1797 1.3848l-4.5098 4.5137v11.996l-8.4648 8.4648v9.4176h4.1094v0.41211c-2.6333 2.6933-4.0978 6.3034-4.1094 10.088v37.5h30l9-9v-3h3l8-8v-8h-6v-16c2.8088-2.7194 4.4005-6.4577 4.4141-10.367 0-2.4948-0.6306-4.8426-1.7402-6.8926l5.3262-5.3262v-11.414h-8.4512v-15.317c-0.96813 0.0035-2.8066 0.27885-3.542-1.0714z" fill-opacity="0" stroke="#2a2a2a" stroke-width="2"/><g><path d="m43.548 64.451-21.973 3.9727v18a2.0671 6.45 82.33 0 1 2.3008 1.3535h10.729a2.0671 6.45 82.33 0 1 4.957-1.3398l3.9863-3.9863z" fill="#999"/><path d="m21.561 68.438 0.01563 17.986 2.3008 1.3203-0.03906-17.967c0.01848-0.62407-0.81656-1.1156-2.2773-1.3398z" fill="#b2b2b2" stroke-opacity="0"/><path d="m43.546 64.451-8.9419 5.3267 5.37e-4 17.999c1.229-0.62399 3.0461-1.1153 4.9551-1.3398l3.9883-3.9863z" fill="#808080"/><path d="m39.562 86.437-8.48e-4 -18 3.9852-3.9852 2e-3 17.999" fill="#6e6e6e"/><path d="m23.839 69.777c0.01848-0.62407-0.81677-1.1154-2.2776-1.3396l3.9733-3.9733c2.1238 0 3.2717-0.22113 4.5082-0.85338h10.729c-0.01848 0.62407 1.2087 0.83963 2.7771 0.83963l-3.9871 3.9871c-1.9093 0.22428-3.7272 0.71557-4.9568 1.3396z" fill="#c9c9c9"/><path d="m30.333 68.666a2.0671 6.45 82.33 0 1-3.7779-2.2221 2.0671 6.45 82.33 0 1 3.0185-1.4814h8.9258a2.0671 6.45 82.33 0 1 0.0557 1.4814 2.0671 6.45 82.33 0 1-8.2221 2.2221z" fill="#464646"/><g><path d="m32.438 75.562-21.973 3.9727v18a2.0671 6.45 82.33 0 1 2.3008 1.3535h10.729a2.0671 6.45 82.33 0 1 4.957-1.3398l3.9863-3.9863z" fill="#999"/><path d="m32.436 75.562-8.4414 4.8262-0.5 18.5a2.0671 6.45 82.33 0 1 4.9551-1.3398l3.9883-3.9863z" fill="#808080"/><path d="m19.394 74.222c-1.2297 0.62407-3.0475 1.1154-4.9568 1.3396l-3.9733 3.9733c1.544 0 2.8287 0.22086 2.8007 0.85311h10.729c1.2297-0.62407 2.4417-0.83936 4.4571-0.83936l3.9871-3.9871c-1.4608-0.22428-2.296-0.71557-2.2776-1.3396z" fill="#c9c9c9"/><path d="m13.265 80.388c0.02804-0.63225-1.2568-0.85352-2.8008-0.85352v18c1.4834 0.2238 2.329 0.72122 2.3008 1.3535z" fill="#b2b2b2"/><path d="m23.666 75.333a2.0671 6.45 82.33 0 0-8.2221 2.2221 2.0671 6.45 82.33 0 0 0.0557 1.4814h8.9258a2.0671 6.45 82.33 0 0 3.0185-1.4814 2.0671 6.45 82.33 0 0-3.7779-2.2221z" fill="#464646"/><path d="m28.451 97.549-8.48e-4 -18 3.9852-3.9852 2e-3 17.999" fill="#6e6e6e"/></g></g></svg>
