<?xml version="1.0" encoding="UTF-8"?>
<!-- Created with Inkscape (http://www.inkscape.org/) -->
<svg width="60" height="155" version="1.1" viewBox="0 0 60 155" xml:space="preserve" xmlns="http://www.w3.org/2000/svg"><g transform="translate(.0004906 1.0005)"><g><g stroke-opacity="0"><path d="m30 0.99951c-16.016 0-29 4.0294-29 9v134c0 4.9706 12.984 9 29 9s29-4.0294 29-9v-134c0-4.9706-12.984-9-29-9z" fill="#06f"/><path d="m29.999 0.99902a29 9 0 0 0-29 9 29 9 0 0 0 29 9 29 9 0 0 0 16-1.5039v-15.002a29 9 0 0 0-16-1.4941z" fill="#36c"/><path d="m30 0.99951a29 9 0 0 0-29 9 29 9 0 0 0 29 9 29 9 0 0 0 6.0254-0.20898v-17.594a29 9 0 0 0-6.0254-0.19727z" fill="#039"/></g><path d="m48 17 6-2v134l-6 2" fill="#039"/></g><g fill="#fffbf0" stroke="#b2b2b2" stroke-linejoin="bevel"><path d="m30 19v-4l4-4 6 3v-2l10 1 2 3-12 2z"/><path d="m12 17 6-4 5 1 7-2 3 7z"/><path d="m7.9995 14 4-2h2l2 2v4h2v-4l3-2 1-4 4 1v5h-2v2l2 3h2v-7h2l5 4-1 3 5-1-1-6 2-2h3l4 4v3l-2 1-10 1h-12l-15-3z"/></g><ellipse cx="30" cy="9.9995" rx="29" ry="9" fill-opacity="0" stroke="#2a2a2a" stroke-linejoin="round" stroke-width="2"/><path d="m59 9.9995v134c0 4.9706-12.984 9-29 9s-29-4.0294-29-9v-134" fill-opacity="0" stroke="#2a2a2a" stroke-linejoin="round" stroke-width="2"/></g><g transform="translate(-.99951 -30)" fill="#fffbf0"><path d="m33 99h12v8h3l-6 6-6-6h3v-2h-6v-6"/><path d="m45 115v12h-8v3l-6-6 6-6v3h2v-6h6"/><path d="m29 127h-12v-8h-3l6-6 6 6h-3v2h6v6"/><path d="m17 111v-12h8v-3l6 6-6 6v-3h-2v6h-6"/></g></svg>
