<?xml version="1.0" encoding="UTF-8" standalone="no"?>
<!-- Created with Inkscape (http://www.inkscape.org/) -->

<svg
   width="384"
   height="84"
   viewBox="0 0 384 84"
   version="1.1"
   id="svg1"
   inkscape:version="1.3.1 (91b66b0783, 2023-11-16)"
   xml:space="preserve"
   sodipodi:docname="gearbot 7.svg"
   xmlns:inkscape="http://www.inkscape.org/namespaces/inkscape"
   xmlns:sodipodi="http://sodipodi.sourceforge.net/DTD/sodipodi-0.dtd"
   xmlns="http://www.w3.org/2000/svg"
   xmlns:svg="http://www.w3.org/2000/svg"><sodipodi:namedview
     id="namedview1"
     pagecolor="#ffffff"
     bordercolor="#000000"
     borderopacity="0.25"
     inkscape:showpageshadow="2"
     inkscape:pageopacity="0.0"
     inkscape:pagecheckerboard="0"
     inkscape:deskcolor="#d1d1d1"
     inkscape:document-units="px"
     showgrid="false"
     inkscape:zoom="2.8284271"
     inkscape:cx="187.73685"
     inkscape:cy="87.858017"
     inkscape:window-width="1920"
     inkscape:window-height="1017"
     inkscape:window-x="1912"
     inkscape:window-y="-8"
     inkscape:window-maximized="1"
     inkscape:current-layer="layer5-2"
     showguides="true"><inkscape:grid
       id="grid1"
       units="px"
       originx="0"
       originy="0"
       spacingx="1"
       spacingy="1"
       empcolor="#0099e5"
       empopacity="0.30196078"
       color="#0099e5"
       opacity="0.14901961"
       empspacing="5"
       dotted="false"
       gridanglex="30"
       gridanglez="30"
       visible="false" /></sodipodi:namedview><defs
     id="defs1" /><g
     inkscape:groupmode="layer"
     id="layer5-2"
     inkscape:label="Frame 1"
     transform="translate(-191.99995)"><g
       inkscape:groupmode="layer"
       id="layer2-6-2-9"
       inkscape:label="Gear 1"
       transform="translate(334.03906,36.183983)"
       style="display:inline"><path
         id="path4-9-3-8-5"
         style="display:inline;fill:#8c8c8c;fill-opacity:1;stroke:#000000;stroke-width:2;stroke-linejoin:round;stroke-dasharray:none;stroke-opacity:0;paint-order:fill markers stroke"
         inkscape:label="teeth bg"
         d="m -41.449216,2.849609 1.36914,1.953125 0.160157,1.599609 4.11914,0.386719 1.451172,-1.451172 2.853516,-1.5566404 2.9375,0.5722657 V 8.376953 l 2.015625,0.632812 2.519531,-1.078125 3.902344,-0.925781 2.248047,1.058594 v 4.339844 l 1.28125,-0.216797 4.355468,-0.152344 1.216797,1.382812 h 0.002 v 4.376954 l 1.978516,0.30664 v 13.496094 l -1.978516,0.306641 v 4.376953 l -1.216796,1.382812 -4.357422,-0.152344 -1.28125,-0.216796 v 4.339843 l -2.248047,1.056641 -3.902344,-0.923828 -2.519531,-1.078125 -2.015625,0.632812 v 4.023438 l -2.9375,0.572265 -2.853516,-1.55664 -1.449219,-1.451172 -4.121093,0.386719 -0.160157,1.599609 -1.36914,1.953125 h -3.179688 l -1.36914,-1.953125 -0.160157,-1.599609 -4.11914,-0.386719 -1.451172,1.451172 -2.853516,1.55664 -2.9375,-0.572265 v -4.023438 l -2.015625,-0.632812 -2.519531,1.078125 -3.902344,0.923828 -2.248047,-1.056641 v -4.339843 l -1.28125,0.216796 -4.355468,0.152344 -1.216797,-1.382812 h -0.002 V 31.904297 L -77.03906,31.597656 V 18.101562 l 1.978516,-0.30664 v -4.376954 l 1.216797,-1.382812 4.357421,0.152344 1.28125,0.216797 V 8.064453 l 2.248047,-1.058594 3.902344,0.925781 2.519531,1.078125 2.015625,-0.632812 V 4.3535153 l 2.9375,-0.5722657 2.853516,1.5566404 1.449219,1.451172 4.121093,-0.386719 0.160157,-1.599609 1.36914,-1.953125 z" /><g
         inkscape:groupmode="layer"
         id="layer1-4"
         inkscape:label="Walls"
         style="display:inline"><path
           style="fill:#a6a6a6;fill-opacity:1;stroke:#a6a6a6;stroke-width:1;stroke-linejoin:round;stroke-dasharray:none;stroke-opacity:1;paint-order:fill markers stroke"
           d="M 33.410156,45 V 33.000003 h 3.179688 L 36.589797,45 Z"
           id="path1-9"
           transform="translate(-78.03906,1.849609)" /><path
           style="fill:#a6a6a6;fill-opacity:1;stroke:#a6a6a6;stroke-width:1;stroke-linejoin:round;stroke-dasharray:none;stroke-opacity:1;paint-order:fill markers stroke"
           d="m -28.558591,45.345703 -2.9375,0.572265 v -11.9994 l 2.9375,-0.572609 z"
           id="path2-8"
           sodipodi:nodetypes="ccccc" /><path
           style="fill:#a6a6a6;fill-opacity:1;stroke:#a6a6a6;stroke-width:1;stroke-linejoin:round;stroke-dasharray:none;stroke-opacity:1;paint-order:fill markers stroke"
           d="m -20.121091,30.692466 2.248047,-1.057904 v 12.000203 l -2.248047,1.056641 z"
           id="path3-7"
           sodipodi:nodetypes="ccccc" /><path
           style="fill:#a6a6a6;fill-opacity:1;stroke:#a6a6a6;stroke-width:1;stroke-linejoin:round;stroke-dasharray:none;stroke-opacity:1;paint-order:fill markers stroke"
           d="m -12.236373,37.664062 4.7e-5,-12.000089 1.216797,-1.382352 0.002,11.999629 -1.218797,1.382812 z"
           id="path5-53"
           sodipodi:nodetypes="cccccc" /><path
           style="display:inline;fill:#a6a6a6;fill-opacity:1;stroke:#a6a6a6;stroke-width:1;stroke-linejoin:round;stroke-dasharray:none;stroke-opacity:1;paint-order:fill markers stroke"
           d="m -57.519482,33.345959 v 11.999744 l 2.9375,0.572265 v -11.9994 z"
           id="path2-5-5"
           sodipodi:nodetypes="cccccc" /><path
           style="display:inline;fill:#a6a6a6;fill-opacity:1;stroke:#a6a6a6;stroke-width:1;stroke-linejoin:round;stroke-dasharray:none;stroke-opacity:1;paint-order:fill markers stroke"
           d="m -65.956982,30.692466 -2.248047,-1.057904 v 12.000203 l 2.248047,1.056641 z"
           id="path3-0-8"
           sodipodi:nodetypes="ccccc" /><path
           style="display:inline;fill:#a6a6a6;fill-opacity:1;stroke:#a6a6a6;stroke-width:1;stroke-linejoin:round;stroke-dasharray:none;stroke-opacity:1;paint-order:fill markers stroke"
           d="m -73.841747,25.663973 -1.216797,-1.382352 -0.002,11.999629 1.218821,1.382812 z"
           id="path5-8-2"
           sodipodi:nodetypes="ccccc" /></g><path
         id="path4-7"
         style="display:inline;fill:#c0c0c0;fill-opacity:1;stroke:#c0c0c0;stroke-width:1;stroke-linejoin:round;stroke-dasharray:none;stroke-opacity:1;paint-order:fill markers stroke"
         d="m -59.535154,9.010454 -2.519531,-1.079045 -3.902344,-0.924631 -2.248047,1.057904 1.964844,1.836397 2.292969,1.185661 -2.333985,1.643385 -3.205078,-0.5432 -4.355468,-0.151654 -1.216797,1.382353 3.308594,1.342831 3.082031,0.681985 -0.820313,1.939338 -3.402343,0.07537 -4.148438,0.644301 v 1.496324 l 4.148438,0.644301 3.402343,0.07537 0.820313,1.938419 -3.083985,0.682904 -3.308593,1.342831 1.216797,1.382353 4.357421,-0.151654 3.205078,-0.5432 2.333985,1.643406 -2.292969,1.185662 -1.964844,1.836397 2.248047,1.057904 3.902344,-0.924632 2.519531,-1.079045 3.492188,1.098346 -1.154297,1.508272 -0.322266,2.049631 2.9375,0.572612 2.853516,-1.556985 1.449219,-1.450368 4.121093,0.386007 0.160157,1.601103 1.36914,1.952205 h 3.179688 l 1.36914,-1.952205 0.160157,-1.601103 4.11914,-0.386007 1.451172,1.451287 2.853516,1.556984 2.9375,-0.572609 -0.322266,-2.050552 -1.154297,-1.508272 3.492188,-1.098346 2.519531,1.079045 3.902344,0.924632 2.248047,-1.057904 -1.964844,-1.836397 -2.292969,-1.185662 2.333985,-1.643383 3.205078,0.543199 4.355468,0.151654 1.216797,-1.382352 -3.308593,-1.342833 -3.082032,-0.681985 0.820313,-1.93936 3.402343,-0.07537 4.148437,-0.6443 v -1.496325 l -4.148437,-0.6443 -3.402343,-0.07537 -0.820313,-1.938397 3.083985,-0.682904 3.308593,-1.342831 -1.216796,-1.382352 -4.357422,0.151654 -3.205078,0.543199 -2.333985,-1.643406 2.292969,-1.185662 1.964844,-1.836397 -2.248047,-1.057904 -3.902344,0.924631 -2.519531,1.079045 -3.492188,-1.098346 1.154297,-1.508273 0.322266,-2.049631 -2.9375,-0.572611 -2.853516,1.556986 -1.449219,1.450367 -4.121093,-0.386027 -0.160157,-1.601103 -1.36914,-1.952207 h -3.179688 l -1.36914,1.952207 -0.160157,1.601103 -4.11914,0.386029 -1.451172,-1.451287 -2.853516,-1.556986 -2.9375,0.572612 0.322266,2.05055 1.154297,1.508272 z"
         sodipodi:nodetypes="ccccccccccccccccccccccccccccccccccccccccccccccccccccccccccccccccccccccccccccccccccccccccccccccccc"
         inkscape:label="teeth" /><path
         id="path4-9-3-3"
         style="display:inline;fill:#000000;fill-opacity:0;stroke:#2a2a2a;stroke-width:2;stroke-linejoin:round;stroke-dasharray:none;stroke-opacity:1;paint-order:fill markers stroke"
         inkscape:label="teeth border"
         d="m -45.629168,2.849496 -1.36914,1.953125 -0.160158,1.5996094 -3.118827,0.3867187 -1.451172,-1.4511718 -2.853516,-1.5566407 -3.937812,0.5722657 V 8.37684 l -1.015313,0.632812 -2.519531,-1.078125 -3.902344,-0.925781 -3.24836,1.058594 v 4.339844 l -0.280937,-0.216797 -4.355468,-0.152344 -2.21711,1.382812 h -0.002 v 4.376954 l -0.978204,0.30664 v 13.496094 l 0.978227,0.306641 v 4.376953 l 2.217085,1.382812 4.357422,-0.152344 0.280961,-0.216796 v 4.339843 l 3.248336,1.056641 3.902344,-0.923828 2.519531,-1.078125 1.015336,0.632812 v 4.023438 l 3.937789,0.572265 2.853516,-1.55664 1.449219,-1.451172 3.120804,0.386719 0.160157,1.599609 1.36914,1.953125 h 5.180336 l 1.36914,-1.953125 0.160158,-1.599609 3.11878,-0.386719 1.451172,1.451172 2.853516,1.55664 3.937859,-0.572265 v -4.023438 l 1.015266,-0.632812 2.519531,1.078125 3.902344,0.923828 3.248407,-1.056641 v -4.339843 l 0.28089,0.216796 4.355468,0.152344 2.217154,-1.382812 h 0.002 v -4.376953 l 0.97816,-0.306641 V 18.101449 l -0.97818,-0.30664 v -4.376954 l -2.217133,-1.382812 -4.357421,0.152344 -0.280914,0.216797 V 8.06434 l -3.248383,-1.058594 -3.902344,0.925781 -2.519531,1.078125 -1.015289,-0.632812 V 4.3534023 l -3.937836,-0.5722657 -2.853516,1.5566407 -1.449219,1.4511718 -3.120757,-0.3867187 -0.160157,-1.5996094 -1.36914,-1.953125 z"
         sodipodi:nodetypes="ccccccccccccccccccccccccccccccccccccccccccccccccccccccccccccccccccccccccccc" /></g><g
       inkscape:groupmode="layer"
       id="layer4-9"
       inkscape:label="Body"
       style="display:inline"><path
         id="path11-8"
         style="display:inline;fill:#808080;fill-opacity:1;stroke:#2a2a2a;stroke-width:2;stroke-linejoin:round;stroke-dasharray:none;stroke-opacity:1;paint-order:fill markers stroke"
         d="M 321,27 V 57 A 30,12 0 0 1 291,69 30,12 0 0 1 261,57 V 27 Z"
         inkscape:label="cylinder" /><path
         id="path11-6-3"
         style="display:inline;fill:#000000;fill-opacity:1;stroke:#2a2a2a;stroke-width:2;stroke-linejoin:round;stroke-dasharray:none;stroke-opacity:1;paint-order:fill markers stroke"
         d="M 271,31 V 65.910156 A 30,12 0 0 0 291,69 30,12 0 0 0 311,65.910156 V 31 Z"
         inkscape:label="screen" /><path
         style="fill:#99cccc;fill-opacity:1;stroke:none;stroke-width:2;stroke-linejoin:round;stroke-dasharray:none;stroke-opacity:0;paint-order:fill markers stroke"
         d="m 278,51 h 18 v -5 l 8,8 -8,8 v -5 h -18 z"
         id="path12-0"
         sodipodi:nodetypes="cccccccc"
         inkscape:label="arrow" /><path
         style="fill:#000000;fill-opacity:1;stroke:none;stroke-width:0.999997;stroke-linejoin:round;stroke-dasharray:none;stroke-opacity:0;paint-order:fill markers stroke"
         d="m 266,59.51101 v -18 l -2,-1.5 V 43 l 4,3.01101 v 3 l -4,-3 v 3 l 4,3 v 3 l -4,-3 v 3 l 4,3 v 3 l -2,-1.5"
         id="path15-8"
         sodipodi:nodetypes="ccccccccccccccc"
         inkscape:label="checker" /><path
         style="fill:#000000;fill-opacity:1;stroke:none;stroke-width:0.999997;stroke-linejoin:round;stroke-dasharray:none;stroke-opacity:0;paint-order:fill markers stroke"
         d="m 316,59.51101 v -18 l 2,-1.5 V 43 l -4,3.01101 v 3 l 4,-3 v 3 l -4,3 v 3 l 4,-3 v 3 l -4,3 v 3 l 2,-1.5"
         id="path15-5-9"
         sodipodi:nodetypes="ccccccccccccccc"
         inkscape:label="checker" /></g><g
       inkscape:groupmode="layer"
       id="layer2-9"
       inkscape:label="Gear 2"
       style="display:inline;stroke:#000000;stroke-opacity:0"
       transform="rotate(45,184.72788,335.01947)"><path
         id="path4-2-5-8"
         style="display:inline;fill:#8c8c8c;fill-opacity:1;stroke:#000000;stroke-width:1;stroke-linejoin:round;stroke-dasharray:none;stroke-opacity:0;paint-order:fill markers stroke"
         inkscape:label="teeth bg"
         d="m 20.212111,27.388295 2.786995,-0.256879 1.682141,0.519282 2.969296,-2.969296 -0.519282,-1.682141 0.256879,-2.784233 2.411344,-1.999786 1.821629,1.064803 1.19048,1.190481 2.851906,-1.921066 0.5179,-2.343672 1.541272,-3.328374 2.455539,-1.281631 3.344946,3.344947 0.04834,-0.01795 1.480505,-2.648888 2.589502,-3.365663 2.128226,-0.368745 2.959628,2.959628 2.905767,-2.585359 1.476362,0.598003 11.860366,11.863128 0.600764,1.476361 -2.58674,2.904386 2.96101,2.96101 -0.0014,0.0014 -0.368746,2.128226 -3.364281,2.588121 -2.648888,1.477743 -0.01795,0.0511 3.342184,3.342185 0.0014,0.0014 h 0.0028 l -1.283012,2.45692 -3.329754,1.53989 -2.342292,0.519282 -1.921065,2.851905 1.19048,1.190481 1.064804,1.821628 -1.998406,2.409964 -2.786995,0.256878 -1.680759,-0.5179 -2.969296,2.969296 0.5179,1.68076 -0.255497,2.785614 -2.411345,1.999786 -1.821629,-1.064803 -1.191861,-1.191862 -2.850524,1.922447 -0.519282,2.342291 -1.539891,3.329755 -2.45692,1.28025 -3.344946,-3.344947 -0.04834,0.01795 -1.479123,2.650269 -2.589503,3.365663 -2.128225,0.368745 -2.96101,-2.96101 -2.904386,2.586741 -1.477743,-0.599384 0.0014,-0.0014 -11.8631288,-11.860366 0.00138,-0.0014 -0.599383,-1.474981 2.5867398,-2.904385 -2.9610088,-2.96101 0.00138,-0.0014 0.368745,-2.128226 3.3656618,-2.589502 2.647508,-1.476362 0.01795,-0.0511 -3.342184,-3.342185 -0.0041,-0.0014 0.0014,-0.0014 1.28025,-2.45692 3.329755,-1.53989 2.345053,-0.519282 1.919684,-2.850524 -1.19048,-1.190481 -1.064804,-1.821628 z"
         sodipodi:nodetypes="ccccccccccccccccccccccccccccccccccccccccccccccccccccccccccccccccccccccccccccccccc" /><g
         inkscape:groupmode="layer"
         id="layer3-5"
         inkscape:label="Walls"
         style="display:inline;stroke:#000000;stroke-opacity:0"><path
           style="fill:#a6a6a6;fill-opacity:1;stroke:#a6a6a6;stroke-width:1;stroke-linejoin:round;stroke-dasharray:none;stroke-opacity:1;paint-order:fill markers stroke"
           d="m 29.821401,58.405487 8.485274,8.483859 2.45692,-1.280212 -8.485018,-8.485244 z"
           id="path6-0" /><path
           style="fill:#a6a6a6;fill-opacity:1;stroke:#a6a6a6;stroke-width:1;stroke-linejoin:round;stroke-dasharray:none;stroke-opacity:1;paint-order:fill markers stroke"
           d="m 20.231179,61.460142 2.128878,-0.369387 8.486043,8.486152 -2.129611,0.370131 z"
           id="path9-4"
           sodipodi:nodetypes="ccccc" /><path
           style="fill:#a6a6a6;fill-opacity:1;stroke:#a6a6a6;stroke-width:1;stroke-linejoin:round;stroke-dasharray:none;stroke-opacity:1;paint-order:fill markers stroke"
           d="m 40.200462,51.786088 2.411238,-1.998464 8.485048,8.485274 -2.409965,1.998407 z"
           id="path10-9" /><path
           style="display:inline;fill:#a6a6a6;fill-opacity:1;stroke:#a6a6a6;stroke-width:1;stroke-linejoin:round;stroke-dasharray:none;stroke-opacity:1;paint-order:fill markers stroke"
           d="m 58.40535,29.821538 8.483859,8.485274 -1.280212,2.45692 -8.485244,-8.485018 z"
           id="path6-1-6" /><path
           style="display:inline;fill:#a6a6a6;fill-opacity:1;stroke:#a6a6a6;stroke-width:1;stroke-linejoin:round;stroke-dasharray:none;stroke-opacity:1;paint-order:fill markers stroke"
           d="m 61.460005,20.231316 -0.369387,2.128878 8.486152,8.486043 0.370131,-2.129611 z"
           id="path9-6-5"
           sodipodi:nodetypes="ccccc" /><path
           style="display:inline;fill:#a6a6a6;fill-opacity:1;stroke:#a6a6a6;stroke-width:1;stroke-linejoin:round;stroke-dasharray:none;stroke-opacity:1;paint-order:fill markers stroke"
           d="m 51.785951,40.200599 -1.998464,2.411238 8.485274,8.485048 1.998407,-2.409965 z"
           id="path10-7-2" /></g><path
         id="path4-2-2"
         style="display:inline;fill:#c0c0c0;fill-opacity:1;stroke:#c0c0c0;stroke-width:1;stroke-linejoin:round;stroke-dasharray:none;stroke-opacity:1;paint-order:fill markers stroke"
         d="M 32.382878,20.758327 31.620215,19.279 l -1.820747,-1.065107 -2.411238,1.998465 -0.257401,2.787502 0.519654,1.680735 -2.970251,2.969931 -1.680615,-0.519712 -2.786197,0.256929 -1.998688,2.411477 1.065021,1.820856 1.47936,0.761925 -2.210302,3.280107 -2.342505,0.519023 -3.329336,1.540009 -1.281631,2.457286 2.225621,0.576154 2.213397,-0.271483 -1.111076,3.088005 -2.649723,1.479745 -3.3653456,2.589579 -0.3693386,2.128765 3.0472942,-0.755254 2.611137,-1.264386 0.15505,2.427683 -2.550742,2.213488 -2.8884213,3.244018 0.5990048,1.476149 3.4046805,-1.971784 2.61111,-2.064719 1.397347,1.398029 -2.064695,2.611003 -1.971316,3.403375 1.476275,0.599098 3.244087,-2.8884 2.212556,-2.550174 2.428548,0.155156 -1.264148,2.61075 -0.755432,3.046889 2.128878,-0.369387 2.588776,-3.364997 1.478606,-2.647961 3.088487,-1.112432 -0.271462,2.214743 0.576908,2.225409 2.457179,-1.281601 1.540574,-3.330009 0.519036,-2.342812 3.27886,-2.209411 0.762664,1.479327 1.820746,1.065107 2.411239,-1.998464 0.2574,-2.787503 -0.519654,-1.680735 2.970249,-2.969929 1.680617,0.519712 2.786196,-0.256929 1.998688,-2.411477 -1.065021,-1.820856 -1.47936,-0.761924 2.21032,-3.280144 2.342505,-0.519023 3.329336,-1.540009 1.281633,-2.457286 -2.225622,-0.576153 -2.213397,0.271482 1.111057,-3.087968 2.649724,-1.479745 3.365345,-2.58958 0.369339,-2.128765 -3.047295,0.755255 -2.611137,1.264385 -0.155048,-2.427685 2.550741,-2.213488 2.888422,-3.244017 -0.599005,-1.476149 -3.40468,1.971783 -2.61111,2.06472 -1.397348,-1.39803 2.064695,-2.611003 1.971317,-3.4033756 -1.476275,-0.5990973 -3.244088,2.8884009 -2.212556,2.550172 -2.42853,-0.15519 1.264148,-2.61075 0.755432,-3.046888 -2.128878,0.3693873 -2.588776,3.3649967 -1.478606,2.647961 -3.088506,1.112468 0.271462,-2.214742 -0.576908,-2.22541 -2.457179,1.281602 -1.540575,3.330009 -0.519036,2.342811 z"
         sodipodi:nodetypes="ccccccccccccccccccccccccccccccccccccccccccccccccccccccccccccccccccccccccccccccccccccccccccccccccc"
         inkscape:label="teeth" /><path
         id="path4-2-5-6-8"
         style="display:inline;fill:#000000;fill-opacity:0;stroke:#2a2a2a;stroke-width:2;stroke-linejoin:round;stroke-dasharray:none;stroke-opacity:1;paint-order:fill markers stroke"
         inkscape:label="teeth border"
         d="m 27.388158,20.212248 -0.256879,2.786995 0.519282,1.682141 -2.969296,2.969296 -1.682141,-0.519282 -2.784233,0.256879 -2.707033,3.118591 1.064803,1.821629 1.190481,1.19048 -1.213819,2.144659 -2.343672,0.5179 -3.328374,1.541272 -1.988878,3.162786 3.344947,3.344946 -0.01795,0.04834 -1.941641,0.773258 -3.3656631,2.589502 -1.0759916,2.835473 2.9596277,2.959628 -1.8781121,2.19852 0.5980031,1.476362 11.863128,11.860366 1.476361,0.600764 2.19714,-1.879494 2.96101,2.96101 0.0014,-0.0014 2.835472,-1.075992 2.588121,-3.364281 0.770497,-1.941642 0.0511,-0.01795 3.342185,3.342184 0.0014,0.0014 v 0.0028 l 3.164166,-1.990258 1.53989,-3.329754 0.519282,-2.342292 2.144659,-1.213819 1.190481,1.19048 1.821628,1.064804 3.11721,-2.705652 0.256878,-2.786995 -0.5179,-1.680759 2.969296,-2.969296 1.68076,0.5179 2.785614,-0.255497 2.706965,-3.118524 -1.064803,-1.821629 -1.191862,-1.191861 1.215268,-2.143345 2.342291,-0.519282 3.329755,-1.539891 1.987429,-3.164099 -3.344947,-3.344946 0.01795,-0.04834 1.94309,-0.771944 3.365663,-2.589503 1.075924,-2.835404 -2.96101,-2.96101 1.879562,-2.197207 -0.599384,-1.477743 -0.0014,0.0014 -11.860366,-11.863129 -0.0014,0.0014 -1.474981,-0.5993831 -2.197135,1.8794901 -2.96101,-2.9610092 -0.0014,0.0014 -2.835476,1.0759951 -2.589502,3.3656621 -0.769112,1.940258 -0.0511,0.01795 -3.342185,-3.342184 -0.0014,-0.0041 -0.0014,0.0014 -3.16417,1.9875 -1.53989,3.329755 -0.519282,2.345053 -2.143274,1.212434 -1.190481,-1.19048 -1.821628,-1.064804 z"
         sodipodi:nodetypes="ccccccccccccccccccccccccccccccccccccccccccccccccccccccccccccccccccccccccccccccccc" /><circle
         style="display:inline;fill:#808080;fill-opacity:1;stroke:#000000;stroke-width:2.21089;stroke-linejoin:round;stroke-dasharray:none;stroke-opacity:0;paint-order:fill markers stroke"
         id="path8-5"
         cx="58.123276"
         cy="58.123276"
         r="18.365015"
         inkscape:label="circle"
         transform="matrix(0.94088741,-0.33871947,-0.33871947,0.94088741,0,0)" /><path
         id="path7-0"
         style="display:inline;fill:#c0c0c0;fill-opacity:1;stroke:#000000;stroke-width:3.88938;stroke-linejoin:round;stroke-dasharray:none;stroke-opacity:0;paint-order:fill markers stroke"
         d="m 41.617621,16.617621 c -3.756349,1.352285 -7.897715,5.493651 -9.25,9.25 -0.430621,1.212702 -0.527203,2.284246 -0.279642,3.10317 l -3.09961,3.09961 c -0.824808,-0.243442 -1.90261,-0.140793 -3.120748,0.29722 -3.756349,1.352285 -7.897715,5.493651 -9.25,9.25 -1.352286,3.756348 0.596592,5.705226 4.352941,4.352941 1.217193,-0.446529 2.526577,-1.2088 3.792279,-2.207721 l 1.462317,1.462317 c -0.998224,1.271808 -1.756571,2.58566 -2.195773,3.804227 -1.352285,3.756349 0.596593,5.705227 4.352942,4.352942 3.756348,-1.352286 7.897714,-5.493652 9.25,-9.25 0.43062,-1.212703 0.527202,-2.284247 0.279641,-3.103171 l 3.09961,-3.09961 c 0.824808,0.243442 1.90261,0.140793 3.120749,-0.297219 3.756348,-1.352286 7.897714,-5.493652 9.25,-9.25 1.352285,-3.756349 -0.596593,-5.705227 -4.352942,-4.352942 -1.217193,0.446529 -2.526576,1.208801 -3.792279,2.207721 L 43.77479,24.77479 c 0.998224,-1.271808 1.75657,-2.585661 2.195772,-3.804228 1.352285,-3.756349 -0.596593,-5.705227 -4.352941,-4.352941 z"
         sodipodi:nodetypes="sccccsccccsccccsccccs"
         inkscape:label="clover" /><path
         id="path5-5-7"
         style="display:inline;fill:#595959;fill-opacity:1;stroke:#000000;stroke-width:2.1828;stroke-linejoin:round;stroke-dasharray:none;stroke-opacity:0;paint-order:fill markers stroke"
         d="m 40.757327,19.007327 c -2.53807,0.913704 -5.336296,3.71193 -6.25,6.25 -0.400542,1.113032 -0.383458,2.042744 0.04808,2.61644 l 0.753389,0.93503 -1.720588,4.779412 -4.779412,1.720588 -0.93503,-0.753389 c -0.573696,-0.431539 -1.503408,-0.448623 -2.61644,-0.04808 -2.53807,0.913704 -5.336296,3.71193 -6.25,6.25 -0.913705,2.538069 0.403107,3.854881 2.941176,2.941176 1.113156,-0.400886 2.333864,-1.192122 3.435374,-2.226735 l 1.836685,-1.751206 4.779412,-1.720588 -1.720589,4.779411 -1.751206,1.836685 c -1.034613,1.10151 -1.825849,2.322218 -2.226735,3.435374 -0.913705,2.538069 0.403108,3.854882 2.941177,2.941177 2.538069,-0.913705 5.336295,-3.711931 6.25,-6.25 0.400541,-1.113033 0.383457,-2.042745 -0.04808,-2.616441 l -0.753389,-0.93503 1.720588,-4.779412 4.779412,-1.720588 0.93503,0.753389 c 0.573696,0.431539 1.503408,0.448623 2.616441,0.04808 2.538069,-0.913705 5.336295,-3.711931 6.25,-6.25 0.913705,-2.538069 -0.403108,-3.854882 -2.941177,-2.941177 -1.113156,0.400886 -2.333864,1.192122 -3.435374,2.226735 l -1.836685,1.751206 -4.779411,1.720589 1.720588,-4.779412 1.751206,-1.836685 c 1.034613,-1.10151 1.825849,-2.322218 2.226735,-3.435374 0.913705,-2.538069 -0.403107,-3.854881 -2.941176,-2.941176 z"
         inkscape:label="Hole" /></g></g><g
     inkscape:groupmode="layer"
     id="layer5"
     inkscape:label="Frame 2"><g
       inkscape:groupmode="layer"
       id="layer2"
       inkscape:label="Gear 2"
       style="display:inline;stroke:#000000;stroke-opacity:0"
       transform="rotate(45,138.85782,354.01947)"><path
         id="path4-2-5"
         style="display:inline;fill:#8c8c8c;fill-opacity:1;stroke:#000000;stroke-width:1;stroke-linejoin:round;stroke-dasharray:none;stroke-opacity:0;paint-order:fill markers stroke"
         inkscape:label="teeth bg"
         d="m 20.212111,27.388295 2.786995,-0.256879 1.682141,0.519282 2.969296,-2.969296 -0.519282,-1.682141 0.256879,-2.784233 2.411344,-1.999786 1.821629,1.064803 1.19048,1.190481 2.851906,-1.921066 0.5179,-2.343672 1.541272,-3.328374 2.455539,-1.281631 3.344946,3.344947 0.04834,-0.01795 1.480505,-2.648888 2.589502,-3.365663 2.128226,-0.368745 2.959628,2.959628 2.905767,-2.585359 1.476362,0.598003 11.860366,11.863128 0.600764,1.476361 -2.58674,2.904386 2.96101,2.96101 -0.0014,0.0014 -0.368746,2.128226 -3.364281,2.588121 -2.648888,1.477743 -0.01795,0.0511 3.342184,3.342185 0.0014,0.0014 h 0.0028 l -1.283012,2.45692 -3.329754,1.53989 -2.342292,0.519282 -1.921065,2.851905 1.19048,1.190481 1.064804,1.821628 -1.998406,2.409964 -2.786995,0.256878 -1.680759,-0.5179 -2.969296,2.969296 0.5179,1.68076 -0.255497,2.785614 -2.411345,1.999786 -1.821629,-1.064803 -1.191861,-1.191862 -2.850524,1.922447 -0.519282,2.342291 -1.539891,3.329755 -2.45692,1.28025 -3.344946,-3.344947 -0.04834,0.01795 -1.479123,2.650269 -2.589503,3.365663 -2.128225,0.368745 -2.96101,-2.96101 -2.904386,2.586741 -1.477743,-0.599384 0.0014,-0.0014 -11.8631288,-11.860366 0.00138,-0.0014 -0.599383,-1.474981 2.5867398,-2.904385 -2.9610088,-2.96101 0.00138,-0.0014 0.368745,-2.128226 3.3656618,-2.589502 2.647508,-1.476362 0.01795,-0.0511 -3.342184,-3.342185 -0.0041,-0.0014 0.0014,-0.0014 1.28025,-2.45692 3.329755,-1.53989 2.345053,-0.519282 1.919684,-2.850524 -1.19048,-1.190481 -1.064804,-1.821628 z"
         sodipodi:nodetypes="ccccccccccccccccccccccccccccccccccccccccccccccccccccccccccccccccccccccccccccccccc" /><g
         inkscape:groupmode="layer"
         id="layer3"
         inkscape:label="Walls"
         style="display:inline;stroke:#000000;stroke-opacity:0"><path
           style="fill:#a6a6a6;fill-opacity:1;stroke:#a6a6a6;stroke-width:1;stroke-linejoin:round;stroke-dasharray:none;stroke-opacity:1;paint-order:fill markers stroke"
           d="m 29.821401,58.405487 8.485274,8.483859 2.45692,-1.280212 -8.485018,-8.485244 z"
           id="path6" /><path
           style="fill:#a6a6a6;fill-opacity:1;stroke:#a6a6a6;stroke-width:1;stroke-linejoin:round;stroke-dasharray:none;stroke-opacity:1;paint-order:fill markers stroke"
           d="m 20.231179,61.460142 2.128878,-0.369387 8.486043,8.486152 -2.129611,0.370131 z"
           id="path9"
           sodipodi:nodetypes="ccccc" /><path
           style="fill:#a6a6a6;fill-opacity:1;stroke:#a6a6a6;stroke-width:1;stroke-linejoin:round;stroke-dasharray:none;stroke-opacity:1;paint-order:fill markers stroke"
           d="m 40.200462,51.786088 2.411238,-1.998464 8.485048,8.485274 -2.409965,1.998407 z"
           id="path10" /><path
           style="display:inline;fill:#a6a6a6;fill-opacity:1;stroke:#a6a6a6;stroke-width:1;stroke-linejoin:round;stroke-dasharray:none;stroke-opacity:1;paint-order:fill markers stroke"
           d="m 58.40535,29.821538 8.483859,8.485274 -1.280212,2.45692 -8.485244,-8.485018 z"
           id="path6-1" /><path
           style="display:inline;fill:#a6a6a6;fill-opacity:1;stroke:#a6a6a6;stroke-width:1;stroke-linejoin:round;stroke-dasharray:none;stroke-opacity:1;paint-order:fill markers stroke"
           d="m 61.460005,20.231316 -0.369387,2.128878 8.486152,8.486043 0.370131,-2.129611 z"
           id="path9-6"
           sodipodi:nodetypes="ccccc" /><path
           style="display:inline;fill:#a6a6a6;fill-opacity:1;stroke:#a6a6a6;stroke-width:1;stroke-linejoin:round;stroke-dasharray:none;stroke-opacity:1;paint-order:fill markers stroke"
           d="m 51.785951,40.200599 -1.998464,2.411238 8.485274,8.485048 1.998407,-2.409965 z"
           id="path10-7" /></g><path
         id="path4-2"
         style="display:inline;fill:#c0c0c0;fill-opacity:1;stroke:#c0c0c0;stroke-width:1;stroke-linejoin:round;stroke-dasharray:none;stroke-opacity:1;paint-order:fill markers stroke"
         d="M 32.382878,20.758327 31.620215,19.279 l -1.820747,-1.065107 -2.411238,1.998465 -0.257401,2.787502 0.519654,1.680735 -2.970251,2.969931 -1.680615,-0.519712 -2.786197,0.256929 -1.998688,2.411477 1.065021,1.820856 1.47936,0.761925 -2.210302,3.280107 -2.342505,0.519023 -3.329336,1.540009 -1.281631,2.457286 2.225621,0.576154 2.213397,-0.271483 -1.111076,3.088005 -2.649723,1.479745 -3.3653456,2.589579 -0.3693386,2.128765 3.0472942,-0.755254 2.611137,-1.264386 0.15505,2.427683 -2.550742,2.213488 -2.8884213,3.244018 0.5990048,1.476149 3.4046805,-1.971784 2.61111,-2.064719 1.397347,1.398029 -2.064695,2.611003 -1.971316,3.403375 1.476275,0.599098 3.244087,-2.8884 2.212556,-2.550174 2.428548,0.155156 -1.264148,2.61075 -0.755432,3.046889 2.128878,-0.369387 2.588776,-3.364997 1.478606,-2.647961 3.088487,-1.112432 -0.271462,2.214743 0.576908,2.225409 2.457179,-1.281601 1.540574,-3.330009 0.519036,-2.342812 3.27886,-2.209411 0.762664,1.479327 1.820746,1.065107 2.411239,-1.998464 0.2574,-2.787503 -0.519654,-1.680735 2.970249,-2.969929 1.680617,0.519712 2.786196,-0.256929 1.998688,-2.411477 -1.065021,-1.820856 -1.47936,-0.761924 2.21032,-3.280144 2.342505,-0.519023 3.329336,-1.540009 1.281633,-2.457286 -2.225622,-0.576153 -2.213397,0.271482 1.111057,-3.087968 2.649724,-1.479745 3.365345,-2.58958 0.369339,-2.128765 -3.047295,0.755255 -2.611137,1.264385 -0.155048,-2.427685 2.550741,-2.213488 2.888422,-3.244017 -0.599005,-1.476149 -3.40468,1.971783 -2.61111,2.06472 -1.397348,-1.39803 2.064695,-2.611003 1.971317,-3.4033756 -1.476275,-0.5990973 -3.244088,2.8884009 -2.212556,2.550172 -2.42853,-0.15519 1.264148,-2.61075 0.755432,-3.046888 -2.128878,0.3693873 -2.588776,3.3649967 -1.478606,2.647961 -3.088506,1.112468 0.271462,-2.214742 -0.576908,-2.22541 -2.457179,1.281602 -1.540575,3.330009 -0.519036,2.342811 z"
         sodipodi:nodetypes="ccccccccccccccccccccccccccccccccccccccccccccccccccccccccccccccccccccccccccccccccccccccccccccccccc"
         inkscape:label="teeth" /><path
         id="path4-2-5-6-8-3"
         style="display:inline;fill:#000000;fill-opacity:0;stroke:#2a2a2a;stroke-width:2;stroke-linejoin:round;stroke-dasharray:none;stroke-opacity:1;paint-order:fill markers stroke"
         inkscape:label="teeth border"
         d="m 27.388128,20.212304 -0.256879,2.786995 0.519282,1.682141 -2.969296,2.969296 -1.682141,-0.519282 -2.784234,0.256879 -2.70703,3.118591 1.0648,1.821629 1.19048,1.19048 -1.21382,2.144659 -2.34367,0.5179 -3.32837,1.541272 -1.98888,3.162786 3.34495,3.344946 -0.0179,0.04834 -1.94165,0.773258 -3.36566,2.589502 -1.07599,2.835473 2.95963,2.959628 -1.87811,2.19852 0.598,1.476362 11.863127,11.860366 1.476361,0.600764 2.19714,-1.879494 2.96101,2.96101 0.0014,-0.0014 2.835472,-1.075992 2.588121,-3.364281 0.770497,-1.941642 0.0511,-0.01795 3.342185,3.342184 0.0014,0.0014 v 0.0028 l 3.164166,-1.990258 1.53989,-3.329754 0.519282,-2.342292 2.144659,-1.213819 1.190481,1.19048 1.821628,1.064804 3.11721,-2.705652 0.256878,-2.786995 -0.5179,-1.680759 2.969296,-2.969296 1.68076,0.5179 2.785614,-0.255497 2.706965,-3.118524 -1.064803,-1.821629 -1.191862,-1.191861 1.215268,-2.143345 2.342291,-0.519282 3.329755,-1.539891 1.987429,-3.164099 -3.344947,-3.344946 0.01795,-0.04834 1.94309,-0.771944 3.365663,-2.589503 1.075924,-2.835404 -2.96101,-2.96101 1.879562,-2.197207 -0.599384,-1.477743 -0.0014,0.0014 -11.860366,-11.863129 -0.0014,0.0014 -1.474981,-0.599383 -2.197135,1.87949 -2.96101,-2.961009 -0.0014,0.0014 -2.835476,1.075995 -2.589502,3.365662 -0.769112,1.940258 -0.0511,0.01795 -3.342185,-3.342184 -0.0014,-0.0041 -0.0014,0.0014 -3.16417,1.9875 -1.53989,3.329755 -0.519282,2.345053 -2.143274,1.212434 -1.190481,-1.19048 -1.821628,-1.064804 z"
         sodipodi:nodetypes="ccccccccccccccccccccccccccccccccccccccccccccccccccccccccccccccccccccccccccccccccc" /></g><g
       inkscape:groupmode="layer"
       id="layer4"
       inkscape:label="Body"
       style="display:inline"><path
         id="path11"
         style="display:inline;fill:#808080;fill-opacity:1;stroke:#2a2a2a;stroke-width:2;stroke-linejoin:round;stroke-dasharray:none;stroke-opacity:1;paint-order:fill markers stroke"
         d="M 321,27 V 57 A 30,12 0 0 1 291,69 30,12 0 0 1 261,57 V 27 Z"
         inkscape:label="cylinder" /><path
         id="path11-6"
         style="display:inline;fill:#000000;fill-opacity:1;stroke:#2a2a2a;stroke-width:2;stroke-linejoin:round;stroke-dasharray:none;stroke-opacity:1;paint-order:fill markers stroke"
         d="M 271,31 V 65.910156 A 30,12 0 0 0 291,69 30,12 0 0 0 311,65.910156 V 31 Z"
         inkscape:label="screen" /><path
         style="fill:#99cccc;fill-opacity:1;stroke:none;stroke-width:2;stroke-linejoin:round;stroke-dasharray:none;stroke-opacity:0;paint-order:fill markers stroke"
         d="m 278,51 h 18 v -5 l 8,8 -8,8 v -5 h -18 z"
         id="path12"
         sodipodi:nodetypes="cccccccc"
         inkscape:label="arrow" /><path
         style="fill:#000000;fill-opacity:1;stroke:none;stroke-width:0.999997;stroke-linejoin:round;stroke-dasharray:none;stroke-opacity:0;paint-order:fill markers stroke"
         d="m 266,59.51101 v -18 l -2,-1.5 V 43 l 4,3.01101 v 3 l -4,-3 v 3 l 4,3 v 3 l -4,-3 v 3 l 4,3 v 3 l -2,-1.5"
         id="path15"
         sodipodi:nodetypes="ccccccccccccccc"
         inkscape:label="checker" /><path
         style="fill:#000000;fill-opacity:1;stroke:none;stroke-width:0.999997;stroke-linejoin:round;stroke-dasharray:none;stroke-opacity:0;paint-order:fill markers stroke"
         d="m 316,59.51101 v -18 l 2,-1.5 V 43 l -4,3.01101 v 3 l 4,-3 v 3 l -4,3 v 3 l 4,-3 v 3 l -4,3 v 3 l 2,-1.5"
         id="path15-5"
         sodipodi:nodetypes="ccccccccccccccc"
         inkscape:label="checker" /></g><g
       inkscape:groupmode="layer"
       id="layer2-6-2"
       inkscape:label="Gear 1"
       transform="translate(334.03906,-1.849609)"
       style="display:inline"><path
         id="path4-9-3-8"
         style="display:inline;fill:#8c8c8c;fill-opacity:1;stroke:#000000;stroke-width:2;stroke-linejoin:round;stroke-dasharray:none;stroke-opacity:0;paint-order:fill markers stroke"
         inkscape:label="teeth bg"
         d="m -41.449216,2.849609 1.36914,1.953125 0.160157,1.599609 4.11914,0.386719 1.451172,-1.451172 2.853516,-1.5566404 2.9375,0.5722657 V 8.376953 l 2.015625,0.632812 2.519531,-1.078125 3.902344,-0.925781 2.248047,1.058594 v 4.339844 l 1.28125,-0.216797 4.355468,-0.152344 1.216797,1.382812 h 0.002 v 4.376954 l 1.978516,0.30664 v 13.496094 l -1.978516,0.306641 v 4.376953 l -1.216796,1.382812 -4.357422,-0.152344 -1.28125,-0.216796 v 4.339843 l -2.248047,1.056641 -3.902344,-0.923828 -2.519531,-1.078125 -2.015625,0.632812 v 4.023438 l -2.9375,0.572265 -2.853516,-1.55664 -1.449219,-1.451172 -4.121093,0.386719 -0.160157,1.599609 -1.36914,1.953125 h -3.179688 l -1.36914,-1.953125 -0.160157,-1.599609 -4.11914,-0.386719 -1.451172,1.451172 -2.853516,1.55664 -2.9375,-0.572265 v -4.023438 l -2.015625,-0.632812 -2.519531,1.078125 -3.902344,0.923828 -2.248047,-1.056641 v -4.339843 l -1.28125,0.216796 -4.355468,0.152344 -1.216797,-1.382812 h -0.002 V 31.904297 L -77.03906,31.597656 V 18.101562 l 1.978516,-0.30664 v -4.376954 l 1.216797,-1.382812 4.357421,0.152344 1.28125,0.216797 V 8.064453 l 2.248047,-1.058594 3.902344,0.925781 2.519531,1.078125 2.015625,-0.632812 V 4.3535153 l 2.9375,-0.5722657 2.853516,1.5566404 1.449219,1.451172 4.121093,-0.386719 0.160157,-1.599609 1.36914,-1.953125 z" /><g
         inkscape:groupmode="layer"
         id="layer1"
         inkscape:label="Walls"
         style="display:inline"><path
           style="fill:#a6a6a6;fill-opacity:1;stroke:#a6a6a6;stroke-width:1;stroke-linejoin:round;stroke-dasharray:none;stroke-opacity:1;paint-order:fill markers stroke"
           d="M 33.410156,45 V 33.000003 h 3.179688 L 36.589797,45 Z"
           id="path1"
           transform="translate(-78.03906,1.849609)" /><path
           style="fill:#a6a6a6;fill-opacity:1;stroke:#a6a6a6;stroke-width:1;stroke-linejoin:round;stroke-dasharray:none;stroke-opacity:1;paint-order:fill markers stroke"
           d="m -28.558591,45.345703 -2.9375,0.572265 v -11.9994 l 2.9375,-0.572609 z"
           id="path2"
           sodipodi:nodetypes="ccccc" /><path
           style="fill:#a6a6a6;fill-opacity:1;stroke:#a6a6a6;stroke-width:1;stroke-linejoin:round;stroke-dasharray:none;stroke-opacity:1;paint-order:fill markers stroke"
           d="m -20.121091,30.692466 2.248047,-1.057904 v 12.000203 l -2.248047,1.056641 z"
           id="path3"
           sodipodi:nodetypes="ccccc" /><path
           style="fill:#a6a6a6;fill-opacity:1;stroke:#a6a6a6;stroke-width:1;stroke-linejoin:round;stroke-dasharray:none;stroke-opacity:1;paint-order:fill markers stroke"
           d="m -12.236326,25.663973 1.216797,-1.382352 0.002,11.999629 -1.218821,1.382812 z"
           id="path5"
           sodipodi:nodetypes="ccccc" /><path
           style="display:inline;fill:#a6a6a6;fill-opacity:1;stroke:#a6a6a6;stroke-width:1;stroke-linejoin:round;stroke-dasharray:none;stroke-opacity:1;paint-order:fill markers stroke"
           d="m -57.519482,45.345703 2.9375,0.572265 v -11.9994 l -2.9375,-0.572609 z"
           id="path2-5"
           sodipodi:nodetypes="ccccc" /><path
           style="display:inline;fill:#a6a6a6;fill-opacity:1;stroke:#a6a6a6;stroke-width:1;stroke-linejoin:round;stroke-dasharray:none;stroke-opacity:1;paint-order:fill markers stroke"
           d="m -65.956982,30.692466 -2.248047,-1.057904 v 12.000203 l 2.248047,1.056641 z"
           id="path3-0"
           sodipodi:nodetypes="ccccc" /><path
           style="display:inline;fill:#a6a6a6;fill-opacity:1;stroke:#a6a6a6;stroke-width:1;stroke-linejoin:round;stroke-dasharray:none;stroke-opacity:1;paint-order:fill markers stroke"
           d="m -73.8417,37.664062 -4.7e-5,-12.000089 -1.216797,-1.382352 -0.002,11.999629 1.218797,1.382812"
           id="path5-8" /></g><path
         id="path4"
         style="display:inline;fill:#c0c0c0;fill-opacity:1;stroke:#c0c0c0;stroke-width:1;stroke-linejoin:round;stroke-dasharray:none;stroke-opacity:1;paint-order:fill markers stroke"
         d="m -59.535154,9.010454 -2.519531,-1.079045 -3.902344,-0.924631 -2.248047,1.057904 1.964844,1.836397 2.292969,1.185661 -2.333985,1.643385 -3.205078,-0.5432 -4.355468,-0.151654 -1.216797,1.382353 3.308594,1.342831 3.082031,0.681985 -0.820313,1.939338 -3.402343,0.07537 -4.148438,0.644301 v 1.496324 l 4.148438,0.644301 3.402343,0.07537 0.820313,1.938419 -3.083985,0.682904 -3.308593,1.342831 1.216797,1.382353 4.357421,-0.151654 3.205078,-0.5432 2.333985,1.643406 -2.292969,1.185662 -1.964844,1.836397 2.248047,1.057904 3.902344,-0.924632 2.519531,-1.079045 3.492188,1.098346 -1.154297,1.508272 -0.322266,2.049631 2.9375,0.572612 2.853516,-1.556985 1.449219,-1.450368 4.121093,0.386007 0.160157,1.601103 1.36914,1.952205 h 3.179688 l 1.36914,-1.952205 0.160157,-1.601103 4.11914,-0.386007 1.451172,1.451287 2.853516,1.556984 2.9375,-0.572609 -0.322266,-2.050552 -1.154297,-1.508272 3.492188,-1.098346 2.519531,1.079045 3.902344,0.924632 2.248047,-1.057904 -1.964844,-1.836397 -2.292969,-1.185662 2.333985,-1.643383 3.205078,0.543199 4.355468,0.151654 1.216797,-1.382352 -3.308593,-1.342833 -3.082032,-0.681985 0.820313,-1.93936 3.402343,-0.07537 4.148437,-0.6443 v -1.496325 l -4.148437,-0.6443 -3.402343,-0.07537 -0.820313,-1.938397 3.083985,-0.682904 3.308593,-1.342831 -1.216796,-1.382352 -4.357422,0.151654 -3.205078,0.543199 -2.333985,-1.643406 2.292969,-1.185662 1.964844,-1.836397 -2.248047,-1.057904 -3.902344,0.924631 -2.519531,1.079045 -3.492188,-1.098346 1.154297,-1.508273 0.322266,-2.049631 -2.9375,-0.572611 -2.853516,1.556986 -1.449219,1.450367 -4.121093,-0.386027 -0.160157,-1.601103 -1.36914,-1.952207 h -3.179688 l -1.36914,1.952207 -0.160157,1.601103 -4.11914,0.386029 -1.451172,-1.451287 -2.853516,-1.556986 -2.9375,0.572612 0.322266,2.05055 1.154297,1.508272 z"
         sodipodi:nodetypes="ccccccccccccccccccccccccccccccccccccccccccccccccccccccccccccccccccccccccccccccccccccccccccccccccc"
         inkscape:label="teeth" /><path
         id="path4-9-3"
         style="display:inline;fill:#000000;fill-opacity:0;stroke:#2a2a2a;stroke-width:2;stroke-linejoin:round;stroke-dasharray:none;stroke-opacity:1;paint-order:fill markers stroke"
         inkscape:label="teeth border"
         d="m -45.629216,2.849609 -1.36914,1.953125 -0.160158,1.5996094 -3.118827,0.3867187 -1.451172,-1.4511718 -2.853516,-1.5566407 -3.937812,0.5722657 v 4.0234375 l -1.015313,0.6328125 -2.519531,-1.078125 -3.902344,-0.9257813 -3.24836,1.0585938 v 4.3398442 l -0.280937,-0.216797 -4.355468,-0.152344 -2.21711,1.382812 h -0.002 v 4.376954 l -0.978204,0.30664 v 13.496094 l 0.978227,0.306641 v 4.376953 l 2.217085,1.382812 4.357422,-0.152344 0.280961,-0.216796 v 4.339843 l 3.248336,1.056641 3.902344,-0.923828 2.519531,-1.078125 1.015336,0.632812 v 4.023438 l 3.937789,0.572265 2.853516,-1.55664 1.449219,-1.451172 3.120804,0.386719 0.160157,1.599609 1.36914,1.953125 h 5.180336 l 1.36914,-1.953125 0.160158,-1.599609 3.11878,-0.386719 1.451172,1.451172 2.853516,1.55664 3.937859,-0.572265 v -4.023438 l 1.015266,-0.632812 2.519531,1.078125 3.902344,0.923828 3.248407,-1.056641 v -4.339843 l 0.28089,0.216796 4.355468,0.152344 2.217156,-1.382812 h 0.002 V 31.904297 L -9.03906,31.597656 V 18.101562 l -0.97818,-0.30664 v -4.376954 l -2.217133,-1.382812 -4.357421,0.152344 -0.280914,0.216797 V 8.0644528 l -3.248383,-1.0585938 -3.902344,0.9257813 -2.519531,1.078125 -1.015289,-0.6328125 V 4.3535153 l -3.937836,-0.5722657 -2.853516,1.5566407 -1.449219,1.4511718 -3.120757,-0.3867187 -0.160157,-1.5996094 -1.36914,-1.953125 z"
         sodipodi:nodetypes="ccccccccccccccccccccccccccccccccccccccccccccccccccccccccccccccccccccccccccc" /><ellipse
         style="display:inline;fill:#808080;fill-opacity:1;stroke:none;stroke-width:1.94073;stroke-linejoin:round;stroke-dasharray:none;stroke-opacity:0;paint-order:fill markers stroke"
         id="path8-0-7"
         cx="-43.039059"
         cy="18.849607"
         rx="23.5"
         ry="11.058824"
         inkscape:label="circle" /><path
         id="path7-9-6"
         style="display:inline;fill:#c0c0c0;fill-opacity:1;stroke:none;stroke-width:3.88938;stroke-linejoin:round;stroke-dasharray:none;stroke-opacity:0;paint-order:fill markers stroke"
         d="m -43.03906,7.0849033 c -5.108634,0 -9.25,1.948878 -9.25,4.3529407 0.0093,0.777705 0.461134,1.540039 1.308594,2.207721 l -3.09961,1.458639 c -1.425699,-0.397333 -3.052024,-0.607156 -4.708984,-0.607537 -5.108634,0 -9.25,1.948878 -9.25,4.352941 0,2.404064 4.141366,4.352942 9.25,4.352942 1.650692,-0.0061 3.267826,-0.220024 4.683594,-0.619485 l 3.107422,1.462316 c -0.844333,0.670917 -1.290207,1.436246 -1.291016,2.215993 0,2.404063 4.141366,4.352941 9.25,4.352941 5.108634,0 9.25,-1.948878 9.25,-4.352941 -0.0093,-0.777705 -0.461134,-1.540039 -1.308594,-2.207721 l 3.09961,-1.45864 c 1.425699,0.397333 3.052024,0.607156 4.708984,0.607537 5.108634,0 9.25,-1.948878 9.25,-4.352942 0,-2.404062 -4.141366,-4.35294 -9.25,-4.35294 -1.650692,0.0061 -3.267826,0.220024 -4.683594,0.619485 l -3.107422,-1.462316 c 0.844333,-0.670918 1.290207,-1.436247 1.291016,-2.215993 0,-2.4040627 -4.141366,-4.3529407 -9.25,-4.3529407 z"
         sodipodi:nodetypes="sccccsccccsccccsccccs"
         inkscape:label="clover" /><path
         id="path5-8-9"
         style="display:inline;fill:#595959;fill-opacity:1;stroke:none;stroke-width:2.1828;stroke-linejoin:round;stroke-dasharray:none;stroke-opacity:0;paint-order:fill markers stroke"
         d="m -43.03906,8.6143143 c -3.451774,0 -6.25,1.316813 -6.25,2.9411767 2.34e-4,0.71238 0.549892,1.400515 1.546875,1.93658 l 1.703125,0.88695 v 3.058822 h -6.5 l -1.884766,-0.801469 c -1.13914,-0.469169 -2.601426,-0.727831 -4.115234,-0.727941 -3.451774,0 -6.25,1.316811 -6.25,2.941175 0,1.624364 2.798226,2.941176 6.25,2.941176 1.513808,-1.1e-4 2.976094,-0.258772 4.115234,-0.727941 l 1.884766,-0.801469 h 6.5 v 3.058822 l -1.703125,0.88695 c -0.996983,0.536065 -1.546641,1.2242 -1.546875,1.93658 0,1.624364 2.798226,2.941176 6.25,2.941176 3.451774,0 6.25,-1.316812 6.25,-2.941176 -2.34e-4,-0.71238 -0.549892,-1.400515 -1.546875,-1.93658 l -1.703125,-0.88695 v -3.058822 h 6.5 l 1.884766,0.801469 c 1.13914,0.469169 2.601426,0.727831 4.115234,0.727941 3.451774,0 6.25,-1.316812 6.25,-2.941176 0,-1.624364 -2.798226,-2.941175 -6.25,-2.941175 -1.513808,1.1e-4 -2.976094,0.258772 -4.115234,0.727941 l -1.884766,0.801469 h -6.5 v -3.058822 l 1.703125,-0.88695 c 0.996983,-0.536065 1.546641,-1.2242 1.546875,-1.93658 0,-1.6243637 -2.798226,-2.9411767 -6.25,-2.9411767 z"
         inkscape:label="Hole" /></g></g></svg>
