<?xml version="1.0" encoding="UTF-8"?>
<!-- Created with Inkscape (http://www.inkscape.org/) -->
<svg width="420" height="30" version="1.1" viewBox="0 0 420 30" xml:space="preserve" xmlns="http://www.w3.org/2000/svg"><g stroke-linecap="round" stroke-linejoin="round"><path d="m77.92 1.9883c-0.79169 0.055237-1.3241 1.1311-0.57031 1.7715 1.8147 1.4163 3.9327 2.3173 6.0488 3.1758 4.1155 1.5433 10.49 3.0645 19.602 3.0645 9.1111 0 15.972-1.5192 20.566-3.0508 2.4387-0.78363 4.7813-1.8228 6.9883-3.1172 1.0196-0.67929 0.15851-2.244-0.96094-1.7461 0 0-8.742 3.9141-26.594 3.9141-8.9259 0-15.093-0.99211-19.008-1.9707-3.9144-0.9786-5.4961-1.8984-5.4961-1.8984-0.19782-0.11387-0.39347-0.15532-0.57617-0.14258zm66.137 2c-0.9088 0.055237-1.5176 1.1311-0.65234 1.7715 2.083 1.4163 4.5143 2.3173 6.9434 3.1758 4.7242 1.5433 12.041 3.0645 22.5 3.0645s18.335-1.5192 23.609-3.0508c2.7994-0.78363 5.4881-1.8228 8.0215-3.1172 1.1704-0.67929 0.18151-2.244-1.1035-1.7461 0 0-10.035 3.9141-30.527 3.9141-10.246 0-17.325-0.99211-21.818-1.9707-4.4934-0.9786-6.3106-1.8984-6.3106-1.8984-0.22708-0.11387-0.45239-0.15532-0.66211-0.14258zm70.518 0.39844c-0.15425-0.00754-0.32279 0.076008-0.50781 0.27539-0.70629 0.76109-1.0654 1.547-1.0664 2.3379 0 0.65092 0.24028 1.2849 0.69336 1.8965 0.32833 0.44318 0.98252 0.42763 1.373 0.037109l1.3457-1.3457c0.39052-0.39052 0.33109-0.95502-0.0879-1.3145-0.48971-0.42012-0.8436-0.83128-1.0586-1.2227-0.2131-0.38801-0.43432-0.65149-0.6914-0.66406zm58.861 0.03125c-0.27618 0.00938-0.52482 0.26825-0.74219 0.6582-0.21941 0.39361-0.55786 0.79605-1.0156 1.1992-0.41422 0.36482-0.47258 0.92979-0.082 1.3203l1.3379 1.3379c0.39053 0.39052 1.0447 0.4061 1.373-0.037109 0.453-0.61156 0.69333-1.2456 0.69333-1.8965-2e-3 -0.77893-0.35251-1.5524-1.0391-2.3027-0.18359-0.20064-0.35969-0.28493-0.52539-0.2793zm12.32 3.3789c-0.5538 0.00135-1.1428 0.1624-1.5859 0.50391-0.44316 0.3415-1.1617 1.2937-1.1699 2.6992 0 0.64049 0.25032 1.2654 0.72016 1.8681 0.33911 0.43501 1.0007 0.41098 1.3912 0.02045l1.8182-1.8182c0.39053-0.39052 0.35995-1.0241 0.15106-1.5325-0.0291-0.07094-0.053-0.14216-0.0709-0.21368-0.10655-0.42489-0.48921-1.5292-1.2539-1.5273zm56.488 0c-0.7647-0.00187-1.1474 1.1024-1.2539 1.5273-0.0179 0.071529-0.0418 0.14276-0.0709 0.2137-0.20888 0.50838-0.23945 1.1419 0.15108 1.5325l1.8182 1.8182c0.39053 0.39052 1.0522 0.41453 1.3913-0.02051 0.4698-0.60271 0.7201-1.2276 0.7201-1.8681-8e-3 -1.4055-0.72676-2.3577-1.1699-2.6992-0.44316-0.3415-1.0321-0.50256-1.5859-0.50391zm-122.02 0.7832c-0.43914-0.029392-0.91999 0.11922-1.2129 0.41211l-1.5781 1.5781c-0.39053 0.39052-0.31262 0.92016 0.1875 1.1543 1.9001 0.88956 4.3284 1.6726 7.1445 2.3203 0.53821 0.12379 1.2931-0.09971 1.6836-0.49023l1.959-1.959c0.39052-0.39052 0.2657-0.78029-0.27735-0.88086-3.0533-0.56545-5.5371-1.2755-7.4902-2.0449-0.12845-0.050604-0.26964-0.080046-0.41602-0.089844zm47.566 0.00781c-0.14642 0.00971-0.28946 0.039381-0.41797 0.089844-1.9732 0.77482-4.4707 1.4768-7.498 2.0352-0.5431 0.10018-0.66786 0.49034-0.27734 0.88086l1.9609 1.9609c0.39052 0.39052 1.1454 0.61403 1.6836 0.49023 2.8161-0.64772 5.2444-1.4308 7.1445-2.3203 0.50011-0.23413 0.57803-0.76377 0.1875-1.1543l-1.5703-1.5703c-0.29289-0.29289-0.77363-0.44124-1.2129-0.41211zm90.213 1.4121c-0.55228 0-1 0.44772-1 1s0.44772 1 1 1 1-0.44772 1-1-0.44772-1-1-1zm50 0c-0.55228 0-1 0.44772-1 1s0.44772 1 1 1 1-0.44772 1-1-0.44772-1-1-1zm-175.38 1.3848-2.8008 2.8008c-0.39052 0.39052-0.26523 0.7776 0.28125 0.85742 3.9022 0.56993 8.2744 0.91029 12.904 0.95312 0.55225 0.0051 1.4477 0.0051 2 0 4.6299-0.04283 9.0021-0.3832 12.904-0.95312 0.54647-0.07982 0.67177-0.4669 0.28125-0.85742l-2.0918-2.0918c-0.39052-0.39052-1.1518-0.65469-1.7012-0.59766-2.8089 0.29162-5.9361 0.47098-9.3926 0.5-0.55225 0.0046-1.4477 0.0046-2 0-3.4815-0.02929-6.5998-0.2115-9.3906-0.50195-0.5493-0.05717-0.99415-0.10937-0.99415-0.10938zm56.687 1.3126-1.7362 1.7362c-0.39053 0.39052-0.31122 0.91682 0.18948 1.1498 2.2084 1.0274 5.0665 1.9296 8.4686 2.6401 0.54061 0.1129 0.88326-0.24052 0.76335-0.77963l-0.53451-2.4032c-0.11991-0.53911-0.65332-1.0773-1.1882-1.2147-1.6687-0.42853-3.1312-0.90503-4.3461-1.4201-0.5084-0.21553-1.2259-0.09906-1.6165 0.29147zm47.778-0.29242c-1.34 0.5652-2.9865 1.0817-4.8685 1.5411-0.53651 0.13094-1.0706 0.66493-1.1903 1.2041l-0.52764 2.3776c-0.11965 0.53917 0.22379 0.8957 0.76531 0.7872 3.6173-0.7248 6.6652-1.6571 8.9844-2.7323 0.50099-0.23226 0.5803-0.75855 0.18977-1.1491l-1.7362-1.7362c-0.39053-0.39052-1.1081-0.50702-1.6169-0.29242zm16.92-0.40492c-0.55228 0-1 0.44772-1 1s0.44772 1 1 1 1-0.44772 1-1-0.44772-1-1-1zm-55.496 3.2559 1.9648 2.9472c0.30635 0.45953 0.99796 0.89516 1.5456 0.9666 3.4296 0.44733 7.124 0.73996 10.986 0.8141 0.55214 0.0106 1.4297-0.01314 1.9608-0.02287l-3.3632-3.3632c-0.39053-0.39052-1.1545-0.72481-1.7061-0.75274-3.9942-0.20225-7.7109-0.62942-10.961-1.2312-0.54304-0.10056-0.73342 0.18256-0.42707 0.64208zm29.981-0.53026c-3.6964 0.65029-7.9634 1.0842-12.519 1.217-0.55204 0.0161-0.68311 0.34078-0.29258 0.7313l2.4354 2.4354c0.39053 0.39052 1.1542 0.68317 1.7054 0.64848 1.9321-0.1216 3.8089-0.28791 5.6094-0.50618 0.54826-0.06646 1.2402-0.49915 1.5466-0.95871l1.9435-2.9159c0.30631-0.45956 0.11502-0.7471-0.42891-0.65141zm25.515 1.2744c-0.55228 0-1 0.44772-1 1s0.44772 1 1 1 1-0.44772 1-1-0.44772-1-1-1zm16 6c-0.55228 0-1 0.44772-1 1s0.44772 1 1 1 1-0.44772 1-1-0.44772-1-1-1z" color="#000000" fill="#9f0" fill-opacity=".75" style="-inkscape-stroke:none"/><path d="m396 21 0.5 1.5 1.5 0.5m-8-2 2 2m22-10-2-1m-4 7 1-1 3-1m-12 2 4 2m-24 1h6m-12-1 2 1m-12-1 2-0.5 2-1.5m-10-2 2 1m44-9-2-1m-10-1h4m-10 0h2m-8 0h2m-10 0h4m-14 2 4-1m-32-3-4-1m10 3-2-1m-44-1 4-1m-10 3 2-1m-22-3 2 1m-52 0 2-1m-18-2 2 1m-60 0 2-1" fill="none" stroke="#9f0" stroke-opacity=".75" stroke-width="2"/></g></svg>
