<?xml version="1.0" encoding="UTF-8"?>
<!-- Created with Inkscape (http://www.inkscape.org/) -->
<svg width="82" height="158" version="1.1" viewBox="0 0 82 158" xml:space="preserve" xmlns="http://www.w3.org/2000/svg" xmlns:xlink="http://www.w3.org/1999/xlink"><defs><linearGradient id="a"><stop stop-color="#f90" offset="0"/><stop stop-color="#c60" offset="1"/></linearGradient><linearGradient id="e" x1="10" x2="33" y1="59.999" y2="59.999" gradientUnits="userSpaceOnUse" xlink:href="#a"/><linearGradient id="d" x1="39.625" x2="63" y1="59.812" y2="59.999" gradientUnits="userSpaceOnUse" xlink:href="#a"/><linearGradient id="c" x1="52" x2="75" y1="47.999" y2="47.998" gradientUnits="userSpaceOnUse" xlink:href="#a"/><linearGradient id="b" x1="22" x2="45" y1="47.999" y2="47.999" gradientUnits="userSpaceOnUse" xlink:href="#a"/></defs><g transform="translate(0,-9.712e-4)"><g transform="translate(0,9.712e-4)"><g transform="translate(0,-9.712e-4)"><path d="m1 101h60l20-20v-35.413l-58.5-1.087-21.5 21.5v35" fill="#f90"/><path d="m80 46.587-19.414 19.414 1.414 33.999 18-18" fill="#c60"/></g></g><path d="m62 64.586-1.414 1.414v35l1.414-2z" fill="#960"/><path d="M 60.586,66.000971 1,66 22.5,44.5 81,45.586971" fill="#ff9" stroke-opacity="0"/><g fill="#c60" stroke-opacity="0"><path d="m33 69h12v8h3l-6 6-6-6h3v-2h-6v-6"/><path d="m45 85v12h-8v3l-6-6 6-6v3h2v-6h6"/><path d="m29 97h-12v-8h-3l6-6 6 6h-3v2h6v6"/><path d="m17 81v-12h8v-3l6 6-6 6v-3h-2v6h-6"/></g><g transform="translate(0,9.712e-4)"><path d="m33.5 37.999a11 4 0 0 0-11 4v6a11 4 0 0 0 11 4 11 4 0 0 0 11-4v-6a11 4 0 0 0-11-4z" fill="url(#b)"/><ellipse cx="33.5" cy="41.998" rx="10.75" ry="3.75" fill="#ff9"/><path d="m63.5 37.998a11 4 0 0 0-11 4v6a11 4 0 0 0 11 4 11 4 0 0 0 11-4v-6a11 4 0 0 0-11-4z" fill="url(#c)"/><ellipse cx="63.5" cy="41.997" rx="10.75" ry="3.75" fill="#ff9"/><path d="m21.5 50a11 4 0 0 0-11 4v6a11 4 0 0 0 11 4 11 4 0 0 0 11-4v-6a11 4 0 0 0-11-4z" fill="url(#e)"/><ellipse cx="21.5" cy="53.999" rx="10.75" ry="3.75" fill="#ff9"/><path d="m51.5 49.999a11 4 0 0 0-11 4v6a11 4 0 0 0 11 4 11 4 0 0 0 11-4v-6a11 4 0 0 0-11-4z" fill="url(#d)"/><ellipse cx="51.5" cy="53.998" rx="10.75" ry="3.75" fill="#ff9"/></g></g><path d="m33.5 37c-6.7959-2.6e-5 -12 2.0627-12 5v3.0781l-4.2168 4.2168c-1.6565 0.24042-7.7832 1.356-7.7832 4.7051v3.082l-8.5 8.502v35.416h60l20-20v-35.414l-5.5 2e-3v-3.5879c0-2.9374-5.2044-5-12-5-6.1418 0-12 1.7948-12 5v3.5859h-6v-3.5859c0-2.9374-5.2044-5-12-5z" color="#000000" fill-opacity="0" stroke="#2a2a2a" stroke-width="2"/><path d="m68 90.999v-14l8-8v14" fill="#630"/><path d="m69.414 87.585v-10l5.172-5.172v10" fill="#5a635a"/><path d="m74.586 81h-5.172v6.585l5.172-5.172" fill="#f66" stroke-width="2"/></svg>
