<?xml version="1.0" encoding="UTF-8"?>
<!-- Created with Inkscape (http://www.inkscape.org/) -->
<svg width="82" height="158" version="1.1" viewBox="0 0 82 158" xml:space="preserve" xmlns="http://www.w3.org/2000/svg"><g><g><path d="m32 110 22-32.001h-32l-22 22" fill="#8c8c8c" stroke-opacity="0"/><path d="m24.586 156h6l20.414-20.414v-6.586h-6v-28h-20.414z" fill="#3f3f3f"/><g><path d="m50 130-7.4141 7.4141v7.586l7.4141-7.4141z" fill="#595959" style="paint-order:normal"/><path d="m36.586 137.41h6l7.4141-7.4141h-6l-7.4141 7.4141z" fill="#6b6b6b" style="paint-order:normal"/><path d="m44 112.45-7.4141 7.5938v17.369l7.4141-7.4141v-17.549z" fill="#595959" style="paint-order:normal"/><path d="m36.613 120.02 7.3867-7.5664 2-0.44922 4-8.9961c-0.85912-3.046-1.9688-6.0142-3-9.0049l-12.229 7.001 2.8145 3.4141c1.1396 1.8819 1.7559 4.5391 1.7559 6.5859 0.0224 1.9038-0.04213 5.7467-2.7285 9.0156z" fill="#4d4d4d" style="paint-order:normal"/></g><path d="m33 145v-21.279l3.6017-3.6904-0.015708 17.383h6l3e-6 7.586" fill="#313131"/><g><path d="m39 141-8.4141 8.4141v7.586l8.4141-8.4141z" fill="#595959" style="paint-order:normal"/><path d="m33 141-8.4141 8.4141h6l8.4141-8.4141h-6z" fill="#6b6b6b" style="paint-order:normal"/><path d="m33.01 123.71-6.4238 6.5801v17.127l6.4141-6.4141 0.009766-17.293z" fill="#595959" style="paint-order:normal"/><path d="m33.016 101h-8.0156l1.5859 29.287 6.4238-6.5801c2.495-3.4135 4.3838-6.4013 4.3984-10.777 0-3.3288-0.53452-4.9284-1.4824-6.8555l-2.9102-5.0742z" fill="#4d4d4d" style="paint-order:normal"/></g><path d="m32 110v-10.001l22-22v10.001" fill="#595959" style="paint-order:normal"/><rect x="1" y="101" width="30" height="8" fill="#868686" stroke="#6b6b6b" stroke-linecap="square" stroke-width="2"/><g><path d="m30.586 148.41h-5v-18.545c2.8088-2.7194 4.4005-6.4577 4.4141-10.367 0-8.0081-6.4919-14.5-14.5-14.5s-14.5 6.4919-14.5 14.5v37.5h29.586" fill="#868686" stroke="#6b6b6b" stroke-width="2"/><g transform="translate(1.5,3.5)" fill-opacity="0" stroke="#474747"><circle cx="14" cy="116" r="7" stroke-width="2"/><circle cx="14" cy="116" r="3" stroke-width="2"/><path d="m14 122v24" stroke-width="4"/><g stroke-width="2"><path d="m10 145h8"/><path d="m10 141h8.0039"/><path d="m10 137.03 8-0.0312"/><path d="m10 133h8"/></g></g></g></g></g><path d="m22 77.999-21 21.583v9.4176h4.1094v0.41211c-2.6333 2.6933-4.0978 6.3034-4.1094 10.088v37.5h30l9-9v-3h3l8-8v-8h-6v-16c2.8088-2.7194 4.4005-6.4577 4.4141-10.367 0-2.4948-0.6306-4.8426-1.7402-6.8926l5.3262-5.3262v-11.414z" fill-opacity="0" stroke="#2a2a2a" stroke-width="2"/></svg>
