<?xml version="1.0" encoding="UTF-8"?>
<!-- Created with Inkscape (http://www.inkscape.org/) -->
<svg width="384" height="110" version="1.1" viewBox="0 0 384 110" xml:space="preserve" xmlns="http://www.w3.org/2000/svg"><g transform="translate(-192)"><g transform="translate(334.04 36.184)"><path d="m-41.449 28.85 1.3691 1.9531 0.16016 1.5996 4.1191 0.38672 1.4512-1.4512 2.8535-1.5566 2.9375 0.57226v4.0234l2.0156 0.63281 2.5195-1.0781 3.9023-0.92578 2.248 1.0586v4.3398l1.2812-0.2168 4.3555-0.15234 1.2168 1.3828h2e-3v4.377l1.9785 0.30664v13.496l-1.9785 0.30664v4.377l-1.2168 1.3828-4.3574-0.15234-1.2812-0.2168v4.3398l-2.248 1.0566-3.9023-0.92383-2.5195-1.0781-2.0156 0.63281v4.0234l-2.9375 0.57226-2.8535-1.5566-1.4492-1.4512-4.1211 0.38672-0.16016 1.5996-1.3691 1.9531h-3.1797l-1.3691-1.9531-0.16016-1.5996-4.1191-0.38672-1.4512 1.4512-2.8535 1.5566-2.9375-0.57226v-4.0234l-2.0156-0.63281-2.5195 1.0781-3.9023 0.92383-2.248-1.0566v-4.3398l-1.2812 0.2168-4.3555 0.15234-1.2168-1.3828h-2e-3v-4.377l-1.9785-0.30664v-13.496l1.9785-0.30664v-4.377l1.2168-1.3828 4.3574 0.15234 1.2812 0.2168v-4.3398l2.248-1.0586 3.9023 0.92578 2.5195 1.0781 2.0156-0.63281v-4.0234l2.9375-0.57226 2.8535 1.5566 1.4492 1.4512 4.1211-0.38672 0.16016-1.5996 1.3691-1.9531z" fill="#8c8c8c" stroke-opacity="0" style="paint-order:fill markers stroke"/><g fill="#a6a6a6" stroke="#a6a6a6" stroke-linejoin="round"><path d="m-44.629 72.85v-12h3.1797l-4.7e-5 12z" style="paint-order:fill markers stroke"/><path d="m-28.559 71.346-2.9375 0.57226v-11.999l2.9375-0.57261z" style="paint-order:fill markers stroke"/><path d="m-20.121 56.692 2.248-1.0579v12l-2.248 1.0566z" style="paint-order:fill markers stroke"/><path d="m-12.236 63.664 4.7e-5 -12 1.2168-1.3824 2e-3 12-1.2188 1.3828z" style="paint-order:fill markers stroke"/><path d="m-57.519 59.346v12l2.9375 0.57226v-11.999z" style="paint-order:fill markers stroke"/><path d="m-65.957 56.692-2.248-1.0579v12l2.248 1.0566z" style="paint-order:fill markers stroke"/><path d="m-73.842 51.664-1.2168-1.3824-2e-3 12 1.2188 1.3828z" style="paint-order:fill markers stroke"/></g><path d="m-59.535 35.01-2.5195-1.079-3.9023-0.92463-2.248 1.0579 1.9648 1.8364 2.293 1.1857-2.334 1.6434-3.2051-0.5432-4.3555-0.15165-1.2168 1.3824 3.3086 1.3428 3.082 0.68198-0.82031 1.9393-3.4023 0.07537-4.1484 0.6443v1.4963l4.1484 0.6443 3.4023 0.07537 0.82031 1.9384-3.084 0.6829-3.3086 1.3428 1.2168 1.3824 4.3574-0.15165 3.2051-0.5432 2.334 1.6434-2.293 1.1857-1.9648 1.8364 2.248 1.0579 3.9023-0.92463 2.5195-1.079 3.4922 1.0983-1.1543 1.5083-0.32227 2.0496 2.9375 0.57261 2.8535-1.557 1.4492-1.4504 4.1211 0.38601 0.16016 1.6011 1.3691 1.9522h3.1797l1.3691-1.9522 0.16016-1.6011 4.1191-0.38601 1.4512 1.4513 2.8535 1.557 2.9375-0.57261-0.32227-2.0506-1.1543-1.5083 3.4922-1.0983 2.5195 1.079 3.9023 0.92463 2.248-1.0579-1.9648-1.8364-2.293-1.1857 2.334-1.6434 3.2051 0.5432 4.3555 0.15165 1.2168-1.3824-3.3086-1.3428-3.082-0.68198 0.82031-1.9394 3.4023-0.07537 4.1484-0.6443v-1.4963l-4.1484-0.6443-3.4023-0.07537-0.82031-1.9384 3.084-0.6829 3.3086-1.3428-1.2168-1.3824-4.3574 0.15165-3.2051 0.5432-2.334-1.6434 2.293-1.1857 1.9648-1.8364-2.248-1.0579-3.9023 0.92463-2.5195 1.079-3.4922-1.0983 1.1543-1.5083 0.32227-2.0496-2.9375-0.57261-2.8535 1.557-1.4492 1.4504-4.1211-0.38603-0.16016-1.6011-1.3691-1.9522h-3.1797l-1.3691 1.9522-0.16016 1.6011-4.1191 0.38603-1.4512-1.4513-2.8535-1.557-2.9375 0.57261 0.32227 2.0506 1.1543 1.5083z" fill="#c0c0c0" stroke="#c0c0c0" stroke-linejoin="round" style="paint-order:fill markers stroke"/><path d="m-45.629 28.849-1.3691 1.9531-0.16016 1.5996-3.1188 0.38672-1.4512-1.4512-2.8535-1.5566-3.9378 0.57226v4.0234l-1.0153 0.63281-2.5195-1.0781-3.9023-0.92578-3.2484 1.0586v4.3398l-0.28094-0.2168-4.3555-0.15234-2.2171 1.3828h-2e-3v4.377l-0.9782 0.30664v13.496l0.97823 0.30664v4.377l2.2171 1.3828 4.3574-0.15234 0.28096-0.2168v4.3398l3.2483 1.0566 3.9023-0.92383 2.5195-1.0781 1.0153 0.63281v4.0234l3.9378 0.57226 2.8535-1.5566 1.4492-1.4512 3.1208 0.38672 0.16016 1.5996 1.3691 1.9531h5.1803l1.3691-1.9531 0.16016-1.5996 3.1188-0.38672 1.4512 1.4512 2.8535 1.5566 3.9379-0.57226v-4.0234l1.0153-0.63281 2.5195 1.0781 3.9023 0.92383 3.2484-1.0566v-4.3398l0.28089 0.2168 4.3555 0.15234 2.2172-1.3828h2e-3v-4.377l0.97816-0.30664v-13.496l-0.97818-0.30664v-4.377l-2.2171-1.3828-4.3574 0.15234-0.28091 0.2168v-4.3398l-3.2484-1.0586-3.9023 0.92578-2.5195 1.0781-1.0153-0.63281v-4.0234l-3.9378-0.57226-2.8535 1.5566-1.4492 1.4512-3.1208-0.38672-0.16016-1.5996-1.3691-1.9531z" fill-opacity="0" stroke="#2a2a2a" stroke-linejoin="round" stroke-width="2" style="paint-order:fill markers stroke"/></g><g><path d="m321 63 5e-5 20c2e-5 6.6274-13.431 12-30 12s-30-5.3726-30-12l-5e-5 -20" fill="#808080" stroke="#2a2a2a" stroke-linejoin="round" stroke-width="2" style="paint-order:fill markers stroke"/><path d="m291 31c-16.569-5e-6 -30 14.745-30 28v4c0 3.5534 3.8642 6.7442 10 8.9414v19.969c5.4876 1.9802 12.609 3.0805 20 3.0898 7.3906-0.0094 14.512-1.1096 20-3.0898v-19.969c6.1358-2.1972 10-5.388 10-8.9414v-4c0-13.255-13.431-28-30-28z" fill="#111" stroke="#2a2a2a" stroke-linejoin="round" stroke-width="2" style="paint-order:fill markers stroke"/><path d="m266 85.511-5e-5 -12.011-2-1.489v3l4 3v3l-4-3v3l4 3v3l-2-1.5" style="paint-order:fill markers stroke"/><path d="m316 85.511-5e-5 -12.011 2-1.489v3l-4 3v3l4-3v3l-4 3v3l2-1.5" style="paint-order:fill markers stroke"/><path d="m291 52a15 16 0 0 0-15 16 15 16 0 0 0 15 16 15 16 0 0 0 15-16 15 16 0 0 0-15-16zm-13 14h26v4h-26v-4z" fill="#808080"/><path transform="translate(192)" d="m91 30v6c0 2 3.5817 4 8 4 4.4183 0 8-2 8-4v-6" fill="#2a2a2a" stroke="#2a2a2a" stroke-linejoin="round" stroke-width="2"/><ellipse transform="translate(0 -24)" cx="291" cy="54" rx="8" ry="5" fill="#111" stroke="#2a2a2a" stroke-linecap="square" stroke-linejoin="round" stroke-width="2"/></g><g transform="translate(0 -24)"><path d="m287 41v12l4 2 4-2v-12" fill="#cc0"/><path d="m292 41v13.934l3-1.9336v-12z" fill="#c60"/><path d="m287 41v12c0 1.1046 1.7909 2 4 2s4-0.89543 4-2v-12" fill-opacity="0" stroke="#2a2a2a" stroke-linecap="square" stroke-linejoin="bevel" stroke-width="2"/><path d="m291 33a8 4 0 0 0-8 4v8a8 4 0 0 0 8 4 8 4 0 0 0 8-4v-8a8 4 0 0 0-8-4z" fill="#cc0"/><path d="m294 33.295v15.408a8 4 0 0 0 5-3.7031v-8a8 4 0 0 0-5-3.7051z" fill="#c60"/><path d="m291 33a8 4 0 0 0-8 4v8a8 4 0 0 0 8 4 8 4 0 0 0 8-4v-8a8 4 0 0 0-8-4z" fill-opacity="0" stroke="#2a2a2a" stroke-linecap="square" stroke-width="2"/><path d="m283 37v4e-3c5.2e-4 0.24146 0.0531 0.46023 0.0723 0.53125-4.2805 0.4982-10.854 1.347-12.893 1.9355-0.93241 0.26918-2.4663 0.72259-2.4727 1.8359l-6e-3 -0.0039-0.0137 2.9957c-5e-3 0.59935 0.43663 1.3918 1.6621 2.4531 3.5 3.0313 6.3952 2.1955 7.8301 1.7812 2.1644-0.62485 7.453-3.3463 10.385-4.9277 2.1889 0.52737 4.6945 0.5244 6.8711 0 2.9318 1.5815 8.2204 4.3029 10.385 4.9277 1.4349 0.41424 4.3301 1.25 7.8301-1.7812 1.2255-1.0614 1.6675-1.8538 1.6621-2.4531l-0.0137-2.9937h-6e-3c-8e-3 -1.1119-1.5408-1.565-2.4727-1.834-2.0388-0.58858-8.6121-1.4354-12.893-1.9336 0.0408-0.15049 0.0719-0.3553 0.0723-0.5332v-4e-3z" fill="#cc0" stroke-opacity="0"/><path d="m291 25c-7 0-7 1.6735-7 2.502 0 1.0578 2.3849 3.7837 3.6777 5.8594-2.7594 0.63093-4.6777 2.0224-4.6777 3.6387v2e-3 2e-3c5.2e-4 0.24146 0.0531 0.46023 0.0723 0.53125-4.2805 0.4982-10.854 1.3469-12.893 1.9355-1.4349 0.41424-4.3301 1.25-0.83008 4.2812 3.5 3.0313 6.3952 2.1955 7.8301 1.7812 2.1644-0.62486 7.453-3.3463 10.385-4.9277 2.1889 0.52737 4.6945 0.5244 6.8711 0 2.9318 1.5815 8.2204 4.3029 10.385 4.9277 1.4349 0.41424 4.3301 1.25 7.8301-1.7812 3.5-3.0313 0.60479-3.867-0.83008-4.2812-2.0388-0.58858-8.6121-1.4354-12.893-1.9336 0.0408-0.15049 0.0719-0.3553 0.0723-0.5332v-4e-3c-3e-5 -1.6159-1.9174-3.0075-4.6758-3.6387 1.2917-2.0757 3.6758-4.8017 3.6758-5.8594 0-0.82848-4e-5 -2.502-7-2.502z" fill="#ff0" stroke-opacity="0"/><path d="m291 25c-7 0-7 1.6735-7 2.502 0 1.0578 2.3849 3.7837 3.6777 5.8594-3.7222 0.85108-4.9924 2.742-4.6055 4.1739-4.2805 0.4982-10.854 1.3469-12.893 1.9355-1.4136 0.40811-2.5492 1.9008-2.4785 2.9278l-0.0133 0.898c-5e-3 0.59935 0.43625 2.3921 1.6617 3.4535 3.5 3.0313 6.3952 2.1955 7.8301 1.7812 2.1644-0.62485 7.453-3.3463 10.385-4.9277 2.1889 0.52736 4.6945 0.5244 6.8711 0 2.9318 1.5815 8.2204 4.3029 10.385 4.9277 1.4349 0.41424 4.3301 1.25 7.8301-1.7812 1.2255-1.0614 1.6678-2.8541 1.6625-3.4535l-0.0141-0.898c0.0722-1.0485-1.1196-2.5355-2.4785-2.9278-1.5291-0.44143-5.6092-1.028-9.3594-1.5039-1.25-0.15864-2.4631-0.30514-3.5332-0.42969 0.38662-1.426-0.87278-3.3223-4.6035-4.1759 1.2917-2.0757 3.6758-4.8017 3.6758-5.8594 0-0.82848-4e-5 -2.502-7-2.502z" fill-opacity="0" stroke="#2a2a2a" stroke-linecap="square" stroke-linejoin="round" stroke-width="2"/><ellipse cx="291" cy="37" rx="4" ry="1" fill="#c60"/></g></g><g transform="rotate(45 138.86 354.02)"><path d="m38.597 45.773 2.787-0.25688 1.6821 0.51928 2.9693-2.9693-0.51928-1.6821 0.25688-2.7842 2.4113-1.9998 1.8216 1.0648 1.1905 1.1905 2.8519-1.9211 0.5179-2.3437 1.5413-3.3284 2.4555-1.2816 3.3449 3.3449 0.04834-0.01795 1.4805-2.6489 2.5895-3.3657 2.1282-0.36875 2.9596 2.9596 2.9058-2.5854 1.4764 0.598 11.86 11.863 0.60076 1.4764-2.5867 2.9044 2.961 2.961-0.0014 0.0014-0.36875 2.1282-3.3643 2.5881-2.6489 1.4777-0.01795 0.0511 3.3436 3.3436h0.0028l-1.283 2.4569-3.3298 1.5399-2.3423 0.51928-1.9211 2.8519 1.1905 1.1905 1.0648 1.8216-1.9984 2.41-2.787 0.25688-1.6808-0.5179-2.9693 2.9693 0.5179 1.6808-0.2555 2.7856-2.4113 1.9998-1.8216-1.0648-1.1919-1.1919-2.8505 1.9224-0.51928 2.3423-1.5399 3.3298-2.4569 1.2802-3.3449-3.3449-0.04834 0.01795-1.4791 2.6503-2.5895 3.3657-2.1282 0.36874-2.961-2.961-2.9044 2.5867-1.4777-0.59938 0.0014-0.0014-11.863-11.86 0.0014-0.0014-0.59938-1.475 2.5867-2.9044-2.961-2.961 0.0014-0.0014 0.36874-2.1282 3.3657-2.5895 2.6475-1.4764 0.01795-0.0511-3.3422-3.3422-0.0041-0.0014 0.0014-0.0014 1.2802-2.4569 3.3298-1.5399 2.3451-0.51928 1.9197-2.8505-1.1905-1.1905-1.0648-1.8216z" fill="#8c8c8c" stroke-opacity="0" style="paint-order:fill markers stroke"/><g fill="#a6a6a6" stroke="#a6a6a6" stroke-linejoin="round"><path d="m48.206 76.79 8.4853 8.4839 2.4569-1.2802-8.485-8.4852z" style="paint-order:fill markers stroke"/><path d="m38.616 79.845 2.1289-0.36939 8.486 8.4862-2.1296 0.37013z" style="paint-order:fill markers stroke"/><path d="m58.585 70.171 2.4112-1.9985 8.485 8.4853-2.41 1.9984z" style="paint-order:fill markers stroke"/><path d="m76.79 48.206 8.4839 8.4853-1.2802 2.4569-8.4852-8.485z" style="paint-order:fill markers stroke"/><path d="m79.845 38.616-0.36939 2.1289 8.4862 8.486 0.37013-2.1296z" style="paint-order:fill markers stroke"/><path d="m70.171 58.585-1.9985 2.4112 8.4853 8.485 1.9984-2.41z" style="paint-order:fill markers stroke"/></g><path d="m50.768 39.143-0.76266-1.4793-1.8207-1.0651-2.4112 1.9985-0.2574 2.7875 0.51965 1.6807-2.9703 2.9699-1.6806-0.51971-2.7862 0.25693-1.9987 2.4115 1.065 1.8209 1.4794 0.76192-2.2103 3.2801-2.3425 0.51902-3.3293 1.54-1.2816 2.4573 2.2256 0.57615 2.2134-0.27148-1.1111 3.088-2.6497 1.4797-3.3653 2.5896-0.36934 2.1288 3.0473-0.75525 2.6111-1.2644 0.15505 2.4277-2.5507 2.2135-2.8884 3.244 0.599 1.4761 3.4047-1.9718 2.6111-2.0647 1.3973 1.398-2.0647 2.611-1.9713 3.4034 1.4763 0.5991 3.2441-2.8884 2.2126-2.5502 2.4285 0.15516-1.2641 2.6108-0.75543 3.0469 2.1289-0.36939 2.5888-3.365 1.4786-2.648 3.0885-1.1124-0.27146 2.2147 0.57691 2.2254 2.4572-1.2816 1.5406-3.33 0.51904-2.3428 3.2789-2.2094 0.76266 1.4793 1.8207 1.0651 2.4112-1.9985 0.2574-2.7875-0.51965-1.6807 2.9702-2.9699 1.6806 0.51971 2.7862-0.25693 1.9987-2.4115-1.065-1.8209-1.4794-0.76192 2.2103-3.2801 2.3425-0.51902 3.3293-1.54 1.2816-2.4573-2.2256-0.57615-2.2134 0.27148 1.1111-3.088 2.6497-1.4797 3.3653-2.5896 0.36934-2.1288-3.0473 0.75526-2.6111 1.2644-0.15505-2.4277 2.5507-2.2135 2.8884-3.244-0.599-1.4761-3.4047 1.9718-2.6111 2.0647-1.3973-1.398 2.0647-2.611 1.9713-3.4034-1.4763-0.5991-3.2441 2.8884-2.2126 2.5502-2.4285-0.15519 1.2641-2.6108 0.75543-3.0469-2.1289 0.36939-2.5888 3.365-1.4786 2.648-3.0885 1.1125 0.27146-2.2147-0.57691-2.2254-2.4572 1.2816-1.5406 3.33-0.51904 2.3428z" fill="#c0c0c0" stroke="#c0c0c0" stroke-linejoin="round" style="paint-order:fill markers stroke"/><path d="m45.773 38.597-0.25688 2.787 0.51928 1.6821-2.9693 2.9693-1.6821-0.51928-2.7842 0.25688-2.707 3.1186 1.0648 1.8216 1.1905 1.1905-1.2138 2.1447-2.3437 0.5179-3.3284 1.5413-1.9889 3.1628 3.345 3.3449-0.0179 0.04834-1.9416 0.77326-3.3657 2.5895-1.076 2.8355 2.9596 2.9596-1.8781 2.1985 0.598 1.4764 11.863 11.86 1.4764 0.60076 2.1971-1.8795 2.961 2.961 0.0014-0.0014 2.8355-1.076 2.5881-3.3643 0.7705-1.9416 0.0511-0.01795 3.3436 3.3436v0.0028l3.1642-1.9903 1.5399-3.3298 0.51928-2.3423 2.1447-1.2138 1.1905 1.1905 1.8216 1.0648 3.1172-2.7057 0.25688-2.787-0.5179-1.6808 2.9693-2.9693 1.6808 0.5179 2.7856-0.2555 2.707-3.1185-1.0648-1.8216-1.1919-1.1919 1.2153-2.1433 2.3423-0.51928 3.3298-1.5399 1.9874-3.1641-3.3449-3.3449 0.01795-0.04834 1.9431-0.77194 3.3657-2.5895 1.0759-2.8354-2.961-2.961 1.8796-2.1972-0.59938-1.4777-0.0014 0.0014-11.86-11.863-0.0014 0.0014-1.475-0.59938-2.1971 1.8795-2.961-2.961-0.0014 0.0014-2.8355 1.076-2.5895 3.3657-0.76911 1.9403-0.0511 0.01795-3.3422-3.3422-0.0014-0.0041-0.0014 0.0014-3.1642 1.9875-1.5399 3.3298-0.51928 2.3451-2.1433 1.2124-1.1905-1.1905-1.8216-1.0648z" fill-opacity="0" stroke="#2a2a2a" stroke-linejoin="round" stroke-width="2" style="paint-order:fill markers stroke"/></g><g><path d="m321 63 5e-5 20c2e-5 6.6274-13.431 12-30 12s-30-5.3726-30-12l-5e-5 -20" fill="#808080" stroke="#2a2a2a" stroke-linejoin="round" stroke-width="2" style="paint-order:fill markers stroke"/><path d="m291 31c-16.569-5e-6 -30 14.745-30 28v4c0 3.5534 3.8642 6.7442 10 8.9414v19.969c5.4876 1.9802 12.609 3.0805 20 3.0898 7.3906-0.0094 14.512-1.1096 20-3.0898v-19.969c6.1358-2.1972 10-5.388 10-8.9414v-4c0-13.255-13.431-28-30-28z" fill="#111" stroke="#2a2a2a" stroke-linejoin="round" stroke-width="2" style="paint-order:fill markers stroke"/><path d="m266 85.511-5e-5 -12.011-2-1.489v3l4 3v3l-4-3v3l4 3v3l-2-1.5" style="paint-order:fill markers stroke"/><path d="m316 85.511-5e-5 -12.011 2-1.489v3l-4 3v3l4-3v3l-4 3v3l2-1.5" style="paint-order:fill markers stroke"/><path d="m291 52a15 16 0 0 0-15 16 15 16 0 0 0 15 16 15 16 0 0 0 15-16 15 16 0 0 0-15-16zm-13 14h26v4h-26z" fill="#808080"/><path transform="translate(192)" d="m91 30v6c0 2 3.5817 4 8 4 4.4183 0 8-2 8-4v-6" fill="#2a2a2a" stroke="#2a2a2a" stroke-linejoin="round" stroke-width="2"/><ellipse transform="translate(0 -24)" cx="291" cy="54" rx="8" ry="5" fill="#111" stroke="#2a2a2a" stroke-linecap="square" stroke-linejoin="round" stroke-width="2"/></g><g transform="translate(0 -24)"><path d="m287 41v12l4 2 4-2v-12" fill="#cc0"/><path d="m292 41v13.934l3-1.9336v-12z" fill="#c60"/><path d="m287 41v12c0 1.1046 1.7909 2 4 2s4-0.89543 4-2v-12" fill-opacity="0" stroke="#2a2a2a" stroke-linecap="square" stroke-linejoin="bevel" stroke-width="2"/><path d="m291 33a8 4 0 0 0-8 4v8a8 4 0 0 0 8 4 8 4 0 0 0 8-4v-8a8 4 0 0 0-8-4z" fill-opacity="0" stroke="#2a2a2a" stroke-linecap="square" stroke-width="2"/><g><path d="m274.53 28.041c-1.4338 0.02125-3.211 0.50194-5.1797 2.207-1.2218 1.0582-1.6612 1.8472-1.6582 2.4453l0.0176 3c6e-3 1.1133 1.5388 1.5668 2.4711 1.8359 2.0388 0.5886 8.6121 1.4373 12.893 1.9355-0.0192 0.07102-0.0718 0.2898-0.0723 0.53125v4e-3c0 1.2533 1.1621 2.3664 2.9668 3.0996-1.0187 1.4041-1.9668 2.7349-1.9668 3.3984v3c0 0.82848 5e-5 2.502 7 2.502 6.9999 0 7-1.6735 7-2.502v-3c0-0.66356-0.94851-1.9941-1.9668-3.3984 1.8047-0.73332 2.9664-1.8462 2.9664-3.0997v-4e-3c-4e-4 -0.1779-0.0315-0.38271-0.0723-0.5332 4.2805-0.4982 10.854-1.345 12.893-1.9336 0.93286-0.26931 2.468-0.72321 2.4727-1.8379l0.0161-2.996c4e-3 -0.59849-0.43567-1.3881-1.6586-2.4473-3.5-3.0313-6.3952-2.1955-7.8301-1.7812-2.1644 0.62485-7.453 3.3463-10.385 4.9277-2.1766-0.5244-4.6822-0.52737-6.8711 0-2.9318-1.5815-8.2204-4.3029-10.385-4.9277-0.62776-0.18123-1.5352-0.44231-2.6504-0.42578z" fill="#cc0"/><path d="m291 49c-7 0-7-1.6735-7-2.502 0-1.0578 2.3849-3.7837 3.6777-5.8594-2.7594-0.63093-4.6777-2.0224-4.6777-3.6387-1e-5 -6.45e-4 0-0.0013 0-2e-3 0-6.48e-4 -1e-5 -0.0013 0-2e-3 5.2e-4 -0.24146 0.0531-0.46023 0.0723-0.53125-4.2805-0.4982-10.854-1.3469-12.893-1.9355-1.4349-0.41424-4.3301-1.25-0.83008-4.2813 3.5-3.0313 6.3952-2.1955 7.8301-1.7812 2.1644 0.62486 7.453 3.3463 10.385 4.9277 2.1889-0.52737 4.6945-0.52441 6.8711 0 2.9318-1.5815 8.2203-4.3029 10.385-4.9277 1.4349-0.41424 4.3301-1.25 7.8301 1.7812 3.5 3.0313 0.60479 3.867-0.83008 4.2813-2.0388 0.58858-8.6121 1.4354-12.893 1.9336 0.0408 0.15049 0.0719 0.3553 0.0723 0.5332v4e-3c-4e-5 1.6159-1.9174 3.0075-4.6758 3.6387 1.2917 2.0757 3.6758 4.8017 3.6758 5.8594 0 0.82848-4e-5 2.502-7 2.502z" fill="#ff0" stroke-opacity="0"/><ellipse cx="291" cy="37" rx="4" ry="1" fill="#c60"/></g><path d="m274.53 28.041c-1.4338 0.02125-3.211 0.50194-5.1797 2.207-1.2218 1.0582-1.6612 2.847-1.6582 3.4451l0.0174 0.99998c6e-3 1.1133 1.539 2.567 2.4714 2.8361 2.0388 0.5886 7.612 1.437 11.893 1.9352-0.0192 0.07102-0.0723 0.28979-0.0723 0.53125v4e-3c0 1.2533 1.1621 2.3664 2.9668 3.0996-1.0187 1.4041-1.9668 2.7349-1.9668 3.3984v3c0 0.82848 1.0001 2.5023 8.0001 2.5023 6.9999 0 7.9999-1.6735 7.9999-2.502v-3c0-0.66356-0.94851-1.9941-1.9668-3.3984 1.8047-0.73332 2.9664-1.8462 2.9664-3.0997v-4e-3c0-0.1779-0.0315-0.38271-0.0723-0.5332 4.2805-0.4982 9.8539-1.345 11.893-1.9336 0.93286-0.26931 2.4677-1.7234 2.4724-2.8381l0.0163-0.99602c4e-3 -0.59849-0.43567-2.3879-1.6586-3.447-3.5-3.0313-6.3952-2.1955-7.8301-1.7812-2.1644 0.62485-7.453 3.3463-10.385 4.9277-2.1766-0.5244-4.6822-0.52737-6.8711 0-2.9318-1.5815-8.2204-4.3029-10.385-4.9277-0.62776-0.18123-1.5352-0.44231-2.6504-0.42578z" fill-opacity="0" stroke="#2a2a2a" stroke-linecap="square" stroke-linejoin="round" stroke-width="2"/></g></svg>
