<?xml version="1.0" encoding="UTF-8"?>
<!-- Created with Inkscape (http://www.inkscape.org/) -->
<svg width="384" height="84" version="1.1" viewBox="0 0 384 84" xml:space="preserve" xmlns="http://www.w3.org/2000/svg"><g transform="translate(-192)"><g><path d="m321 27v30a30 12 0 0 1-30 12 30 12 0 0 1-30-12v-30z" fill="#808080" stroke="#2a2a2a" stroke-linejoin="round" stroke-width="2" style="paint-order:fill markers stroke"/><g><path d="m271 31v34.91a30 12 0 0 0 20 3.0898 30 12 0 0 0 20-3.0898v-34.91z" stroke="#2a2a2a" stroke-linejoin="round" stroke-width="2" style="paint-order:fill markers stroke"/><path d="m266 59.511v-18l-2-1.5v2.989l4 3.011v3l-4-3v3l4 3v3l-4-3v3l4 3v3l-2-1.5" style="paint-order:fill markers stroke"/><path d="m316 59.511v-18l2-1.5v2.989l-4 3.011v3l4-3v3l-4 3v3l4-3v3l-4 3v3l2-1.5" style="paint-order:fill markers stroke"/></g><path transform="translate(192)" d="m94 46a2 2 0 0 0-2 2v4h4v-2h6v4h-4a2 2 0 0 0-2 2v2h6a4 4 0 0 0 4-4v-6a2 2 0 0 0-2-2zm2 14v4h6v-4z" fill="#f60" style="paint-order:fill markers stroke"/></g><g transform="rotate(45 184.73 335.02)"><path d="m20.212 27.388 2.787-0.25688 1.6821 0.51928 2.9693-2.9693-0.51928-1.6821 0.25688-2.7842 2.4113-1.9998 1.8216 1.0648 1.1905 1.1905 2.8519-1.9211 0.5179-2.3437 1.5413-3.3284 2.4555-1.2816 3.3449 3.3449 0.04834-0.01795 1.4805-2.6489 2.5895-3.3657 2.1282-0.36874 2.9596 2.9596 2.9058-2.5854 1.4764 0.598 11.86 11.863 0.60076 1.4764-2.5867 2.9044 2.961 2.961-0.0014 0.0014-0.36875 2.1282-3.3643 2.5881-2.6489 1.4777-0.01795 0.0511 3.3436 3.3436h0.0028l-1.283 2.4569-3.3298 1.5399-2.3423 0.51928-1.9211 2.8519 1.1905 1.1905 1.0648 1.8216-1.9984 2.41-2.787 0.25688-1.6808-0.5179-2.9693 2.9693 0.5179 1.6808-0.2555 2.7856-2.4113 1.9998-1.8216-1.0648-1.1919-1.1919-2.8505 1.9224-0.51928 2.3423-1.5399 3.3298-2.4569 1.2802-3.3449-3.3449-0.04834 0.01795-1.4791 2.6503-2.5895 3.3657-2.1282 0.36874-2.961-2.961-2.9044 2.5867-1.4777-0.59938 0.0014-0.0014-11.863-11.86 0.00138-0.0014-0.59938-1.475 2.5867-2.9044-2.961-2.961 0.00138-0.0014 0.36874-2.1282 3.3657-2.5895 2.6475-1.4764 0.01795-0.0511-3.3422-3.3422-0.0041-0.0014 0.0014-0.0014 1.2802-2.4569 3.3298-1.5399 2.3451-0.51928 1.9197-2.8505-1.1905-1.1905-1.0648-1.8216z" fill="#8c8c8c" stroke-opacity="0" style="paint-order:fill markers stroke"/><g fill="#a6a6a6" stroke="#a6a6a6" stroke-linejoin="round"><path d="m29.821 58.405 8.4853 8.4839 2.4569-1.2802-8.485-8.4852z" style="paint-order:fill markers stroke"/><path d="m20.231 61.46 2.1289-0.36939 8.486 8.4862-2.1296 0.37013z" style="paint-order:fill markers stroke"/><path d="m40.2 51.786 2.4112-1.9985 8.485 8.4853-2.41 1.9984z" style="paint-order:fill markers stroke"/><path d="m58.405 29.822 8.4839 8.4853-1.2802 2.4569-8.4852-8.485z" style="paint-order:fill markers stroke"/><path d="m61.46 20.231-0.36939 2.1289 8.4862 8.486 0.37013-2.1296z" style="paint-order:fill markers stroke"/><path d="m51.786 40.201-1.9985 2.4112 8.4853 8.485 1.9984-2.41z" style="paint-order:fill markers stroke"/></g><path d="m32.383 20.758-0.76266-1.4793-1.8207-1.0651-2.4112 1.9985-0.2574 2.7875 0.51965 1.6807-2.9703 2.9699-1.6806-0.51971-2.7862 0.25693-1.9987 2.4115 1.065 1.8209 1.4794 0.76192-2.2103 3.2801-2.3425 0.51902-3.3293 1.54-1.2816 2.4573 2.2256 0.57615 2.2134-0.27148-1.1111 3.088-2.6497 1.4797-3.3653 2.5896-0.36934 2.1288 3.0473-0.75525 2.6111-1.2644 0.15505 2.4277-2.5507 2.2135-2.8884 3.244 0.599 1.4761 3.4047-1.9718 2.6111-2.0647 1.3973 1.398-2.0647 2.611-1.9713 3.4034 1.4763 0.5991 3.2441-2.8884 2.2126-2.5502 2.4285 0.15516-1.2641 2.6108-0.75543 3.0469 2.1289-0.36939 2.5888-3.365 1.4786-2.648 3.0885-1.1124-0.27146 2.2147 0.57691 2.2254 2.4572-1.2816 1.5406-3.33 0.51904-2.3428 3.2789-2.2094 0.76266 1.4793 1.8207 1.0651 2.4112-1.9985 0.2574-2.7875-0.51965-1.6807 2.9702-2.9699 1.6806 0.51971 2.7862-0.25693 1.9987-2.4115-1.065-1.8209-1.4794-0.76192 2.2103-3.2801 2.3425-0.51902 3.3293-1.54 1.2816-2.4573-2.2256-0.57615-2.2134 0.27148 1.1111-3.088 2.6497-1.4797 3.3653-2.5896 0.36934-2.1288-3.0473 0.75526-2.6111 1.2644-0.15505-2.4277 2.5507-2.2135 2.8884-3.244-0.599-1.4761-3.4047 1.9718-2.6111 2.0647-1.3973-1.398 2.0647-2.611 1.9713-3.4034-1.4763-0.5991-3.2441 2.8884-2.2126 2.5502-2.4285-0.15519 1.2641-2.6108 0.75543-3.0469-2.1289 0.36939-2.5888 3.365-1.4786 2.648-3.0885 1.1125 0.27146-2.2147-0.57691-2.2254-2.4572 1.2816-1.5406 3.33-0.51904 2.3428z" fill="#c0c0c0" stroke="#c0c0c0" stroke-linejoin="round" style="paint-order:fill markers stroke"/><path d="m27.388 20.212-0.25688 2.787 0.51928 1.6821-2.9693 2.9693-1.6821-0.51928-2.7842 0.25688-2.707 3.1186 1.0648 1.8216 1.1905 1.1905-1.2138 2.1447-2.3437 0.5179-3.3284 1.5413-1.9889 3.1628 3.3449 3.3449-0.01795 0.04834-1.9416 0.77326-3.3657 2.5895-1.076 2.8355 2.9596 2.9596-1.8781 2.1985 0.598 1.4764 11.863 11.86 1.4764 0.60076 2.1971-1.8795 2.961 2.961 0.0014-0.0014 2.8355-1.076 2.5881-3.3643 0.7705-1.9416 0.0511-0.01795 3.3436 3.3436v0.0028l3.1642-1.9903 1.5399-3.3298 0.51928-2.3423 2.1447-1.2138 1.1905 1.1905 1.8216 1.0648 3.1172-2.7057 0.25688-2.787-0.5179-1.6808 2.9693-2.9693 1.6808 0.5179 2.7856-0.2555 2.707-3.1185-1.0648-1.8216-1.1919-1.1919 1.2153-2.1433 2.3423-0.51928 3.3298-1.5399 1.9874-3.1641-3.3449-3.3449 0.01795-0.04834 1.9431-0.77194 3.3657-2.5895 1.0759-2.8354-2.961-2.961 1.8796-2.1972-0.59938-1.4777-0.0014 0.0014-11.86-11.863-0.0014 0.0014-1.475-0.59938-2.1971 1.8795-2.961-2.961-0.0014 0.0014-2.8355 1.076-2.5895 3.3657-0.76911 1.9403-0.0511 0.01795-3.3422-3.3422-0.0014-0.0041-0.0014 0.0014-3.1642 1.9875-1.5399 3.3298-0.51928 2.3451-2.1433 1.2124-1.1905-1.1905-1.8216-1.0648z" fill-opacity="0" stroke="#2a2a2a" stroke-linejoin="round" stroke-width="2" style="paint-order:fill markers stroke"/><g stroke-opacity="0"><circle transform="matrix(.94089 -.33872 -.33872 .94089 0 0)" cx="58.123" cy="58.123" r="18.365" fill="#808080" style="paint-order:fill markers stroke"/><path d="m41.618 16.618c-3.7563 1.3523-7.8977 5.4937-9.25 9.25-0.43062 1.2127-0.5272 2.2842-0.27964 3.1032l-3.0996 3.0996c-0.82481-0.24344-1.9026-0.14079-3.1207 0.29722-3.7563 1.3523-7.8977 5.4937-9.25 9.25-1.3523 3.7563 0.59659 5.7052 4.3529 4.3529 1.2172-0.44653 2.5266-1.2088 3.7923-2.2077l1.4623 1.4623c-0.99822 1.2718-1.7566 2.5857-2.1958 3.8042-1.3523 3.7563 0.59659 5.7052 4.3529 4.3529 3.7563-1.3523 7.8977-5.4937 9.25-9.25 0.43062-1.2127 0.5272-2.2842 0.27964-3.1032l3.0996-3.0996c0.82481 0.24344 1.9026 0.14079 3.1207-0.29722 3.7563-1.3523 7.8977-5.4937 9.25-9.25 1.3523-3.7563-0.59659-5.7052-4.3529-4.3529-1.2172 0.44653-2.5266 1.2088-3.7923 2.2077l-1.4623-1.4623c0.99822-1.2718 1.7566-2.5857 2.1958-3.8042 1.3523-3.7563-0.59659-5.7052-4.3529-4.3529z" fill="#c0c0c0" style="paint-order:fill markers stroke"/><path d="m40.757 19.007c-2.5381 0.9137-5.3363 3.7119-6.25 6.25-0.40054 1.113-0.38346 2.0427 0.04808 2.6164l0.75339 0.93503-1.7206 4.7794-4.7794 1.7206-0.93503-0.75339c-0.5737-0.43154-1.5034-0.44862-2.6164-0.04808-2.5381 0.9137-5.3363 3.7119-6.25 6.25-0.9137 2.5381 0.40311 3.8549 2.9412 2.9412 1.1132-0.40089 2.3339-1.1921 3.4354-2.2267l1.8367-1.7512 4.7794-1.7206-1.7206 4.7794-1.7512 1.8367c-1.0346 1.1015-1.8258 2.3222-2.2267 3.4354-0.9137 2.5381 0.40311 3.8549 2.9412 2.9412s5.3363-3.7119 6.25-6.25c0.40054-1.113 0.38346-2.0427-0.04808-2.6164l-0.75339-0.93503 1.7206-4.7794 4.7794-1.7206 0.93503 0.75339c0.5737 0.43154 1.5034 0.44862 2.6164 0.04808 2.5381-0.9137 5.3363-3.7119 6.25-6.25s-0.40311-3.8549-2.9412-2.9412c-1.1132 0.40089-2.3339 1.1921-3.4354 2.2267l-1.8367 1.7512-4.7794 1.7206 1.7206-4.7794 1.7512-1.8367c1.0346-1.1015 1.8258-2.3222 2.2267-3.4354 0.9137-2.5381-0.40311-3.8549-2.9412-2.9412z" fill="#595959" style="paint-order:fill markers stroke"/></g></g><path transform="translate(192)" d="m70.035 60.123c-1.7421 0.43208-3.0352 2.0012-3.0352 3.877v2c0 3 9 9 32 9s32-6 32-9v-2c-8e-4 -1.8734-1.2919-3.4444-3.0352-3.877-3.5293 5.2375-15.404 7.8767-28.965 7.877-13.561-2.46e-4 -25.436-2.6394-28.965-7.877z" fill="#cc0" stroke-opacity="0"/><path d="m259 63v3c0 3 9 9 32 9s33.472-6.386 32-9v-4l-2.8438-1c0.84375 2 0.31266 4.4428-1.4589 5.5974-4.3033 2.8047-12.117 5.4026-27.697 5.4026-23 0-31.205-6.2826-32-9z" fill="#960" stroke-opacity="0"/><path d="m262.04 60.123c-1.7421 0.43208-3.0352 2.0012-3.0352 3.877v2c0 3 8 9 32 9s32-6 32-9v-2c-8e-4 -1.8734-1.2919-3.4444-3.0352-3.877-3.5293 5.2375-15.404 7.8767-28.965 7.877-13.561-2.46e-4 -25.436-2.6394-28.965-7.877z" fill-opacity="0" stroke="#2a2a2a" stroke-linecap="round" stroke-width="2"/></g><g><g><path d="m321 27v30a30 12 0 0 1-30 12 30 12 0 0 1-30-12v-30z" fill="#808080" stroke="#2a2a2a" stroke-linejoin="round" stroke-width="2" style="paint-order:fill markers stroke"/><g><path d="m271 31v34.91a30 12 0 0 0 20 3.0898 30 12 0 0 0 20-3.0898v-34.91z" stroke="#2a2a2a" stroke-linejoin="round" stroke-width="2" style="paint-order:fill markers stroke"/><path d="m266 59.511v-18l-2-1.5v2.989l4 3.011v3l-4-3v3l4 3v3l-4-3v3l4 3v3l-2-1.5" style="paint-order:fill markers stroke"/><path d="m316 59.511v-18l2-1.5v2.989l-4 3.011v3l4-3v3l-4 3v3l4-3v3l-4 3v3l2-1.5" style="paint-order:fill markers stroke"/></g><path transform="translate(-192)" d="m478 46a2 2 0 0 0-2 2v4h4v-2h6v4h-4a2 2 0 0 0-2 2v2h6a4 4 0 0 0 4-4v-6a2 2 0 0 0-2-2zm2 14v4h6v-4z" fill="#f60" style="paint-order:fill markers stroke"/></g><g transform="translate(334.04 -1.8496)"><path d="m-41.449 2.8496 1.3691 1.9531 0.16016 1.5996 4.1191 0.38672 1.4512-1.4512 2.8535-1.5566 2.9375 0.57227v4.0234l2.0156 0.63281 2.5195-1.0781 3.9023-0.92578 2.248 1.0586v4.3398l1.2812-0.2168 4.3555-0.15234 1.2168 1.3828h2e-3v4.377l1.9785 0.30664v13.496l-1.9785 0.30664v4.377l-1.2168 1.3828-4.3574-0.15234-1.2812-0.2168v4.3398l-2.248 1.0566-3.9023-0.92383-2.5195-1.0781-2.0156 0.63281v4.0234l-2.9375 0.57226-2.8535-1.5566-1.4492-1.4512-4.1211 0.38672-0.16016 1.5996-1.3691 1.9531h-3.1797l-1.3691-1.9531-0.16016-1.5996-4.1191-0.38672-1.4512 1.4512-2.8535 1.5566-2.9375-0.57226v-4.0234l-2.0156-0.63281-2.5195 1.0781-3.9023 0.92383-2.248-1.0566v-4.3398l-1.2812 0.2168-4.3555 0.15234-1.2168-1.3828h-2e-3v-4.377l-1.9785-0.30664v-13.496l1.9785-0.30664v-4.377l1.2168-1.3828 4.3574 0.15234 1.2812 0.2168v-4.3398l2.248-1.0586 3.9023 0.92578 2.5195 1.0781 2.0156-0.63281v-4.0234l2.9375-0.57227 2.8535 1.5566 1.4492 1.4512 4.1211-0.38672 0.16016-1.5996 1.3691-1.9531z" fill="#8c8c8c" stroke-opacity="0" style="paint-order:fill markers stroke"/><g fill="#a6a6a6" stroke="#a6a6a6" stroke-linejoin="round"><path transform="translate(-78.039 1.8496)" d="m33.41 45v-12h3.1797l-4.7e-5 12z" style="paint-order:fill markers stroke"/><path d="m-28.559 45.346-2.9375 0.57226v-11.999l2.9375-0.57261z" style="paint-order:fill markers stroke"/><path d="m-20.121 30.692 2.248-1.0579v12l-2.248 1.0566z" style="paint-order:fill markers stroke"/><path d="m-12.236 25.664 1.2168-1.3824 2e-3 12-1.2188 1.3828z" style="paint-order:fill markers stroke"/><path d="m-57.519 45.346 2.9375 0.57226v-11.999l-2.9375-0.57261z" style="paint-order:fill markers stroke"/><path d="m-65.957 30.692-2.248-1.0579v12l2.248 1.0566z" style="paint-order:fill markers stroke"/><path d="m-73.842 37.664-4.7e-5 -12-1.2168-1.3824-2e-3 12 1.2188 1.3828" style="paint-order:fill markers stroke"/></g><path d="m-59.535 9.0105-2.5195-1.079-3.9023-0.92463-2.248 1.0579 1.9648 1.8364 2.293 1.1857-2.334 1.6434-3.2051-0.5432-4.3555-0.15165-1.2168 1.3824 3.3086 1.3428 3.082 0.68198-0.82031 1.9393-3.4023 0.07537-4.1484 0.6443v1.4963l4.1484 0.6443 3.4023 0.07537 0.82031 1.9384-3.084 0.6829-3.3086 1.3428 1.2168 1.3824 4.3574-0.15165 3.2051-0.5432 2.334 1.6434-2.293 1.1857-1.9648 1.8364 2.248 1.0579 3.9023-0.92463 2.5195-1.079 3.4922 1.0983-1.1543 1.5083-0.32227 2.0496 2.9375 0.57261 2.8535-1.557 1.4492-1.4504 4.1211 0.38601 0.16016 1.6011 1.3691 1.9522h3.1797l1.3691-1.9522 0.16016-1.6011 4.1191-0.38601 1.4512 1.4513 2.8535 1.557 2.9375-0.57261-0.32227-2.0506-1.1543-1.5083 3.4922-1.0983 2.5195 1.079 3.9023 0.92463 2.248-1.0579-1.9648-1.8364-2.293-1.1857 2.334-1.6434 3.2051 0.5432 4.3555 0.15165 1.2168-1.3824-3.3086-1.3428-3.082-0.68198 0.82031-1.9394 3.4023-0.07537 4.1484-0.6443v-1.4963l-4.1484-0.6443-3.4023-0.07537-0.82031-1.9384 3.084-0.6829 3.3086-1.3428-1.2168-1.3824-4.3574 0.15165-3.2051 0.5432-2.334-1.6434 2.293-1.1857 1.9648-1.8364-2.248-1.0579-3.9023 0.92463-2.5195 1.079-3.4922-1.0983 1.1543-1.5083 0.32227-2.0496-2.9375-0.57261-2.8535 1.557-1.4492 1.4504-4.1211-0.38603-0.16016-1.6011-1.3691-1.9522h-3.1797l-1.3691 1.9522-0.16016 1.6011-4.1191 0.38603-1.4512-1.4513-2.8535-1.557-2.9375 0.57261 0.32227 2.0506 1.1543 1.5083z" fill="#c0c0c0" stroke="#c0c0c0" stroke-linejoin="round" style="paint-order:fill markers stroke"/><path d="m-45.629 2.8496-1.3691 1.9531-0.16016 1.5996-3.1188 0.38672-1.4512-1.4512-2.8535-1.5566-3.9378 0.57227v4.0234l-1.0153 0.63281-2.5195-1.0781-3.9023-0.92578-3.2484 1.0586v4.3398l-0.28094-0.2168-4.3555-0.15234-2.2171 1.3828h-2e-3v4.377l-0.9782 0.30664v13.496l0.97823 0.30664v4.377l2.2171 1.3828 4.3574-0.15234 0.28096-0.2168v4.3398l3.2483 1.0566 3.9023-0.92383 2.5195-1.0781 1.0153 0.63281v4.0234l3.9378 0.57226 2.8535-1.5566 1.4492-1.4512 3.1208 0.38672 0.16016 1.5996 1.3691 1.9531h5.1803l1.3691-1.9531 0.16016-1.5996 3.1188-0.38672 1.4512 1.4512 2.8535 1.5566 3.9379-0.57226v-4.0234l1.0153-0.63281 2.5195 1.0781 3.9023 0.92383 3.2484-1.0566v-4.3398l0.28089 0.2168 4.3555 0.15234 2.2172-1.3828h2e-3v-4.377l0.97816-0.30664v-13.496l-0.97818-0.30664v-4.377l-2.2171-1.3828-4.3574 0.15234-0.28091 0.2168v-4.3398l-3.2484-1.0586-3.9023 0.92578-2.5195 1.0781-1.0153-0.63281v-4.0234l-3.9378-0.57227-2.8535 1.5566-1.4492 1.4512-3.1208-0.38672-0.16016-1.5996-1.3691-1.9531z" fill-opacity="0" stroke="#2a2a2a" stroke-linejoin="round" stroke-width="2" style="paint-order:fill markers stroke"/><g><ellipse cx="-43.039" cy="18.85" rx="23.5" ry="11.059" fill="#808080" style="paint-order:fill markers stroke"/><path d="m-43.039 7.0849c-5.1086 0-9.25 1.9489-9.25 4.3529 0.0093 0.7777 0.46113 1.54 1.3086 2.2077l-3.0996 1.4586c-1.4257-0.39733-3.052-0.60716-4.709-0.60754-5.1086 0-9.25 1.9489-9.25 4.3529 0 2.4041 4.1414 4.3529 9.25 4.3529 1.6507-0.0061 3.2678-0.22002 4.6836-0.61948l3.1074 1.4623c-0.84433 0.67092-1.2902 1.4362-1.291 2.216 0 2.4041 4.1414 4.3529 9.25 4.3529s9.25-1.9489 9.25-4.3529c-0.0093-0.7777-0.46113-1.54-1.3086-2.2077l3.0996-1.4586c1.4257 0.39733 3.052 0.60716 4.709 0.60754 5.1086 0 9.25-1.9489 9.25-4.3529 0-2.4041-4.1414-4.3529-9.25-4.3529-1.6507 0.0061-3.2678 0.22002-4.6836 0.61948l-3.1074-1.4623c0.84433-0.67092 1.2902-1.4362 1.291-2.216 0-2.4041-4.1414-4.3529-9.25-4.3529z" fill="#c0c0c0" style="paint-order:fill markers stroke"/><path d="m-43.039 8.6143c-3.4518 0-6.25 1.3168-6.25 2.9412 2.34e-4 0.71238 0.54989 1.4005 1.5469 1.9366l1.7031 0.88695v3.0588h-6.5l-1.8848-0.80147c-1.1391-0.46917-2.6014-0.72783-4.1152-0.72794-3.4518 0-6.25 1.3168-6.25 2.9412s2.7982 2.9412 6.25 2.9412c1.5138-1.1e-4 2.9761-0.25877 4.1152-0.72794l1.8848-0.80147h6.5v3.0588l-1.7031 0.88695c-0.99698 0.53606-1.5466 1.2242-1.5469 1.9366 0 1.6244 2.7982 2.9412 6.25 2.9412s6.25-1.3168 6.25-2.9412c-2.34e-4 -0.71238-0.54989-1.4005-1.5469-1.9366l-1.7031-0.88695v-3.0588h6.5l1.8848 0.80147c1.1391 0.46917 2.6014 0.72783 4.1152 0.72794 3.4518 0 6.25-1.3168 6.25-2.9412s-2.7982-2.9412-6.25-2.9412c-1.5138 1.1e-4 -2.9761 0.25877-4.1152 0.72794l-1.8848 0.80147h-6.5v-3.0588l1.7031-0.88695c0.99698-0.53606 1.5466-1.2242 1.5469-1.9366 0-1.6244-2.7982-2.9412-6.25-2.9412z" fill="#595959" style="paint-order:fill markers stroke"/></g></g><g transform="translate(5e-5)"><path transform="translate(192)" d="m70.035 60.123c-1.7421 0.43208-3.0352 2.0012-3.0352 3.877v2c0 3 9 9 32 9s32-6 32-9v-2c-8e-4 -1.8734-1.2919-3.4444-3.0352-3.877-3.5293 5.2375-15.404 7.8767-28.965 7.877-13.561-2.46e-4 -25.436-2.6394-28.965-7.877z" fill="#cc0" stroke-opacity="0"/><path d="m259 63v3c0 3 9 9 32 9s33.472-6.386 32-9v-4l-2.8438-1c0.84375 2 0.31266 4.4428-1.4589 5.5974-4.3033 2.8047-12.117 5.4026-27.697 5.4026-23 0-31.205-6.2826-32-9z" fill="#960" stroke-opacity="0"/><path d="m262.04 60.123c-1.7421 0.43208-3.0352 2.0012-3.0352 3.877v2c0 3 8 9 32 9s32-6 32-9v-2c-8e-4 -1.8734-1.2919-3.4444-3.0352-3.877-3.5293 5.2375-15.404 7.8767-28.965 7.877-13.561-2.46e-4 -25.436-2.6394-28.965-7.877z" fill-opacity="0" stroke="#2a2a2a" stroke-linecap="round" stroke-width="2"/></g></g></svg>
