<?xml version="1.0" encoding="UTF-8"?>
<!-- Created with Inkscape (http://www.inkscape.org/) -->
<svg width="82" height="158" version="1.1" viewBox="0 0 82 158" xml:space="preserve" xmlns="http://www.w3.org/2000/svg"><g><g><path d="m24.586 156h6l8.4141-15 12-5.414v-6.586h-6v-28h-20.414z" fill="#5a5a5a"/><g><path d="m51 129-8.4141 8.4146v8.443l8.4141-8.4146z" fill="#808080" style="paint-order:normal"/><path d="m36.586 137.41h6l8.4141-8.4141v-1h-5z" fill="#999" style="paint-order:normal"/><path d="m46 110.45-9.4141 9.5933v17.369l9.4141-9.4136z" fill="#808080" style="paint-order:normal"/><path d="m36.613 120.02 10.867-9.9839s1.3746-1.6892 2.1366-3.5047c0.76197-1.8155 0.69228-4.5271 0.69228-4.5271l-0.8953-1h-14.643l2.8145 3.4141c1.1396 1.8819 1.7559 4.5391 1.7559 6.5859 0.0224 1.9038-0.04213 5.7467-2.7285 9.0156z" fill="#6e6e6e" style="paint-order:normal"/></g><path d="m33 145v-21.279l3.6017-3.6904-0.015708 17.383h6l3e-6 7.586" fill="#464646"/><g><path d="m39 141-8.4141 8.4141v8.586l0.79298 0.0305 7.6211-7.6211z" fill="#808080" style="paint-order:normal"/><path d="m33 141-8.4141 8.4141h6l8.4141-8.4141h-6z" fill="#999" style="paint-order:normal"/><path d="m33.01 123.71-6.4238 6.5801v17.127l6.4141-6.4141 0.009766-17.293z" fill="#808080" style="paint-order:normal"/><path d="m33.016 101h-8.0156l1.5859 29.287 6.4238-6.5801c2.495-3.4135 4.3838-6.4013 4.3984-10.777 0-3.3288-0.53452-4.9284-1.4824-6.8555l-2.9102-5.0742z" fill="#6e6e6e" style="paint-order:normal"/></g><path d="m32 110v-8h8" fill="#808080" stroke-opacity="0" style="paint-order:normal"/><rect x="1" y="101" width="30" height="8" fill="#c0c0c0" stroke="#999" stroke-linecap="square" stroke-width="2"/><g><path d="m30.586 148.41h-5v-18.545c2.8088-2.7194 4.4005-6.4577 4.4141-10.367 0-8.0081-6.4919-14.5-14.5-14.5s-14.5 6.4919-14.5 14.5v37.5h29.586" fill="#c0c0c0" stroke="#999" stroke-width="2"/><g transform="translate(1.5,3.5)" fill-opacity="0" stroke="#666"><circle cx="14" cy="116" r="7" stroke-width="2"/><circle cx="14" cy="116" r="3" stroke-width="2"/><path d="m14 122v24" stroke-width="4"/><g stroke-width="2"><path d="m10 145h8"/><path d="m10 141h8.0039"/><path d="m10 137.03 8-0.0312"/><path d="m10 133h8"/></g></g></g></g></g><g transform="translate(0,-9.712e-4)"><g transform="translate(0,9.712e-4)"><g transform="translate(0,-9.712e-4)"><path d="m0 100h32v2h29l20-21.001 1-42.413-32.381-31.742-19.619 19.155h-30" fill="#f90"/><path d="m82 38.587-20 18.827v43.537l20-19.447" fill="#c60"/></g><g><path transform="translate(0,-9.712e-4)" d="m0 19.141 19.166-19.14h32.834l-2 9.999-18 18h-31z" fill="#ff0"/><rect x="7.6945e-8" y="19.999" width="32" height="8" fill="#cc0"/><path transform="translate(0,-9.712e-4)" d="m32 20v9l20-19.799v-9.2l-20 19.999" fill="#960"/></g></g><g><g stroke="#c60" stroke-width="2"><path d="m61 65h-60" fill="#c60"/><path d="m60.586 101-28.586 1e-3" fill="#c60"/><path d="m32.5 29.5 29 29" fill="#630" stroke-linecap="square"/></g><path d="m51.308 9.8815-18.308 18.532" fill-opacity="0" stroke="#c60" stroke-linecap="square" stroke-width="2"/><path d="m62 57.414-1.414 1.586v43h0.414l1-1.049z" fill="#960"/><path d="m3 29h29" fill-opacity="0" stroke="#c60" stroke-linecap="square" stroke-width="2"/><path d="m50.5 101h-2.1042m-4.2083 0h-4.2083m-4.2083 0h-4.2083m-4.2083 0h-4.2083m-4.2083 0h-4.2083m-4.2083 0h-4.2083m-4.2083 0h-2.1042" fill-opacity="0" stroke="#2a2a2a" stroke-width="2"/><g fill-opacity="0" stroke="#c60" stroke-linecap="square" stroke-width="1.414"><path d="m59.5 50.5-20-20 13.5-13.5 20 20z"/><path d="M 43.5,34.5 57,21"/><path d="M 47.5,38.5 61,25"/><path d="M 51.5,42.5 65,29"/><path d="M 55.5,46.5 69,33"/></g><g><path d="m70 53-6 6v12.001l6-6v-12.001" fill="#fffbf0"/><path d="m78 45.022-6 6v11.979l6-6v-11.979" fill="#fffbf0"/><path d="m68 59-2 2v4l2-2z"/><path d="m76 51.001-2 2v4l2-2z"/></g><g fill="#c60" stroke-opacity="0"><path d="m33 69h12v8h3l-6 6-6-6h3v-2h-6v-6"/><path d="m45 85v12h-8v3l-6-6 6-6v3h2v-6h6"/><path d="m29 97h-12v-8h-3l6-6 6 6h-3v2h6v6"/><path d="m17 81v-12h8v-3l6 6-6 6v-3h-2v6h-6"/></g><path d="m67.414 89.586v-2l8.172-8.172v2" fill="#2a2a2a"/></g></g><path d="m24.462 1h-4.876l-3.4478 3.4478m-3.4478 3.4478-3.4478 3.4478m-3.4478 3.4478-3.4478 3.4478m-1.3467 4.3182v4.876m0 4.876v4.876m0 4.876v4.876m0 4.876v4.876m0 4.876v4.876m0 4.876v4.876m0 4.876v4.876m0 4.876v4.876m0 4.876v4.876m1.3253 3.5507h2.7841v0.41211c-0.39366 0.40263-0.76119 0.82574-1.1017 1.2669m-2.2743 4.2868c-0.47757 1.4473-0.72866 2.976-0.73345 4.5342v0.26369m0 4.876v4.876m0 4.876v4.876m0 4.876v4.876m0 4.876v3.1044h1.7716m4.876 0h4.876m4.876 0h4.876m4.876 0h3.8484l0.72662-0.72662m3.4478-3.4478 3.4478-3.4478m1.3777-4.3053v-0.07234h2l1.9825-1.9825m3.4478-3.4478 2.5697-2.5697v-1.2419m0-4.876v-1.8821h-2.9939m-2.0061-2.8699v-4.876m0-4.876v-4.876m2.9249-3.8681c0.94247-1.782 1.2974-3.4121 1.4268-4.6316m2.9335-2.0026 4.876-4.3e-4m4.4627-1.0146 3.4873-3.4079m3.4873-3.4079 3.4873-3.4079m3.4873-3.4079 3.4873-3.4079m1.9394-4.0595v-4.876m0-4.876v-4.876m0-4.876v-4.876m0-4.876v-4.876m0-4.876v-0.87774l-2.8549-2.7992m-3.4817-3.4137-3.4817-3.4137m-3.4817-3.4137-3.4817-3.4137m-3.4817-3.4137-3.4817-3.4137m-3.4817-3.4137-2.7733-2.7191v-0.99208m0-4.876v-2.7179h-2.1581m-4.876 0h-4.876m-4.876 0h-4.876m-4.876 0h-4.876" fill-opacity="0" stroke="#2a2a2a" stroke-width="2"/></svg>
