<?xml version="1.0" encoding="UTF-8"?>
<!-- Created with Inkscape (http://www.inkscape.org/) -->
<svg width="82" height="158" version="1.1" viewBox="0 0 82 158" xml:space="preserve" xmlns="http://www.w3.org/2000/svg" xmlns:xlink="http://www.w3.org/1999/xlink"><defs><linearGradient id="a"><stop stop-color="#f90" offset="0"/><stop stop-color="#c60" offset="1"/></linearGradient><linearGradient id="c" x1="10" x2="33" y1="59.999" y2="59.999" gradientTransform="translate(1.7509 -12.394)" gradientUnits="userSpaceOnUse" xlink:href="#a"/><linearGradient id="b" x1="22" x2="45" y1="47.999" y2="47.999" gradientTransform="translate(1.7509 -12.394)" gradientUnits="userSpaceOnUse" xlink:href="#a"/></defs><g transform="translate(0,-9.712e-4)"><g transform="translate(0,9.712e-4)"><g transform="translate(0,-9.712e-4)"><path d="m1 66h60l20-20v-7l-32-31-19 19h-29v39" fill="#f90"/><path d="m80 39.414-18 18v7.586l18-18" fill="#c60"/></g></g><g><g stroke="#c60" stroke-width="2"><path d="m61 65h-59" fill="#c60"/><path d="m32.5 29.5 29 29" fill="#630" stroke-linecap="square"/><path d="m50.414 9-19.414 19.414" fill="none" stroke-linecap="square"/></g><path d="m62 57.414-1.414 1.586v7l0.414 2.9e-5 1-1z" fill="#960"/><path d="m3 29h28" fill-opacity="0" stroke="#c60" stroke-linecap="square" stroke-width="2"/><g fill-opacity="0" stroke="#c60" stroke-linecap="square" stroke-width="1.414"><path d="m59.5 50.5-20-20 13.5-13.5 20 20z"/><path d="M 43.5,34.5 57,21"/><path d="M 47.5,38.5 61,25"/><path d="M 51.5,42.5 65,29"/><path d="M 55.5,46.5 69,33"/></g></g></g><g transform="translate(0 -38.001)"><path d="m30 66h-29l21.5-21.5 27.5 1.5" fill="#ff9"/></g><g transform="translate(0,-38)"><path d="m33.5 37.999a11 4 0 0 0-11 4v6a11 4 0 0 0 11 4 11 4 0 0 0 11-4v-6a11 4 0 0 0-11-4z" fill="url(#b)"/><ellipse cx="33.5" cy="41.998" rx="10.75" ry="3.75" fill="#ff9"/><path d="m21.5 50a11 4 0 0 0-11 4v6a11 4 0 0 0 11 4 11 4 0 0 0 11-4v-6a11 4 0 0 0-11-4z" fill="url(#c)"/><ellipse cx="21.5" cy="53.999" rx="10.75" ry="3.75" fill="#ff9"/></g><path d="m81 45v-6l-31.414-31.414h-4.0859v-3.5859c0-1.1627-0.82563-2.1851-2.2324-3h-19.535c-1.4068 0.81493-2.2324 1.8373-2.2324 3v3.0781l-4.2168 4.2168c-1.6565 0.24042-7.7832 1.356-7.7832 4.7051v3.082l-8.5 8.502v38.416" fill-opacity="0" stroke="#2a2a2a" stroke-width="2"/><path d="m80 46.999 2-2-2-5.586" fill="#2a2a2a"/><g><path d="m64 74.999v-14l6-6v14" fill="#fffbf0"/><path d="m72 66.999v-14l6-6v14" fill="#fffbf0"/><path d="m74 56.999v-6l2-2v6"/><path d="m66 64.999v-6l2-2v6"/></g></svg>
