<?xml version="1.0" encoding="UTF-8"?>
<!-- Created with Inkscape (http://www.inkscape.org/) -->
<svg width="90" height="216" version="1.1" viewBox="0 0 90 216" xml:space="preserve" xmlns="http://www.w3.org/2000/svg"><g><g fill-opacity="0" stroke="#09f" stroke-linecap="round" stroke-width="2"><path d="m45 167 2 2" style="paint-order:markers stroke fill"/><g><path d="m57 165 4 4" style="paint-order:markers stroke fill"/><path d="m21 167c0-2 1-3 2-4" style="paint-order:markers stroke fill"/><path d="m45 131c0-2 2-4 4-4" style="paint-order:markers stroke fill"/><path d="m33 115c0 2 1 3 2 4" style="paint-order:markers stroke fill"/><path d="m23 121c2 1 3 2 4 4" style="paint-order:markers stroke fill"/></g></g><g fill="#09f"><g><path d="m62 120a2 2 45 0 0-2-2c-6 0-8 5-10 5 4.204 2.5224 5.0232 0.0962 8.0234-0.74024 0.53166-0.14823 1.252-0.21312 1.9774-0.24098 1.1034-0.04238 1.9992-0.91421 1.9992-2.0188z" style="paint-order:markers stroke fill"/><circle cx="33" cy="129" r="1.25" style="paint-order:markers stroke fill"/><path d="m40 100s0-6 7-6h1a2 2 45 0 1 2 2c0 1.1046-0.89587 2.0003-2.001 2.0001-0.36731-6.5e-5 -0.72168-1.21e-4 -0.99901-1.21e-4 -3 0-7 2-7 2z" style="paint-order:markers stroke fill"/><path d="m46 92s5-8 12-8h1a3 3 45 0 1 3 3 3 3 135 0 1-3 3h-1c-6 0-12 2-12 2z" style="paint-order:markers stroke fill"/><path d="m32 96s-5-2.3333-7-3c-0.74544-0.24848-1.4291-0.43522-2.0358-0.57556-1.6112-0.37275-2.9642-1.7676-2.9642-3.4244a3 3 135 0 1 3-3c4 0 8 3 9 10z" style="paint-order:markers stroke fill"/><path d="m35 88s-1-4-3-4a2 2 45 0 1-2-2c0-1.1046 0.86893-2.4264 2.0005-2.4439 0.61069-0.009427 1.3051 0.096679 1.9995 0.44388 4 2 1 8 1 8z" style="paint-order:markers stroke fill"/><path d="m40 64c-10 0-18-3-18-7 0-2 1.5858-3 3-3 3 0 8 1 8 1-1.8285-1.303-4-1.8656-4-4 0-2 1.968-3 3.2361-3 2.7639 0 4.7639 2 6.7639 4 4 0 6.033-1.9753 7.8173-4.3956 1.1827-1.6044 2.1827-1.6044 3.1827-1.6044s2 0.89543 2 2c0 1.2806-0.66879 2.4335-1.4142 3.4142-1.1742 1.5448-4.5858 3.5858-4.5858 3.5858s6.3126-1 9-1c2 0 3 1.5858 3 3 0 5-8 7-18 7z" style="paint-order:markers stroke fill"/></g><path d="m38 14c5.9706 0 10 4.0294 10 9 0 2.7614-2.2386 5-5 5h-10c-2.7614 0-5-2.2386-5-5 0-4.9706 4.0294-9 10-9z" stroke-opacity="0" style="paint-order:markers stroke fill"/></g><g fill="#03f"><path d="m61.816 88c-3.9204 0.0092-11.794 0.34218-14.527 3.6152 2.0794-0.58046 6.389-1.6152 10.711-1.6152h1a3 3 0 0 0 2.8164-2z" style="paint-order:markers stroke fill"/><path d="m49.602 96c-1.9617 0.01369-5.3145 0.22169-8.041 3.3125 1.4397-0.57885 3.6209-1.3125 5.4395-1.3125 0.27733 0 0.63074-6.5e-5 0.99805 0 1.1051 1.96e-4 2.002-0.89541 2.002-2-0.125 0-0.25854-9.77e-4 -0.39844 0z" style="paint-order:markers stroke fill"/><path d="m24.928 91.283c-1.7331 0.021701-2.9277 0.7168-2.9277 0.7168s0.07116 0.08618 0.0918 0.11133c7.67e-4 3.79e-4 0.0012 0.0016 2e-3 2e-3 0.27606 0.1362 0.56982 0.24085 0.87109 0.31055 0.60656 0.14029 1.2897 0.32764 2.0351 0.57612 2 0.66667 7 3 7 3-0.02405-0.16837-0.05064-0.33234-0.07813-0.49609-7.81e-4 -0.0021-0.0012-0.0037-2e-3 -0.0059-0.26574-0.72358-1.1699-2.123-3.9199-3.498-1.1086-0.55428-2.1645-0.72816-3.0723-0.7168z" style="paint-order:markers stroke fill"/><path d="m32.863 83.605c-0.49486 0.003993-0.86328 0.39453-0.86328 0.39453 2 0 3 4 3 4s-0.09351-2.3622-0.62305-3.3555c-0.33267-0.62396-1.0188-1.0431-1.5137-1.0391z" style="paint-order:markers stroke fill"/><path d="m39 62a11 2 0 0 0-9.0195 0.85547c2.8578 0.72751 6.2991 1.1445 10.02 1.1445 3.3881 0 6.5349-0.23631 9.2305-0.73438a11 2 0 0 0-10.23-1.2656z" style="paint-order:markers stroke fill"/><path d="m51.459 50.045c-0.91722 0.11264-2.9118 0.52659-5.1759 2.0597-1.466 0.99267-2.2831 1.6499-3.2831 2.8954-0.60131 0.90952-0.27919 1.4781 0.70015 1.0028 0.56948-0.27635 1.319-0.61048 2.2999-1.0028 0 0 3.4117-2.0411 4.5859-3.5859 0.32283-0.42472 0.62706-0.88343 0.87305-1.3691z" style="paint-order:markers stroke fill"/><path d="m46.564 18.197c-0.33158 0.62101-0.56445 1.25-0.56445 1.8027 0 4 0 6-14 6-0.79941 0-1.4361 0.4812-1.916 1.0566 0.82139 0.59166 1.8264 0.94336 2.916 0.94336h10c2.7614 0 5-2.2386 5-5 0-1.7667-0.51121-3.4125-1.4355-4.8027z" style="paint-order:markers stroke fill"/></g><g fill-opacity="0" stroke="#9ff" stroke-linecap="round" stroke-width="2"><path d="m54.748 86.144s0.66052-0.6575 3-0.6575" style="paint-order:markers stroke fill"/><path d="m21.578 88.547s0.48083-1 1.7344-1" style="paint-order:markers stroke fill"/><path d="m48.508 48c-1.6098 1.9669-3.6642 4.9256-8.5082 5.3991" style="paint-order:markers stroke fill"/><path d="m32 57s-3.6605-1-6-1" style="paint-order:markers stroke fill"/><path d="m31 51s0.48083-1 1.7344-1" style="paint-order:markers stroke fill"/><path d="m31 21c1-3 3-4 6-4" style="paint-order:markers stroke fill"/></g><circle cx="41.773" cy="17.197" r="1" fill="#9ff" style="paint-order:markers stroke fill"/></g></svg>
