<?xml version="1.0" encoding="UTF-8"?>
<!-- Created with Inkscape (http://www.inkscape.org/) -->
<svg width="80" height="58" version="1.1" viewBox="0 0 80 58" xml:space="preserve" xmlns="http://www.w3.org/2000/svg"><g stroke-opacity="0"><path d="m39 16c-4 5-8 12-8 18a8 8 0 0 0 8 8 8 8 0 0 0 8-8c0-6-4-13-8-18z" fill="#09f" style="paint-order:markers stroke fill"/><path d="m46.844 31.92a6.5662 9.2133 45 0 1-3.2012 5.7227 6.5662 9.2133 45 0 1-8.8242 3.1641c1.2496 0.77123 2.6958 1.1896 4.1816 1.1934 4.4183 0 8-3.5817 8-8 0-0.68162-0.05765-1.3771-0.15625-2.0801z" fill="#03f" style="paint-order:markers stroke fill"/><path d="m37 38c0 1-4 0-4-5 0-4.305 4-11 4-11-2 6-2 9-2 11 0 4 2 4 2 5z" fill="#9ff" style="paint-order:markers stroke fill"/></g></svg>
