<?xml version="1.0" encoding="UTF-8"?>
<!-- Created with Inkscape (http://www.inkscape.org/) -->
<svg width="180" height="36" version="1.1" viewBox="0 0 180 36" xml:space="preserve" xmlns="http://www.w3.org/2000/svg"><path d="m154 26v3l1 2v4m9-11v3l1 2v4m9-7v3l1 2v4m-21-27v3l1 2v4m9-11v3l1 2v4m9-7v3l1 2v4m-30 12v3l-1 2v4m-9-11v3l-1 2v4m-9-7v3l-1 2v4m21-27v3l-1 2v4m-9-11v3l-1 2v4m-9-7v3l-1 2v4m20-22v4m-10-6v4m-10-2v4m-30 30v3l1 2m9-7v3l1 2v4m9-7v3l1 2m-21-23v3l1 2v4m9-11v3l1 2v4m9-7v3l1 2v4m-21-24 1 2v4m10-6v4m9-4 1 2v4m-30 30v3m-10-5v3m-10-1v3m20-21v3l-1 2v4m-9-11v3l-1 2v4m-9-7v3l-1 2v4m21-27v3l-1 2v4m-9-8-1 2v4m-9-7v3l-1 2v4m-20 28v3m-10-19v3l1 2v4m9-11v3l1 2v4m9-7v3l1 2v4m-21-27v3l1 2v4m9-11v3l1 2v4m9-7v3l1 2v4m-30 12v3l-1 2v4m-9-11v3l-1 2v4m-9-7v3l-1 2v4m21-27v3l-1 2v4m-9-11v3l-1 2v4m-9-7v3l-1 2v4" fill="none" stroke="#9cffff" stroke-linecap="round" stroke-opacity=".8" stroke-width="2"/></svg>
