<?xml version="1.0" encoding="UTF-8"?>
<!-- Created with Inkscape (http://www.inkscape.org/) -->
<svg width="90" height="240" version="1.1" viewBox="0 0 90 240" xml:space="preserve" xmlns="http://www.w3.org/2000/svg"><g><g fill="#09f" stroke-opacity="0"><path d="m32 21s0 3 6 3 10-1 10-4c0-0.94281-0.7518-2-2-2-3 0-2 2-5 2h-5c-3 0-4 0-4 1z" style="paint-order:markers stroke fill"/><path d="m32 61s0 3 6 3 10-1 10-4c0-0.94281-1-2-4-2h-3.2379c-3.7621 0-8.7621 1-8.7621 3z" style="paint-order:markers stroke fill"/><path d="m30 102c0 2 1 4 6 4 2.6442 0 4.0728-1.7152 6-3 3-2 6-1.3221 6-3 0-0.94281-2-2-5-2h-2.2379c-3.7621 0-10.762 1-10.762 4z" style="paint-order:markers stroke fill"/><path d="m30 145c0 3 2 5 5 5s5-2 6-4c0.63246-1.2649 1-3 3-4s4.1189-0.32209 4.1189-2c0-0.94281-2-2-5-2h-2.2379c-3.7621 0-10.881 2-10.881 7z" style="paint-order:markers stroke fill"/><path d="m30 188c0 4 2 6 6 6s6-2 6-6c0-1.4142 0-5 2-6s4.1189-0.32209 4.1189-2c0-0.94281-2-2-5-2-11.086 0-13.119 7-13.119 10z" style="paint-order:markers stroke fill"/><path d="m30 233c0 4 3 7 7 7 5 0 7-3 7-7 0-5-4-4-4-7 0-4 4-3.3221 4-5 0-1-3-1-4-1-6.5699 0-10 8-10 13z" style="paint-order:markers stroke fill"/></g><g fill="#03f" stroke-opacity="0"><path d="m43.465 230.39c-0.46484 0.54081-0.53784 0.92465-0.8125 2.6094-0.65212 4-2.6523 5.3037-7.6523 5.6953-0.6879 0.0539-1.0904 0.28819-1.3652 0.50196 0.98662 0.51472 2.1282 0.80273 3.3652 0.80273 4.6875 0 6.7385-2.6362 6.9766-6.2617 0.09413-1.4336-0.09613-2.5308-0.51184-3.3478z" style="paint-order:markers stroke fill"/><path d="m42.355 184.4c-1.0898 0.60156-1.6356 1.75-1.7305 3.1328-0.28125 4.0997-2.0338 4.9709-5.8847 5.1194-0.68785 0.0265-1.4697 0.1392-2.25 0.58762 0.917 0.50681 2.086 0.76172 3.5098 0.76172 4 0 6-2 6-6 0-0.79549-4.88e-4 -2.2786 0.35547-3.6016z" style="paint-order:markers stroke fill"/><path d="m45.369 141.27c-2.1977 0.02115-4.633 0.73047-5.3691 2.7305-1.1311 3.073-3.3366 4.4068-5 4.571-0.67484 0.0666-2 0.429-2.2148 0.99931 0.65023 0.27852 1.3947 0.42969 2.2148 0.42969 3 0 5-2 6-4 0.63246-1.2649 1-3 3-4 0.79745-0.39873 1.6074-0.52948 2.3008-0.65039-0.30627-0.0564-0.61898-0.0831-0.93164-0.0801z" style="paint-order:markers stroke fill"/><path d="m44 102c-5 0.40947-4.1491 2.3432-8 2.4918-0.68785 0.0265-2.536-0.1036-3.25 1.0961 0.01332 7e-3 0.03555 0.0155 0.05273 0.0234 0.82078 0.24587 1.8659 0.38871 3.1973 0.38871 2.6442 0 4.0728-1.7152 6-3 0.67885-0.45257 1.3559-0.76335 2-1z" style="paint-order:markers stroke fill"/><path d="m44 62a9 3.5 0 0 0-7.9531 1.875c0.56787 0.079701 1.2147 0.125 1.9531 0.125 4.1903 0 7.4029-0.48855 8.9609-1.8047a9 3.5 0 0 0-2.9609-0.19531z" style="paint-order:markers stroke fill"/></g><g fill-opacity="0" stroke="#9ff" stroke-linecap="round" stroke-width="2"><path d="m36 224s-1.9431 1.3817-3 4.5524c-1 3-1 5.4476-1 5.4476" style="paint-order:markers stroke fill"/><path d="m32 189c0-2 1-5 2-6" style="paint-order:markers stroke fill"/><path d="m32 145c0-2 1.5455-3.4198 3-4" style="paint-order:markers stroke fill"/><path d="m34 100.56s0.74645-0.55806 2-0.55806" style="paint-order:markers stroke fill"/><path d="m35 60.304c0.082438-0.19334 0.45052-0.30394 1-0.30394" style="paint-order:markers stroke fill"/></g></g></svg>
