<?xml version="1.0" encoding="UTF-8"?>
<!-- Created with Inkscape (http://www.inkscape.org/) -->
<svg width="820" height="548" version="1.1" viewBox="0 0 820 548" xml:space="preserve" xmlns="http://www.w3.org/2000/svg"><g transform="scale(2)" stroke-width=".5"><rect width="410" height="274" fill="#a0a0a4" stroke-width=".5"/><path transform="scale(.5)" d="m64 250h694v124h-694zm-24-212h738v468h-738zm-38-36h816v544h-816z" fill="none" stroke="#ccc" stroke-width="4"/><path transform="scale(.5)" d="m756 252h-690v120l-4 4v-128h698m20-212-4 4h-734v464l-4 4v-472h742m-776 508h812v-540l4-4v548h-820" fill="#666" stroke-width="2"/><g transform="translate(0,180)" stroke-width="2"><path transform="matrix(.5 0 0 .5 8 6)" d="m14 156c0 3.3137-2.6863 6-6 6s-6-2.6863-6-6 2.6863-6 6-6 6 2.6863 6 6zm776 0c0 3.3137-2.6863 6-6 6s-6-2.6863-6-6 2.6863-6 6-6 6 2.6863 6 6zm0-508c0 3.3137-2.6863 6-6 6s-6-2.6863-6-6 2.6863-6 6-6 6 2.6863 6 6zm-776 0c0 3.3137-2.6863 6-6 6s-6-2.6863-6-6 2.6863-6 6-6 6 2.6863 6 6z" fill="#5f6969"/><path transform="matrix(.5 0 0 .5 8 6)" d="m12 154c0 3.3137-2.6863 6-6 6s-6-2.6863-6-6 2.6863-6 6-6 6 2.6863 6 6zm776 0c0 3.3137-2.6863 6-6 6s-6-2.6863-6-6 2.6863-6 6-6 6 2.6863 6 6zm0-508c0 3.3137-2.6863 6-6 6s-6-2.6863-6-6 2.6863-6 6-6 6 2.6863 6 6zm-776 0c0 3.3137-2.6863 6-6 6s-6-2.6863-6-6 2.6863-6 6-6 6 2.6863 6 6z" fill="#838c8b"/></g><rect transform="scale(.5)" x="66" y="252" width="690" height="120" fill="#3cf" stroke-opacity="0"/><rect transform="scale(.5)" x="66" y="342" width="690" height="30" fill="#3c3" stroke-opacity="0"/><path transform="scale(.5)" d="m634 270-1 36h-11v20l-20 8v20h112v-48h-53l-1-36h-10l-1 36h-4l-1-36h-10zm-437 8-1 30-16-1v17h-8v-20l-50-4v24h-18v30h122v-44l-18-1-1-31h-10zm257 8a14 14 0 0 0-14 14h-6v54h122v-30l-20 10v-10l-20 10v-10l-22 10v-34h-26a14 14 0 0 0-14-14zm-166 12a10 2 0 0 0-10 2v20a10 2 0 0 0 3.3672 1.4883l0.01562 0.01563-1.5449 8.4961h-7.8379v24h116v-34h-10v-12h-72v22h-9.8379l-1.5449-8.4961 0.01562-0.01563a10 2 0 0 0 3.3672-1.4883v-20a10 2 0 0 0-10-2zm360 14h12v12h-12v-12zm16 0h12v12h-12v-12zm16 0h12v12h-12v-12zm16 0h12v12h-12v-12zm-354 2h12v12h-12v-12zm16 0h12v12h-12v-12zm-71.922 7.957a10 2 0 0 0 1.9219 0.04297 10 2 0 0 0 1.9219-0.04297l-1.9219 1.9219-1.9219-1.9219zm-2.1133 2.1289 1.9141 1.9141-2.7656 2.7656 0.85156-4.6797zm8.0703 0 0.85156 4.6797-2.7656-2.7656 1.9141-1.9141zm-4.0352 4.0352 1.8789 1.8789h-3.7578l1.8789-1.8789zm-154 1.8789h12v12h-12v-12zm308 2h12v12h-12v-12zm16 0h12v12h-12v-12zm16 0h12v12h-12v-12z" fill="#111" stroke-width="4"/></g></svg>
