<?xml version="1.0" encoding="UTF-8"?>
<!-- Created with Inkscape (http://www.inkscape.org/) -->
<svg width="820" height="548" version="1.1" viewBox="0 0 820 548" xml:space="preserve" xmlns="http://www.w3.org/2000/svg"><g transform="scale(2)" stroke-width=".5"><rect width="410" height="274" fill="#a0a0a4" stroke-width=".5"/><path transform="scale(.5)" d="m64 250h694v124h-694zm-24-212h738v468h-738zm-38-36h816v544h-816z" fill="none" stroke="#ccc" stroke-width="4"/><path transform="scale(.5)" d="m756 252h-690v120l-4 4v-128h698m20-212-4 4h-734v464l-4 4v-472h742m-776 508h812v-540l4-4v548h-820" fill="#666" stroke-width="2"/><g transform="translate(0,180)" stroke-width="2"><path transform="matrix(.5 0 0 .5 8 6)" d="m14 156c0 3.3137-2.6863 6-6 6s-6-2.6863-6-6 2.6863-6 6-6 6 2.6863 6 6zm776 0c0 3.3137-2.6863 6-6 6s-6-2.6863-6-6 2.6863-6 6-6 6 2.6863 6 6zm0-508c0 3.3137-2.6863 6-6 6s-6-2.6863-6-6 2.6863-6 6-6 6 2.6863 6 6zm-776 0c0 3.3137-2.6863 6-6 6s-6-2.6863-6-6 2.6863-6 6-6 6 2.6863 6 6z" fill="#5f6969"/><path transform="matrix(.5 0 0 .5 8 6)" d="m12 154c0 3.3137-2.6863 6-6 6s-6-2.6863-6-6 2.6863-6 6-6 6 2.6863 6 6zm776 0c0 3.3137-2.6863 6-6 6s-6-2.6863-6-6 2.6863-6 6-6 6 2.6863 6 6zm0-508c0 3.3137-2.6863 6-6 6s-6-2.6863-6-6 2.6863-6 6-6 6 2.6863 6 6zm-776 0c0 3.3137-2.6863 6-6 6s-6-2.6863-6-6 2.6863-6 6-6 6 2.6863 6 6z" fill="#838c8b"/></g><rect transform="scale(.5)" x="66" y="252" width="690" height="120" fill="#3cf" stroke-opacity="0"/><rect transform="scale(.5)" x="66" y="342" width="690" height="30" fill="#3c3" stroke-opacity="0"/></g></svg>
