<?xml version="1.0" encoding="UTF-8"?>
<!-- Created with Inkscape (http://www.inkscape.org/) -->
<svg width="670" height="400" version="1.1" viewBox="0 0 670 400" xml:space="preserve" xmlns="http://www.w3.org/2000/svg"><g transform="scale(2)" stroke-width=".5"><rect width="335" height="200" fill="#a0a0a4"/><path d="m20 19h294v160h-294zm-19-18h333v198h-333z" fill-opacity="0" stroke="#ccc" stroke-width="2"/><path d="m315 18-2 2h-292v158l-2 2v-162h296m-315 182 2-2h331v-196l2-2v200h-335" fill="#666"/><g transform="translate(0,180)" stroke-width="2"><path transform="matrix(.5 0 0 .5 8 6)" d="m14 8a6 6 0 0 1-6 6 6 6 0 0 1-6-6 6 6 0 0 1 6-6 6 6 0 0 1 6 6zm626 0a6 6 0 0 1-6 6 6 6 0 0 1-6-6 6 6 0 0 1 6-6 6 6 0 0 1 6 6zm0-360a6 6 0 0 1-6 6 6 6 0 0 1-6-6 6 6 0 0 1 6-6 6 6 0 0 1 6 6zm-626 0a6 6 0 0 1-6 6 6 6 0 0 1-6-6 6 6 0 0 1 6-6 6 6 0 0 1 6 6z" fill="#5f6969"/><path transform="matrix(.5 0 0 .5 8 6)" d="m12 6a6 6 0 0 1-6 6 6 6 0 0 1-6-6 6 6 0 0 1 6-6 6 6 0 0 1 6 6zm626 0a6 6 0 0 1-6 6 6 6 0 0 1-6-6 6 6 0 0 1 6-6 6 6 0 0 1 6 6zm0-360a6 6 0 0 1-6 6 6 6 0 0 1-6-6 6 6 0 0 1 6-6 6 6 0 0 1 6 6zm-626 0a6 6 0 0 1-6 6 6 6 0 0 1-6-6 6 6 0 0 1 6-6 6 6 0 0 1 6 6z" fill="#838c8b"/></g></g></svg>
