<?xml version="1.0" encoding="UTF-8"?>
<!-- Created with Inkscape (http://www.inkscape.org/) -->
<svg width="820" height="548" version="1.1" viewBox="0 0 820 548" xml:space="preserve" xmlns="http://www.w3.org/2000/svg"><g transform="scale(2)" stroke-width=".5"><rect width="410" height="274" fill="#a0a0a4" stroke-width=".5"/><path d="m20 19h369v234h-369zm-19-18h408v272h-408z" fill-opacity="0" stroke="#ccc" stroke-width="2"/><path d="m390 18-2 2h-367v232l-2 2v-236h371m-388 254h406v-270l2-2v274h-410" fill="#666"/><g transform="translate(0,180)" stroke-width="2"><path transform="matrix(.5 0 0 .5 8 6)" d="m14 156c0 3.3137-2.6863 6-6 6s-6-2.6863-6-6 2.6863-6 6-6 6 2.6863 6 6zm776 0c0 3.3137-2.6863 6-6 6s-6-2.6863-6-6 2.6863-6 6-6 6 2.6863 6 6zm0-508c0 3.3137-2.6863 6-6 6s-6-2.6863-6-6 2.6863-6 6-6 6 2.6863 6 6zm-776 0c0 3.3137-2.6863 6-6 6-3.3137 0-6-2.6863-6-6s2.6863-6 6-6c3.3137 0 6 2.6863 6 6z" fill="#5f6969"/><path transform="matrix(.5 0 0 .5 8 6)" d="m12 154c0 3.3137-2.6863 6-6 6s-6-2.6863-6-6 2.6863-6 6-6 6 2.6863 6 6zm776 0c0 3.3137-2.6863 6-6 6s-6-2.6863-6-6 2.6863-6 6-6 6 2.6863 6 6zm0-508c0 3.3137-2.6863 6-6 6s-6-2.6863-6-6 2.6863-6 6-6 6 2.6863 6 6zm-776 0c0 3.3137-2.6863 6-6 6s-6-2.6863-6-6 2.6863-6 6-6 6 2.6863 6 6z" fill="#838c8b"/></g></g></svg>
