<?xml version="1.0" encoding="UTF-8"?>
<!-- Created with Inkscape (http://www.inkscape.org/) -->
<svg width="900" height="162" version="1.1" viewBox="0 0 900 162" xml:space="preserve" xmlns="http://www.w3.org/2000/svg"><g fill="#9f0"><circle cx="55" cy="11" r="1.25"/><circle cx="127" cy="5" r="1.25"/><circle cx="135" cy="5" r="1.25"/><circle cx="147" cy="15" r="1.25"/><circle cx="241" cy="19" r="1.25"/><circle cx="499" cy="109" r="1.25"/><circle cx="551" cy="105" r="1.25"/><circle cx="587" cy="105" r="1.25"/><circle cx="657" cy="105" r="1.25"/><circle cx="649" cy="105" r="1.25"/><circle cx="583" cy="105" r="1.25"/></g><g fill-opacity="0" stroke="#9f0" stroke-linecap="round" stroke-linejoin="round"><g stroke-width="2"><path d="m5 29 2-2-2-2h-2v-2l4-4 4 6 4-4v-2l-2-2 4-2v-4h2l2-2 2 4 2-8 4 2 2-2 12 2 2-2 2 4 8-2"/><path d="m133 1-2 2v4l2 4h2l4-6h4l2 6h6l-2 6 4 2v4l8 3-6 1 10 4-2 4h4"/><path d="m237 15h2l-2 6v4h2l6-4h2l-2 2 2 2-2 2v2l4-2h4l-4 4 2 2 2-2 2 2h2l2 2h2l2 4v2l-4 4 6-2v4l-4 2v4h2l4-2"/><path d="m355 43 2 2h-2v2h-4l-2 2 2 2-2 2"/><path d="m355 51-4 4h4l-2 2 4 4-2 2-2-2h-2l-2 4 2 2h6l-2 2 2 2h-4l2 2v2h4l-4 2v6"/><path d="m439 77h2l4 4v2l-2 2 2 2"/><path d="m441 87 2 2 2 4h-6l-4 2 2 4-6-2.3075v6.3075h-2l-2 2"/><path d="m489 105 2-2h2l2 2h6l2-2 2 2"/><path d="m497 115v-2l2 2 2-4 2 2v-4"/><path d="m525 95-2 2v2l-2 4v2l-2 2-4-4-4-2 2 4-2 2-2-2-2 2"/></g><g stroke-width="2.5"><path d="m553 111h2l-2-2 2-4 2-2v-4l2 2v10l4-8 2 4 2 2v-4h8l-2 2 4 4 2-6 2-2 2-4"/><path d="m589 109 2 2 2-2v6l-2 2h-2l-2-2 4-4"/><path d="m587 119v4l2-2v4l-4 4h4l-2 2h2v2l2 2v-2l4 2v-2h2v-2"/><path d="m637 79-2 2v2h2l-2 2h-4l6 2-2 2h6l-6 4-4 2h6l-4 4h4l-4 4v4l2 2 2-6 4 2v-4l4-2 2 10h2l4-4 2-4"/><path d="m683 121-2-2-4 4v-2h-4v2l2 4 4-2-2 6 6-2v4h-4l2 2v2h2l2-2 2 2-2 4h-2l-2 4-4-6 2 8-2-2-2 2-4-2v4h4l-2 4"/><path d="m727 55-2 2 2 2 4 2h-8l6 2h-6v2l4 2-6 4h6l-2 2 2 6-2-2-4 4 4-2 2 4-2 4-4-2 4 4h2l2 2-4 2"/><path d="m769 139 4-2 4 4-2 2-4 2-4-2 2 4-2 4v-2l-4 2v-2h-4v4l2 2-6-2 2 6-2 2-4-2v2l-4-2 2-6h-4l-2 2 2 6-4-4-2 2 2 2h-4"/><path d="m831 11-2-2h-2v4h-4l2 2v4h-2v-2h-4v6h-4v2l4 2v2l-4-2v4h2l-2 2h-4l4 2h2l-2 2 4 2v2l-2-2-2 2 2 2v4l-2-1v3h-2l-2 2v2l2 2 4-4-2 6 2-2 2 2"/><path d="m813 135 2 2 2-2v4h4v2l-2 2-4-2 2 4h-2l4 2-4 2 2 2-4 2v2h6l-4 2v2h6l-2 2h8l-2-2h4v-4h2l2 2-2 4h4v-4l2-2h2l-2 4 2 2 2-2h2v2"/></g></g></svg>
